<svg id="SvgjsSvg1001" width="288" height="288" xmlns="http://www.w3.org/2000/svg" version="1.1" xmlns:xlink="http://www.w3.org/1999/xlink" xmlns:svgjs="http://svgjs.com/svgjs"><defs id="SvgjsDefs1002"></defs><g id="SvgjsG1008" transform="matrix(1,0,0,1,0,0)"><svg xmlns="http://www.w3.org/2000/svg" width="288" height="288" enable-background="new 0 0 512 512" viewBox="0 0 512 512"><path d="m407 0c-57.897 0-105 47.103-105 105s47.103 105 105 105 105-47.103 105-105-47.103-105-105-105zm0 180c-41.355 0-75-33.645-75-75s33.645-75 75-75 75 33.645 75 75-33.645 75-75 75z" fill="#e9ecef" class="color000 svgShape"></path><path d="M447.856 64.144c-5.857-5.857-15.355-5.857-21.213 0l-19.643 19.643-19.644-19.644c-5.857-5.857-15.355-5.857-21.213 0s-5.858 15.355 0 21.213l19.644 19.644-19.644 19.644c-5.858 5.857-5.858 15.355 0 21.213 5.858 5.859 15.355 5.858 21.213 0l19.644-19.644 19.644 19.644c5.858 5.859 15.355 5.858 21.213 0 5.858-5.857 5.858-15.355 0-21.213l-19.644-19.644 19.644-19.644c5.858-5.857 5.858-15.355-.001-21.212zM210 105c0-57.897-47.103-105-105-105s-105 47.103-105 105 47.103 105 105 105 105-47.103 105-105zm-105 75c-41.355 0-75-33.645-75-75s33.645-75 75-75 75 33.645 75 75-33.645 75-75 75z" fill="#e9ecef" class="color000 svgShape"></path><path d="M125.394 74.394l-30.394 30.393-8.394-8.394c-5.857-5.857-15.355-5.857-21.213 0s-5.858 15.355 0 21.213l19 19c5.858 5.859 15.355 5.858 21.213 0l41-41c5.858-5.857 5.858-15.355 0-21.213-5.857-5.857-15.355-5.857-21.212.001zM382.037 283.79l-80.563-10.037v-76.753c0-24.813-20.187-45-45-45s-45 20.187-45 45v129.638l-3.742-3.141c-18.507-15.527-47.458-14.262-64.538 2.819-17.86 17.86-16.765 46.316 2.737 62.68l65.543 54.998v53.006c0 8.284 6.716 15 15 15h180c8.284 0 15-6.716 15-15v-168.556c0-22.656-16.954-41.853-39.437-44.654zm-216.823 82.226c-5.92-4.968-6.283-13.011-.808-18.486 6.147-6.146 17.381-6.639 24.042-1.051l28.384 23.817c9.734 8.17 24.642 1.236 24.642-11.49v-161.806c0-8.271 6.729-15 15-15s15 6.729 15 15v90c0 7.567 5.637 13.949 13.146 14.885l93.709 11.675c7.494.934 13.146 7.333 13.146 14.885v93.555h-159.543zm76.26 115.984v-30h150v30z" fill="#e9ecef" class="color000 svgShape"></path></svg></g></svg>