<svg width="22" height="22" viewBox="0 0 22 22" fill="none" xmlns="http://www.w3.org/2000/svg">
<path fill-rule="evenodd" clip-rule="evenodd" d="M11 22C8.06184 22 5.29942 20.8558 3.22182 18.7782C1.14421 16.7006 0 13.9382 0 11C0 8.06184 1.14421 5.29942 3.22182 3.22182C5.29942 1.14421 8.06184 0 11 0C13.9382 0 16.7006 1.14421 18.7782 3.22182C20.8558 5.29942 22 8.06184 22 11C22 13.9382 20.8558 16.7006 18.7782 18.7782C16.7006 20.8558 13.9382 22 11 22ZM11 1.71875C5.88235 1.71875 1.71875 5.88235 1.71875 11C1.71875 16.1176 5.88235 20.2812 11 20.2812C16.1176 20.2812 20.2812 16.1176 20.2812 11C20.2812 5.88235 16.1176 1.71875 11 1.71875ZM14.3118 14.3118L15.5272 15.5272C14.2791 16.7753 12.6394 17.3993 11 17.3993C9.36047 17.3993 7.72095 16.7753 6.47284 15.5272C3.97662 13.0309 3.97662 8.96922 6.47284 6.47284C8.96906 3.97662 13.0308 3.97662 15.5272 6.47284L14.3118 7.68822C12.4856 5.86205 9.51439 5.86205 7.68822 7.68822C5.86205 9.51439 5.86205 12.4856 7.68822 14.3118C9.51439 16.138 12.4856 16.138 14.3118 14.3118Z" fill="#6D7587"/>
</svg>
