<svg width="28" height="28" viewBox="0 0 28 28" fill="none" xmlns="http://www.w3.org/2000/svg">
<g opacity="0.6">
<path fill-rule="evenodd" clip-rule="evenodd" d="M14.0003 5.25C8.16699 5.25 3.18533 8.87833 1.16699 14C3.18533 19.1217 8.16699 22.75 14.0003 22.75C19.8337 22.75 24.8153 19.1217 26.8337 14C24.8153 8.87833 19.8337 5.25 14.0003 5.25ZM14.0003 19.8333C10.7803 19.8333 8.16699 17.22 8.16699 14C8.16699 10.78 10.7803 8.16667 14.0003 8.16667C17.2203 8.16667 19.8337 10.78 19.8337 14C19.8337 17.22 17.2203 19.8333 14.0003 19.8333ZM10.5003 14C10.5003 12.0633 12.0637 10.5 14.0003 10.5C15.937 10.5 17.5003 12.0633 17.5003 14C17.5003 15.9367 15.937 17.5 14.0003 17.5C12.0637 17.5 10.5003 15.9367 10.5003 14Z" fill="#6D7587"/>
</g>
</svg>
