<svg width="21" height="19" viewBox="0 0 21 19" fill="none" xmlns="http://www.w3.org/2000/svg">
<path fill-rule="evenodd" clip-rule="evenodd" d="M16.6901 17.4324C16.6901 17.743 16.4457 17.9957 16.1453 17.9957H4.5366C4.23617 17.9957 3.99201 17.743 3.99201 17.4324V10.8501H16.6901V17.4324ZM3.99322 0.94398C3.99322 0.634007 4.23798 0.382116 4.53881 0.382116H16.1809C16.4817 0.382116 16.7267 0.634007 16.7267 0.94398V2.9801H3.99322V0.94398ZM20.1825 2.9801H17.1032V0.94398C17.1032 0.423487 16.6895 0 16.1809 0H4.53881C4.03039 0 3.61642 0.423487 3.61642 0.94398V2.9801H0.817694C0.366144 2.9801 0 3.35019 0 3.8071V12.3156C0 12.7721 0.366144 13.1424 0.817694 13.1424H3.39919V10.8501H3.61783V17.4324C3.61783 17.9523 4.03019 18.375 4.5366 18.375H16.1453C16.6521 18.375 17.0641 17.9523 17.0641 17.4324V10.8501H17.2986V13.1424H20.1825C20.6341 13.1424 21 12.7721 21 12.3156V3.8071C21 3.35019 20.6341 2.9801 20.1825 2.9801Z" fill="#6D7587"/>
<path fill-rule="evenodd" clip-rule="evenodd" d="M5.47666 13.125H15.5233C15.6485 13.125 15.75 12.9293 15.75 12.6877C15.75 12.4457 15.6485 12.25 15.5233 12.25H5.47666C5.35154 12.25 5.25 12.4457 5.25 12.6877C5.25 12.9293 5.35154 13.125 5.47666 13.125Z" fill="#4D545E"/>
<path fill-rule="evenodd" clip-rule="evenodd" d="M5.47666 14.875H15.5233C15.6485 14.875 15.75 14.6793 15.75 14.4377C15.75 14.1957 15.6485 14 15.5233 14H5.47666C5.35154 14 5.25 14.1957 5.25 14.4377C5.25 14.6793 5.35154 14.875 5.47666 14.875Z" fill="#4D545E"/>
<path fill-rule="evenodd" clip-rule="evenodd" d="M5.47666 16.625H15.5233C15.6485 16.625 15.75 16.429 15.75 16.1875C15.75 15.946 15.6485 15.75 15.5233 15.75H5.47666C5.35154 15.75 5.25 15.946 5.25 16.1875C5.25 16.429 5.35154 16.625 5.47666 16.625Z" fill="#4D545E"/>
</svg>
