<svg width="auto" height="auto" viewBox="0 0 28 28" fill="none" xmlns="http://www.w3.org/2000/svg">
<path d="M6.20539 16.9217L5.23075 20.5602L1.66846 20.6355C0.603859 18.6609 0 16.4018 0 14.001C0 11.6794 0.564594 9.49018 1.56537 7.5625H1.56614L4.73758 8.14394L6.12686 11.2963C5.83609 12.1441 5.6776 13.0541 5.6776 14.001C5.67771 15.0287 5.86387 16.0133 6.20539 16.9217Z" fill="#6D7587"/>
<path d="M27.7552 11.3848C27.916 12.2317 27.9998 13.1063 27.9998 14.0001C27.9998 15.0025 27.8945 15.9802 27.6937 16.9232C27.0122 20.1325 25.2314 22.9348 22.7645 24.9178L22.7637 24.9171L18.7691 24.7133L18.2038 21.184C19.8407 20.224 21.1199 18.7217 21.7938 16.9232H14.3076V11.3848H21.903H27.7552Z" fill="#6D7587"/>
<path d="M22.7638 24.9161L22.7646 24.9168C20.3654 26.8453 17.3177 27.9991 14 27.9991C8.66846 27.9991 4.03309 25.0191 1.66846 20.6337L6.20539 16.9199C7.38768 20.0753 10.4315 22.3215 14 22.3215C15.5338 22.3215 16.9708 21.9068 18.2038 21.183L22.7638 24.9161Z" fill="#6D7587"/>
<path d="M22.9362 3.22306L18.4008 6.93612C17.1247 6.13845 15.6162 5.67766 14.0001 5.67766C10.3508 5.67766 7.25003 8.02687 6.12697 11.2954L1.5662 7.56153H1.56543C3.89545 3.06923 8.58927 0 14.0001 0C17.397 0 20.5116 1.21002 22.9362 3.22306Z" fill="#6D7587"/>
</svg>
