<svg width="30" height="30" viewBox="0 0 30 30" fill="none" xmlns="http://www.w3.org/2000/svg">
<path fill-rule="evenodd" clip-rule="evenodd" d="M26.4934 19.1995C26.4934 23.2253 23.2302 26.489 19.2038 26.489H10.1104C6.08407 26.489 2.82088 23.2253 2.82088 19.1995V10.1055C2.82088 6.07967 6.08407 2.81648 10.1104 2.81648H19.2C23.2258 2.81648 26.489 6.07967 26.489 10.1055L26.4934 19.1995ZM20.2775 0H9.03022C4.04286 0.0010989 0 4.04451 0 9.03187V20.2775C0 25.2648 4.04286 29.3071 9.03022 29.3071H20.2775C25.2648 29.3071 29.3077 25.2648 29.3077 20.2775V9.03187C29.3077 4.04451 25.2654 0.0010989 20.2775 0V0Z" fill="#8A92A5"/>
<path fill-rule="evenodd" clip-rule="evenodd" d="M15.0472 19.3567C12.4852 19.3567 10.4088 17.2797 10.4088 14.7182C10.4088 12.1561 12.4852 10.0792 15.0472 10.0792C17.6088 10.0792 19.6857 12.1561 19.6857 14.7182C19.6824 17.277 17.606 19.3495 15.0472 19.3495V19.3567ZM15.0472 6.98633C10.7835 6.99292 7.33185 10.4539 7.3379 14.7182C7.34394 18.9814 10.8055 22.433 15.0692 22.427C19.3297 22.4204 22.7791 18.9649 22.778 14.7045C22.778 10.4418 19.3225 6.98633 15.0599 6.98633H15.0472Z" fill="#8A92A5"/>
<path fill-rule="evenodd" clip-rule="evenodd" d="M23.8134 6.86617C23.8134 7.74035 23.1046 8.44914 22.2304 8.44914C21.3563 8.44914 20.6475 7.74035 20.6475 6.86617C20.6475 5.99199 21.3563 5.2832 22.2304 5.2832C23.1046 5.2832 23.8134 5.99199 23.8134 6.86617" fill="#8A92A5"/>
</svg>
