<svg width="29" height="389" viewBox="0 0 29 389" fill="none" xmlns="http://www.w3.org/2000/svg">
<g clip-path="url(#clip0)">
<path d="M6.2 231.928C6.2 229.752 6.72 228.04 7.76 226.792C8.8 225.544 10.232 224.92 12.056 224.92C13.88 224.92 15.312 225.544 16.352 226.792C17.392 228.04 17.912 229.752 17.912 231.928V236.08H23V238.48H6.2L6.2 231.928ZM15.824 232C15.824 230.48 15.504 229.32 14.864 228.52C14.208 227.72 13.272 227.32 12.056 227.32C10.84 227.32 9.912 227.72 9.272 228.52C8.616 229.32 8.288 230.48 8.288 232V236.08H15.824V232ZM12.416 219.733C11.68 219.333 11.12 218.741 10.736 217.957C10.352 217.173 10.16 216.221 10.16 215.101H12.392C12.376 215.229 12.368 215.405 12.368 215.629C12.368 216.877 12.744 217.861 13.496 218.581C14.232 219.285 15.288 219.637 16.664 219.637H23V221.941H10.28V219.733H12.416ZM23.144 206.93C23.144 208.194 22.864 209.33 22.304 210.338C21.744 211.346 20.976 212.138 20 212.714C19.008 213.274 17.888 213.554 16.64 213.554C15.392 213.554 14.28 213.274 13.304 212.714C12.312 212.138 11.544 211.346 11 210.338C10.44 209.33 10.16 208.194 10.16 206.93C10.16 205.666 10.44 204.538 11 203.546C11.544 202.538 12.312 201.754 13.304 201.194C14.28 200.618 15.392 200.33 16.64 200.33C17.888 200.33 19.008 200.618 20 201.194C20.976 201.754 21.744 202.538 22.304 203.546C22.864 204.538 23.144 205.666 23.144 206.93ZM21.128 206.93C21.128 206.114 20.944 205.386 20.576 204.746C20.192 204.09 19.664 203.578 18.992 203.21C18.304 202.842 17.52 202.658 16.64 202.658C15.76 202.658 14.984 202.842 14.312 203.21C13.624 203.578 13.096 204.09 12.728 204.746C12.36 205.386 12.176 206.114 12.176 206.93C12.176 207.746 12.36 208.482 12.728 209.138C13.096 209.778 13.624 210.29 14.312 210.674C14.984 211.042 15.76 211.226 16.64 211.226C17.52 211.226 18.304 211.042 18.992 210.674C19.664 210.29 20.192 209.778 20.576 209.138C20.944 208.482 21.128 207.746 21.128 206.93ZM5.192 185.144H23V187.352H20.984C21.688 187.864 22.224 188.512 22.592 189.296C22.96 190.08 23.144 190.944 23.144 191.888C23.144 193.12 22.872 194.224 22.328 195.2C21.784 196.176 21.024 196.944 20.048 197.504C19.056 198.048 17.92 198.32 16.64 198.32C15.36 198.32 14.232 198.048 13.256 197.504C12.28 196.944 11.52 196.176 10.976 195.2C10.432 194.224 10.16 193.12 10.16 191.888C10.16 190.976 10.336 190.136 10.688 189.368C11.024 188.6 11.528 187.96 12.2 187.448H5.192V185.144ZM21.128 191.696C21.128 190.896 20.944 190.168 20.576 189.512C20.192 188.856 19.664 188.344 18.992 187.976C18.304 187.608 17.52 187.424 16.64 187.424C15.76 187.424 14.984 187.608 14.312 187.976C13.624 188.344 13.096 188.856 12.728 189.512C12.36 190.168 12.176 190.896 12.176 191.696C12.176 192.512 12.36 193.248 12.728 193.904C13.096 194.544 13.624 195.056 14.312 195.44C14.984 195.808 15.76 195.992 16.64 195.992C17.52 195.992 18.304 195.808 18.992 195.44C19.664 195.056 20.192 194.544 20.576 193.904C20.944 193.248 21.128 192.512 21.128 191.696ZM10.28 168.929H23V171.113H21.08C21.736 171.577 22.248 172.193 22.616 172.961C22.968 173.713 23.144 174.537 23.144 175.433C23.144 177.129 22.68 178.465 21.752 179.441C20.808 180.417 19.424 180.905 17.6 180.905H10.28V178.601H17.336C18.568 178.601 19.504 178.305 20.144 177.713C20.768 177.121 21.08 176.273 21.08 175.169C21.08 173.953 20.712 172.993 19.976 172.289C19.24 171.585 18.2 171.233 16.856 171.233H10.28V168.929ZM23.144 158.999C23.144 160.295 22.864 161.455 22.304 162.479C21.744 163.487 20.976 164.279 20 164.855C19.008 165.431 17.888 165.719 16.64 165.719C15.392 165.719 14.28 165.431 13.304 164.855C12.312 164.279 11.544 163.487 11 162.479C10.44 161.455 10.16 160.295 10.16 158.999C10.16 157.847 10.392 156.823 10.856 155.927C11.32 155.015 11.992 154.311 12.872 153.815L14 155.567C13.392 155.967 12.936 156.463 12.632 157.055C12.328 157.647 12.176 158.303 12.176 159.023C12.176 159.855 12.36 160.607 12.728 161.279C13.096 161.935 13.624 162.455 14.312 162.839C14.984 163.207 15.76 163.391 16.64 163.391C17.536 163.391 18.328 163.207 19.016 162.839C19.688 162.455 20.208 161.935 20.576 161.279C20.944 160.607 21.128 159.855 21.128 159.023C21.128 158.303 20.976 157.647 20.672 157.055C20.368 156.463 19.912 155.967 19.304 155.567L20.408 153.815C21.288 154.311 21.968 155.015 22.448 155.927C22.912 156.823 23.144 157.847 23.144 158.999ZM22.256 143.516C22.544 143.852 22.768 144.268 22.928 144.764C23.072 145.26 23.144 145.772 23.144 146.3C23.144 147.58 22.8 148.572 22.112 149.276C21.424 149.98 20.44 150.332 19.16 150.332H12.176V152.492H10.28V150.332H7.496V148.028H10.28V144.38H12.176V148.028H19.064C19.752 148.028 20.28 147.86 20.648 147.524C21.016 147.172 21.2 146.676 21.2 146.036C21.2 145.332 21 144.732 20.6 144.236L22.256 143.516ZM23.144 137.082C23.144 138.122 23.008 139.122 22.736 140.082C22.448 141.042 22.088 141.794 21.656 142.338L19.832 141.378C20.232 140.818 20.552 140.138 20.792 139.338C21.032 138.538 21.152 137.73 21.152 136.914C21.152 134.898 20.576 133.89 19.424 133.89C19.04 133.89 18.736 134.026 18.512 134.298C18.288 134.57 18.128 134.914 18.032 135.33C17.92 135.73 17.8 136.306 17.672 137.058C17.512 138.082 17.328 138.922 17.12 139.578C16.912 140.218 16.56 140.77 16.064 141.234C15.568 141.698 14.872 141.93 13.976 141.93C12.824 141.93 11.904 141.45 11.216 140.49C10.512 139.53 10.16 138.242 10.16 136.626C10.16 135.778 10.264 134.93 10.472 134.082C10.68 133.234 10.96 132.538 11.312 131.994L13.136 132.978C12.464 134.018 12.128 135.242 12.128 136.65C12.128 137.626 12.288 138.37 12.608 138.882C12.928 139.394 13.352 139.65 13.88 139.65C14.296 139.65 14.624 139.506 14.864 139.218C15.104 138.93 15.28 138.578 15.392 138.162C15.504 137.73 15.632 137.13 15.776 136.362C15.952 135.338 16.144 134.514 16.352 133.89C16.544 133.25 16.88 132.706 17.36 132.258C17.84 131.81 18.512 131.586 19.376 131.586C20.528 131.586 21.448 132.082 22.136 133.074C22.808 134.05 23.144 135.386 23.144 137.082Z" fill="#6D7587"/>
<rect x="12.5" y="100.5" width="100" height="3" rx="1.5" transform="rotate(-90 12.5 100.5)" fill="#6D7587"/>
<rect x="12.5" y="388.5" width="118" height="3" rx="1.5" transform="rotate(-90 12.5 388.5)" fill="#6D7587"/>
</g>
<defs>
<clipPath id="clip0">
<rect width="29" height="389" fill="white"/>
</clipPath>
</defs>
</svg>
