<svg width="29" height="389" viewBox="0 0 29 389" fill="none" xmlns="http://www.w3.org/2000/svg">
<g clip-path="url(#clip0)">
<path d="M23.192 240.968C23.192 242.648 22.824 244.168 22.088 245.528C21.336 246.872 20.312 247.928 19.016 248.696C17.704 249.464 16.232 249.848 14.6 249.848C12.968 249.848 11.504 249.464 10.208 248.696C8.896 247.928 7.872 246.864 7.136 245.504C6.384 244.144 6.008 242.624 6.008 240.944C6.008 239.632 6.232 238.432 6.68 237.344C7.112 236.256 7.76 235.328 8.624 234.56L10.136 236.12C8.808 237.384 8.144 238.96 8.144 240.848C8.144 242.096 8.424 243.224 8.984 244.232C9.544 245.24 10.32 246.032 11.312 246.608C12.288 247.168 13.384 247.448 14.6 247.448C15.816 247.448 16.92 247.168 17.912 246.608C18.888 246.032 19.656 245.24 20.216 244.232C20.776 243.224 21.056 242.096 21.056 240.848C21.056 238.976 20.384 237.4 19.04 236.12L20.552 234.56C21.416 235.328 22.072 236.264 22.52 237.368C22.968 238.456 23.192 239.656 23.192 240.968ZM10.28 220.015H23L23 222.199H21.08C21.736 222.663 22.248 223.279 22.616 224.047C22.968 224.799 23.144 225.623 23.144 226.519C23.144 228.215 22.68 229.551 21.752 230.527C20.808 231.503 19.424 231.991 17.6 231.991H10.28V229.687H17.336C18.568 229.687 19.504 229.391 20.144 228.799C20.768 228.207 21.08 227.359 21.08 226.255C21.08 225.039 20.712 224.079 19.976 223.375C19.24 222.671 18.2 222.319 16.856 222.319H10.28V220.015ZM23.144 211.98C23.144 213.02 23.008 214.02 22.736 214.98C22.448 215.94 22.088 216.692 21.656 217.236L19.832 216.276C20.232 215.716 20.552 215.036 20.792 214.236C21.032 213.436 21.152 212.628 21.152 211.812C21.152 209.796 20.576 208.788 19.424 208.788C19.04 208.788 18.736 208.924 18.512 209.196C18.288 209.468 18.128 209.812 18.032 210.228C17.92 210.628 17.8 211.204 17.672 211.956C17.512 212.98 17.328 213.82 17.12 214.476C16.912 215.116 16.56 215.668 16.064 216.132C15.568 216.596 14.872 216.828 13.976 216.828C12.824 216.828 11.904 216.348 11.216 215.388C10.512 214.428 10.16 213.14 10.16 211.524C10.16 210.676 10.264 209.828 10.472 208.98C10.68 208.132 10.96 207.436 11.312 206.892L13.136 207.876C12.464 208.916 12.128 210.14 12.128 211.548C12.128 212.524 12.288 213.268 12.608 213.78C12.928 214.292 13.352 214.548 13.88 214.548C14.296 214.548 14.624 214.404 14.864 214.116C15.104 213.828 15.28 213.476 15.392 213.06C15.504 212.628 15.632 212.028 15.776 211.26C15.952 210.236 16.144 209.412 16.352 208.788C16.544 208.148 16.88 207.604 17.36 207.156C17.84 206.708 18.512 206.484 19.376 206.484C20.528 206.484 21.448 206.98 22.136 207.972C22.808 208.948 23.144 210.284 23.144 211.98ZM22.256 196.453C22.544 196.789 22.768 197.205 22.928 197.701C23.072 198.197 23.144 198.709 23.144 199.237C23.144 200.517 22.8 201.509 22.112 202.213C21.424 202.917 20.44 203.269 19.16 203.269H12.176V205.429H10.28V203.269H7.496V200.965H10.28V197.317H12.176V200.965H19.064C19.752 200.965 20.28 200.797 20.648 200.461C21.016 200.109 21.2 199.613 21.2 198.973C21.2 198.269 21 197.669 20.6 197.173L22.256 196.453ZM23.144 188.641C23.144 189.905 22.864 191.041 22.304 192.049C21.744 193.057 20.976 193.849 20 194.425C19.008 194.985 17.888 195.265 16.64 195.265C15.392 195.265 14.28 194.985 13.304 194.425C12.312 193.849 11.544 193.057 11 192.049C10.44 191.041 10.16 189.905 10.16 188.641C10.16 187.377 10.44 186.249 11 185.257C11.544 184.249 12.312 183.465 13.304 182.905C14.28 182.329 15.392 182.041 16.64 182.041C17.888 182.041 19.008 182.329 20 182.905C20.976 183.465 21.744 184.249 22.304 185.257C22.864 186.249 23.144 187.377 23.144 188.641ZM21.128 188.641C21.128 187.825 20.944 187.097 20.576 186.457C20.192 185.801 19.664 185.289 18.992 184.921C18.304 184.553 17.52 184.369 16.64 184.369C15.76 184.369 14.984 184.553 14.312 184.921C13.624 185.289 13.096 185.801 12.728 186.457C12.36 187.097 12.176 187.825 12.176 188.641C12.176 189.457 12.36 190.193 12.728 190.849C13.096 191.489 13.624 192.001 14.312 192.385C14.984 192.753 15.76 192.937 16.64 192.937C17.52 192.937 18.304 192.753 18.992 192.385C19.664 192.001 20.192 191.489 20.576 190.849C20.944 190.193 21.128 189.457 21.128 188.641ZM10.16 162.943C10.16 161.343 10.624 160.079 11.552 159.151C12.48 158.207 13.856 157.735 15.68 157.735H23V160.039H15.944C14.712 160.039 13.784 160.327 13.16 160.903C12.536 161.463 12.224 162.271 12.224 163.327C12.224 164.495 12.592 165.423 13.328 166.111C14.048 166.799 15.088 167.143 16.448 167.143H23V169.447H15.944C14.712 169.447 13.784 169.735 13.16 170.311C12.536 170.871 12.224 171.679 12.224 172.735C12.224 173.903 12.592 174.831 13.328 175.519C14.048 176.207 15.088 176.551 16.448 176.551H23V178.855H10.28L10.28 176.647H12.176C11.52 176.183 11.024 175.575 10.688 174.823C10.336 174.071 10.16 173.215 10.16 172.255C10.16 171.263 10.36 170.383 10.76 169.615C11.16 168.847 11.744 168.255 12.512 167.839C11.776 167.359 11.2 166.695 10.784 165.847C10.368 164.983 10.16 164.015 10.16 162.943ZM16.712 141.929C16.888 141.929 17.12 141.945 17.408 141.977V152.297C18.528 152.153 19.432 151.665 20.12 150.833C20.792 149.985 21.128 148.937 21.128 147.689C21.128 146.169 20.616 144.945 19.592 144.017L21.08 142.745C21.752 143.321 22.264 144.041 22.616 144.905C22.968 145.753 23.144 146.705 23.144 147.761C23.144 149.105 22.872 150.297 22.328 151.337C21.768 152.377 20.992 153.185 20 153.761C19.008 154.321 17.888 154.601 16.64 154.601C15.408 154.601 14.296 154.329 13.304 153.785C12.312 153.225 11.544 152.465 11 151.505C10.44 150.529 10.16 149.433 10.16 148.217C10.16 147.001 10.44 145.921 11 144.977C11.544 144.017 12.312 143.273 13.304 142.745C14.296 142.201 15.432 141.929 16.712 141.929ZM12.104 148.217C12.104 149.321 12.44 150.249 13.112 151.001C13.784 151.737 14.664 152.169 15.752 152.297L15.752 144.137C14.68 144.265 13.808 144.705 13.136 145.457C12.448 146.193 12.104 147.113 12.104 148.217ZM12.416 136.522C11.68 136.122 11.12 135.53 10.736 134.746C10.352 133.962 10.16 133.01 10.16 131.89H12.392C12.376 132.018 12.368 132.194 12.368 132.418C12.368 133.666 12.744 134.65 13.496 135.37C14.232 136.074 15.288 136.426 16.664 136.426H23V138.73H10.28V136.522H12.416ZM23.144 125.309C23.144 126.349 23.008 127.349 22.736 128.309C22.448 129.269 22.088 130.021 21.656 130.565L19.832 129.605C20.232 129.045 20.552 128.365 20.792 127.565C21.032 126.765 21.152 125.957 21.152 125.141C21.152 123.125 20.576 122.117 19.424 122.117C19.04 122.117 18.736 122.253 18.512 122.525C18.288 122.797 18.128 123.141 18.032 123.557C17.92 123.957 17.8 124.533 17.672 125.285C17.512 126.309 17.328 127.149 17.12 127.805C16.912 128.445 16.56 128.997 16.064 129.461C15.568 129.925 14.872 130.157 13.976 130.157C12.824 130.157 11.904 129.677 11.216 128.717C10.512 127.757 10.16 126.469 10.16 124.853C10.16 124.005 10.264 123.157 10.472 122.309C10.68 121.461 10.96 120.765 11.312 120.221L13.136 121.205C12.464 122.245 12.128 123.469 12.128 124.877C12.128 125.853 12.288 126.597 12.608 127.109C12.928 127.621 13.352 127.877 13.88 127.877C14.296 127.877 14.624 127.733 14.864 127.445C15.104 127.157 15.28 126.805 15.392 126.389C15.504 125.957 15.632 125.357 15.776 124.589C15.952 123.565 16.144 122.741 16.352 122.117C16.544 121.477 16.88 120.933 17.36 120.485C17.84 120.037 18.512 119.813 19.376 119.813C20.528 119.813 21.448 120.309 22.136 121.301C22.808 122.277 23.144 123.613 23.144 125.309Z" fill="#6D7587"/>
<rect x="12.5" y="100.5" width="100" height="3" rx="1.5" transform="rotate(-90 12.5 100.5)" fill="#6D7587"/>
<rect x="12.5" y="388.5" width="118" height="3" rx="1.5" transform="rotate(-90 12.5 388.5)" fill="#6D7587"/>
</g>
<defs>
<clipPath id="clip0">
<rect width="29" height="389" fill="white"/>
</clipPath>
</defs>
</svg>
