<svg width="29" height="389" viewBox="0 0 29 389" fill="none" xmlns="http://www.w3.org/2000/svg">
<g clip-path="url(#clip0)">
<path d="M23.192 224.968C23.192 226.648 22.824 228.168 22.088 229.528C21.336 230.872 20.312 231.928 19.016 232.696C17.704 233.464 16.232 233.848 14.6 233.848C12.968 233.848 11.504 233.464 10.208 232.696C8.896 231.928 7.872 230.864 7.136 229.504C6.384 228.144 6.008 226.624 6.008 224.944C6.008 223.632 6.232 222.432 6.68 221.344C7.112 220.256 7.76 219.328 8.624 218.56L10.136 220.12C8.808 221.384 8.144 222.96 8.144 224.848C8.144 226.096 8.424 227.224 8.984 228.232C9.544 229.24 10.32 230.032 11.312 230.608C12.288 231.168 13.384 231.448 14.6 231.448C15.816 231.448 16.92 231.168 17.912 230.608C18.888 230.032 19.656 229.24 20.216 228.232C20.776 227.224 21.056 226.096 21.056 224.848C21.056 222.976 20.384 221.4 19.04 220.12L20.552 218.56C21.416 219.328 22.072 220.264 22.52 221.368C22.968 222.456 23.192 223.656 23.192 224.968ZM23.144 210.563C23.144 211.827 22.864 212.963 22.304 213.971C21.744 214.979 20.976 215.771 20 216.347C19.008 216.907 17.888 217.187 16.64 217.187C15.392 217.187 14.28 216.907 13.304 216.347C12.312 215.771 11.544 214.979 11 213.971C10.44 212.963 10.16 211.827 10.16 210.563C10.16 209.299 10.44 208.171 11 207.179C11.544 206.171 12.312 205.387 13.304 204.827C14.28 204.251 15.392 203.963 16.64 203.963C17.888 203.963 19.008 204.251 20 204.827C20.976 205.387 21.744 206.171 22.304 207.179C22.864 208.171 23.144 209.299 23.144 210.563ZM21.128 210.563C21.128 209.747 20.944 209.019 20.576 208.379C20.192 207.723 19.664 207.211 18.992 206.843C18.304 206.475 17.52 206.291 16.64 206.291C15.76 206.291 14.984 206.475 14.312 206.843C13.624 207.211 13.096 207.723 12.728 208.379C12.36 209.019 12.176 209.747 12.176 210.563C12.176 211.379 12.36 212.115 12.728 212.771C13.096 213.411 13.624 213.923 14.312 214.307C14.984 214.675 15.76 214.859 16.64 214.859C17.52 214.859 18.304 214.675 18.992 214.307C19.664 213.923 20.192 213.411 20.576 212.771C20.944 212.115 21.128 211.379 21.128 210.563ZM10.16 193.985C10.16 192.369 10.632 191.089 11.576 190.145C12.504 189.185 13.872 188.705 15.68 188.705H23V191.009H15.944C14.712 191.009 13.784 191.305 13.16 191.897C12.536 192.489 12.224 193.337 12.224 194.441C12.224 195.689 12.592 196.673 13.328 197.393C14.048 198.113 15.088 198.473 16.448 198.473H23V200.777H10.28V198.569H12.2C11.544 198.105 11.04 197.481 10.688 196.697C10.336 195.897 10.16 194.993 10.16 193.985ZM22.256 177.289C22.544 177.625 22.768 178.041 22.928 178.537C23.072 179.033 23.144 179.545 23.144 180.073C23.144 181.353 22.8 182.345 22.112 183.049C21.424 183.753 20.44 184.105 19.16 184.105H12.176V186.265H10.28V184.105H7.496V181.801H10.28V178.153H12.176V181.801H19.064C19.752 181.801 20.28 181.633 20.648 181.297C21.016 180.945 21.2 180.449 21.2 179.809C21.2 179.105 21 178.505 20.6 178.009L22.256 177.289ZM10.16 169.871C10.16 168.111 10.592 166.767 11.456 165.839C12.32 164.895 13.608 164.423 15.32 164.423H23V166.607H21.32C21.912 166.991 22.368 167.543 22.688 168.263C22.992 168.967 23.144 169.807 23.144 170.783C23.144 172.207 22.8 173.351 22.112 174.215C21.424 175.063 20.52 175.487 19.4 175.487C18.28 175.487 17.384 175.079 16.712 174.263C16.024 173.447 15.68 172.151 15.68 170.375V166.727H15.224C14.232 166.727 13.472 167.015 12.944 167.591C12.416 168.167 12.152 169.015 12.152 170.135C12.152 170.887 12.28 171.623 12.536 172.343C12.776 173.063 13.104 173.671 13.52 174.167L11.792 175.127C11.264 174.471 10.864 173.687 10.592 172.775C10.304 171.863 10.16 170.895 10.16 169.871ZM21.368 170.399C21.368 169.519 21.176 168.759 20.792 168.119C20.392 167.479 19.832 167.015 19.112 166.727H17.336V170.279C17.336 172.231 17.992 173.207 19.304 173.207C19.944 173.207 20.448 172.959 20.816 172.463C21.184 171.967 21.368 171.279 21.368 170.399ZM23.144 154.545C23.144 155.841 22.864 157.001 22.304 158.025C21.744 159.033 20.976 159.825 20 160.401C19.008 160.977 17.888 161.265 16.64 161.265C15.392 161.265 14.28 160.977 13.304 160.401C12.312 159.825 11.544 159.033 11 158.025C10.44 157.001 10.16 155.841 10.16 154.545C10.16 153.393 10.392 152.369 10.856 151.473C11.32 150.561 11.992 149.857 12.872 149.361L14 151.113C13.392 151.513 12.936 152.009 12.632 152.601C12.328 153.193 12.176 153.849 12.176 154.569C12.176 155.401 12.36 156.153 12.728 156.825C13.096 157.481 13.624 158.001 14.312 158.385C14.984 158.753 15.76 158.937 16.64 158.937C17.536 158.937 18.328 158.753 19.016 158.385C19.688 158.001 20.208 157.481 20.576 156.825C20.944 156.153 21.128 155.401 21.128 154.569C21.128 153.849 20.976 153.193 20.672 152.601C20.368 152.009 19.912 151.513 19.304 151.113L20.408 149.361C21.288 149.857 21.968 150.561 22.448 151.473C22.912 152.369 23.144 153.393 23.144 154.545ZM22.256 139.062C22.544 139.398 22.768 139.814 22.928 140.31C23.072 140.806 23.144 141.318 23.144 141.846C23.144 143.126 22.8 144.118 22.112 144.822C21.424 145.526 20.44 145.878 19.16 145.878H12.176V148.038H10.28V145.878H7.496V143.574H10.28V139.926H12.176V143.574H19.064C19.752 143.574 20.28 143.406 20.648 143.07C21.016 142.718 21.2 142.222 21.2 141.582C21.2 140.878 21 140.278 20.6 139.782L22.256 139.062ZM23.144 132.629C23.144 133.669 23.008 134.669 22.736 135.629C22.448 136.589 22.088 137.341 21.656 137.885L19.832 136.925C20.232 136.365 20.552 135.685 20.792 134.885C21.032 134.085 21.152 133.277 21.152 132.461C21.152 130.445 20.576 129.437 19.424 129.437C19.04 129.437 18.736 129.573 18.512 129.845C18.288 130.117 18.128 130.461 18.032 130.877C17.92 131.277 17.8 131.853 17.672 132.605C17.512 133.629 17.328 134.469 17.12 135.125C16.912 135.765 16.56 136.317 16.064 136.781C15.568 137.245 14.872 137.477 13.976 137.477C12.824 137.477 11.904 136.997 11.216 136.037C10.512 135.077 10.16 133.789 10.16 132.173C10.16 131.325 10.264 130.477 10.472 129.629C10.68 128.781 10.96 128.085 11.312 127.541L13.136 128.525C12.464 129.565 12.128 130.789 12.128 132.197C12.128 133.173 12.288 133.917 12.608 134.429C12.928 134.941 13.352 135.197 13.88 135.197C14.296 135.197 14.624 135.053 14.864 134.765C15.104 134.477 15.28 134.125 15.392 133.709C15.504 133.277 15.632 132.677 15.776 131.909C15.952 130.885 16.144 130.061 16.352 129.437C16.544 128.797 16.88 128.253 17.36 127.805C17.84 127.357 18.512 127.133 19.376 127.133C20.528 127.133 21.448 127.629 22.136 128.621C22.808 129.597 23.144 130.933 23.144 132.629Z" fill="#6D7587"/>
<rect x="12.5" y="100.5" width="100" height="3" rx="1.5" transform="rotate(-90 12.5 100.5)" fill="#6D7587"/>
<rect x="12.5" y="388.5" width="118" height="3" rx="1.5" transform="rotate(-90 12.5 388.5)" fill="#6D7587"/>
</g>
<defs>
<clipPath id="clip0">
<rect width="29" height="389" fill="white"/>
</clipPath>
</defs>
</svg>
