<svg width="29" height="356" viewBox="0 0 29 356" fill="none" xmlns="http://www.w3.org/2000/svg">
<g clip-path="url(#clip0)">
<path d="M6.2 191.032H23V193.432H15.512L15.512 203.08H23V205.48H6.2V203.08H13.424L13.424 193.432H6.2V191.032ZM23.144 180.891C23.144 182.155 22.864 183.291 22.304 184.299C21.744 185.307 20.976 186.099 20 186.675C19.008 187.235 17.888 187.515 16.64 187.515C15.392 187.515 14.28 187.235 13.304 186.675C12.312 186.099 11.544 185.307 11 184.299C10.44 183.291 10.16 182.155 10.16 180.891C10.16 179.627 10.44 178.499 11 177.507C11.544 176.499 12.312 175.715 13.304 175.155C14.28 174.579 15.392 174.291 16.64 174.291C17.888 174.291 19.008 174.579 20 175.155C20.976 175.715 21.744 176.499 22.304 177.507C22.864 178.499 23.144 179.627 23.144 180.891ZM21.128 180.891C21.128 180.075 20.944 179.347 20.576 178.707C20.192 178.051 19.664 177.539 18.992 177.171C18.304 176.803 17.52 176.619 16.64 176.619C15.76 176.619 14.984 176.803 14.312 177.171C13.624 177.539 13.096 178.051 12.728 178.707C12.36 179.347 12.176 180.075 12.176 180.891C12.176 181.707 12.36 182.443 12.728 183.099C13.096 183.739 13.624 184.251 14.312 184.635C14.984 185.003 15.76 185.187 16.64 185.187C17.52 185.187 18.304 185.003 18.992 184.635C19.664 184.251 20.192 183.739 20.576 183.099C20.944 182.443 21.128 181.707 21.128 180.891ZM10.16 155.193C10.16 153.593 10.624 152.329 11.552 151.401C12.48 150.457 13.856 149.985 15.68 149.985H23V152.289H15.944C14.712 152.289 13.784 152.577 13.16 153.153C12.536 153.713 12.224 154.521 12.224 155.577C12.224 156.745 12.592 157.673 13.328 158.361C14.048 159.049 15.088 159.393 16.448 159.393H23V161.697H15.944C14.712 161.697 13.784 161.985 13.16 162.561C12.536 163.121 12.224 163.929 12.224 164.985C12.224 166.153 12.592 167.081 13.328 167.769C14.048 168.457 15.088 168.801 16.448 168.801H23V171.105H10.28V168.897H12.176C11.52 168.433 11.024 167.825 10.688 167.073C10.336 166.321 10.16 165.465 10.16 164.505C10.16 163.513 10.36 162.633 10.76 161.865C11.16 161.097 11.744 160.505 12.512 160.089C11.776 159.609 11.2 158.945 10.784 158.097C10.368 157.233 10.16 156.265 10.16 155.193ZM16.712 134.179C16.888 134.179 17.12 134.195 17.408 134.227V144.547C18.528 144.403 19.432 143.915 20.12 143.083C20.792 142.235 21.128 141.187 21.128 139.939C21.128 138.419 20.616 137.195 19.592 136.267L21.08 134.995C21.752 135.571 22.264 136.291 22.616 137.155C22.968 138.003 23.144 138.955 23.144 140.011C23.144 141.355 22.872 142.547 22.328 143.587C21.768 144.627 20.992 145.435 20 146.011C19.008 146.571 17.888 146.851 16.64 146.851C15.408 146.851 14.296 146.579 13.304 146.035C12.312 145.475 11.544 144.715 11 143.755C10.44 142.779 10.16 141.683 10.16 140.467C10.16 139.251 10.44 138.171 11 137.227C11.544 136.267 12.312 135.523 13.304 134.995C14.296 134.451 15.432 134.179 16.712 134.179ZM12.104 140.467C12.104 141.571 12.44 142.499 13.112 143.251C13.784 143.987 14.664 144.419 15.752 144.547V136.387C14.68 136.515 13.808 136.955 13.136 137.707C12.448 138.443 12.104 139.363 12.104 140.467Z" fill="#6D7587"/>
<rect x="10.5" y="100.5" width="100" height="3" rx="1.5" transform="rotate(-90 10.5 100.5)" fill="#6D7587"/>
<rect x="12.5" y="355.5" width="118" height="3" rx="1.5" transform="rotate(-90 12.5 355.5)" fill="#6D7587"/>
</g>
<defs>
<clipPath id="clip0">
<rect width="29" height="356" fill="white"/>
</clipPath>
</defs>
</svg>
