<svg width="29" height="389" viewBox="0 0 29 389" fill="none" xmlns="http://www.w3.org/2000/svg">
<g clip-path="url(#clip0)">
<path d="M23 221.248L17.84 224.872C17.872 225.32 17.888 225.672 17.888 225.928V230.08H23V232.48H6.2L6.2 225.928C6.2 223.752 6.72 222.04 7.76 220.792C8.8 219.544 10.232 218.92 12.056 218.92C13.352 218.92 14.456 219.24 15.368 219.88C16.28 220.52 16.944 221.432 17.36 222.616L23 218.632V221.248ZM15.848 226C15.848 224.48 15.52 223.32 14.864 222.52C14.208 221.72 13.272 221.32 12.056 221.32C10.84 221.32 9.912 221.72 9.272 222.52C8.616 223.32 8.288 224.48 8.288 226V230.08H15.848V226ZM16.712 203.882C16.888 203.882 17.12 203.898 17.408 203.93L17.408 214.25C18.528 214.106 19.432 213.618 20.12 212.786C20.792 211.938 21.128 210.89 21.128 209.642C21.128 208.122 20.616 206.898 19.592 205.97L21.08 204.698C21.752 205.274 22.264 205.994 22.616 206.858C22.968 207.706 23.144 208.658 23.144 209.714C23.144 211.058 22.872 212.25 22.328 213.29C21.768 214.33 20.992 215.138 20 215.714C19.008 216.274 17.888 216.554 16.64 216.554C15.408 216.554 14.296 216.282 13.304 215.738C12.312 215.178 11.544 214.418 11 213.458C10.44 212.482 10.16 211.386 10.16 210.17C10.16 208.954 10.44 207.874 11 206.93C11.544 205.97 12.312 205.226 13.304 204.698C14.296 204.154 15.432 203.882 16.712 203.882ZM12.104 210.17C12.104 211.274 12.44 212.202 13.112 212.954C13.784 213.69 14.664 214.122 15.752 214.25V206.09C14.68 206.218 13.808 206.658 13.136 207.41C12.448 208.146 12.104 209.066 12.104 210.17ZM10.28 189.662L23 195.23V197.582L10.28 203.15V200.75L20.48 196.382L10.28 191.918L10.28 189.662ZM10.28 187.511V185.207H23V187.511H10.28ZM7.832 186.359C7.832 186.807 7.688 187.183 7.4 187.487C7.112 187.775 6.76 187.919 6.344 187.919C5.928 187.919 5.576 187.775 5.288 187.487C4.984 187.183 4.832 186.807 4.832 186.359C4.832 185.911 4.976 185.543 5.264 185.255C5.536 184.951 5.88 184.799 6.296 184.799C6.728 184.799 7.096 184.951 7.4 185.255C7.688 185.543 7.832 185.911 7.832 186.359ZM16.712 169.312C16.888 169.312 17.12 169.328 17.408 169.36V179.68C18.528 179.536 19.432 179.048 20.12 178.216C20.792 177.368 21.128 176.32 21.128 175.072C21.128 173.552 20.616 172.328 19.592 171.4L21.08 170.128C21.752 170.704 22.264 171.424 22.616 172.288C22.968 173.136 23.144 174.088 23.144 175.144C23.144 176.488 22.872 177.68 22.328 178.72C21.768 179.76 20.992 180.568 20 181.144C19.008 181.704 17.888 181.984 16.64 181.984C15.408 181.984 14.296 181.712 13.304 181.168C12.312 180.608 11.544 179.848 11 178.888C10.44 177.912 10.16 176.816 10.16 175.6C10.16 174.384 10.44 173.304 11 172.36C11.544 171.4 12.312 170.656 13.304 170.128C14.296 169.584 15.432 169.312 16.712 169.312ZM12.104 175.6C12.104 176.704 12.44 177.632 13.112 178.384C13.784 179.12 14.664 179.552 15.752 179.68V171.52C14.68 171.648 13.808 172.088 13.136 172.84C12.448 173.576 12.104 174.496 12.104 175.6ZM10.28 147.099L23 151.851V154.059L13.352 157.731L23 161.451V163.659L10.28 168.387V166.203L20.408 162.507L10.28 158.667V156.723L20.456 152.955L10.28 149.163V147.099ZM23.144 141.277C23.144 142.317 23.008 143.317 22.736 144.277C22.448 145.237 22.088 145.989 21.656 146.533L19.832 145.573C20.232 145.013 20.552 144.333 20.792 143.533C21.032 142.733 21.152 141.925 21.152 141.109C21.152 139.093 20.576 138.085 19.424 138.085C19.04 138.085 18.736 138.221 18.512 138.493C18.288 138.765 18.128 139.109 18.032 139.525C17.92 139.925 17.8 140.501 17.672 141.253C17.512 142.277 17.328 143.117 17.12 143.773C16.912 144.413 16.56 144.965 16.064 145.429C15.568 145.893 14.872 146.125 13.976 146.125C12.824 146.125 11.904 145.645 11.216 144.685C10.512 143.725 10.16 142.437 10.16 140.821C10.16 139.973 10.264 139.125 10.472 138.277C10.68 137.429 10.96 136.733 11.312 136.189L13.136 137.173C12.464 138.213 12.128 139.437 12.128 140.845C12.128 141.821 12.288 142.565 12.608 143.077C12.928 143.589 13.352 143.845 13.88 143.845C14.296 143.845 14.624 143.701 14.864 143.413C15.104 143.125 15.28 142.773 15.392 142.357C15.504 141.925 15.632 141.325 15.776 140.557C15.952 139.533 16.144 138.709 16.352 138.085C16.544 137.445 16.88 136.901 17.36 136.453C17.84 136.005 18.512 135.781 19.376 135.781C20.528 135.781 21.448 136.277 22.136 137.269C22.808 138.245 23.144 139.581 23.144 141.277Z" fill="#6D7587"/>
<rect x="12.5" y="100.5" width="100" height="3" rx="1.5" transform="rotate(-90 12.5 100.5)" fill="#6D7587"/>
<rect x="12.5" y="388.5" width="118" height="3" rx="1.5" transform="rotate(-90 12.5 388.5)" fill="#6D7587"/>
</g>
<defs>
<clipPath id="clip0">
<rect width="29" height="389" fill="white"/>
</clipPath>
</defs>
</svg>
