<svg width="26" height="26" viewBox="0 0 26 26" fill="none" xmlns="http://www.w3.org/2000/svg">
<path fill-rule="evenodd" clip-rule="evenodd" d="M3.07382 5.48809e-07C4.77286 -0.00100331 6.15116 1.37529 6.15216 3.07432C6.15317 4.77286 4.77687 6.15116 3.07834 6.15216C1.37931 6.15317 0.00100386 4.77737 0 3.07834C0 1.37981 1.37529 0.0025102 3.07382 5.48809e-07V5.48809e-07ZM0.420116 25.5503H5.73405V8.48463H0.420116V25.5503Z" fill="#8A92A5"/>
<path fill-rule="evenodd" clip-rule="evenodd" d="M9.05176 8.48462H14.1408V10.8191H14.2131C14.9198 9.47543 16.6525 8.0625 19.2359 8.0625C24.6061 8.0625 25.5989 11.5946 25.5989 16.1898V25.5503H20.293V17.2503C20.293 15.2712 20.2584 12.7239 17.5359 12.7239C14.7753 12.7239 14.3536 14.8837 14.3536 17.1078V25.5462H9.05176V8.48462Z" fill="#8A92A5"/>
</svg>
