<svg width="207" height="228" viewBox="0 0 207 228" fill="none" xmlns="http://www.w3.org/2000/svg">
<path fill-rule="evenodd" clip-rule="evenodd" d="M62.495 57.2104H65.495V60.2104V106.397L79.065 92.8274V43.6504H31.595L31.585 140.307L45.155 126.737V60.2104V57.2104H48.155H62.495Z" fill="black"/>
<path fill-rule="evenodd" clip-rule="evenodd" d="M115.974 110.689H118.974V113.689V128.029V131.029H115.974H56.3473L42.7773 144.598L132.534 144.589V97.1191H90.2573L76.6863 110.689H115.974Z" fill="black"/>
<path fill-rule="evenodd" clip-rule="evenodd" d="M161.624 54.9994V57.9994H158.624H129.376L115.816 71.5594H175.184V12.1914L161.624 25.7514V54.9994Z" fill="black"/>
<path fill-rule="evenodd" clip-rule="evenodd" d="M104.625 1V67.267L118.184 53.707V17.56V14.559H121.185H157.332L170.892 1H104.625Z" fill="black"/>
<mask id="mask0" mask-type="alpha" maskUnits="userSpaceOnUse" x="0" y="1" width="207" height="226">
<path fill-rule="evenodd" clip-rule="evenodd" d="M0 226.724H206.776V1H0V226.724Z" fill="white"/>
</mask>
<g mask="url(#mask0)">
<path fill-rule="evenodd" clip-rule="evenodd" d="M13.248 200.332C12.528 201.718 11.377 202.41 9.794 202.41C8.211 202.41 6.966 201.915 6.058 200.926C5.149 199.936 4.695 198.614 4.695 196.96C4.695 195.305 5.149 193.983 6.058 192.993C6.966 192.005 8.211 191.51 9.794 191.51C11.377 191.51 12.528 192.202 13.248 193.587H18.752C18.104 191.608 16.962 190.061 15.326 188.946C13.688 187.831 11.818 187.273 9.714 187.273C6.998 187.273 4.7 188.186 2.82 190.013C0.94 191.838 0 194.153 0 196.96C0 199.766 0.94 202.082 2.82 203.907C4.7 205.733 6.998 206.645 9.714 206.645C11.818 206.645 13.688 206.088 15.326 204.973C16.962 203.857 18.104 202.311 18.752 200.332H13.248Z" fill="black"/>
<path fill-rule="evenodd" clip-rule="evenodd" d="M44.7473 200.927C43.8383 201.916 42.6243 202.411 41.1043 202.411C39.5843 202.411 38.3703 201.916 37.4623 200.927C36.5543 199.938 36.1003 198.615 36.1003 196.961C36.1003 195.306 36.5543 193.985 37.4623 192.994C38.3703 192.006 39.5843 191.511 41.1043 191.511C42.6243 191.511 43.8383 192.006 44.7473 192.994C45.6553 193.985 46.1093 195.306 46.1093 196.961C46.1093 198.615 45.6553 199.938 44.7473 200.927ZM50.8043 196.961C50.8043 194.155 49.8733 191.839 48.0123 190.014C46.1503 188.188 43.8563 187.275 41.1323 187.275C38.4063 187.275 36.1043 188.188 34.2253 190.014C32.3453 191.839 31.4053 194.155 31.4053 196.961C31.4053 199.767 32.3453 202.087 34.2253 203.922C36.1043 205.756 38.4023 206.674 41.1183 206.674C43.8343 206.674 46.1273 205.756 47.9983 203.922C49.8693 202.087 50.8043 199.767 50.8043 196.961Z" fill="black"/>
<path fill-rule="evenodd" clip-rule="evenodd" d="M86.0135 187.545H80.7255L75.3025 200.603L69.8525 187.545H64.5645V206.484H69.1785V195.801L73.5755 206.484H77.0015L81.3995 195.801V206.484H86.0135V187.545Z" fill="black"/>
<path fill-rule="evenodd" clip-rule="evenodd" d="M105.466 191.052H108.326C109.009 191.052 109.558 191.268 109.972 191.699C110.385 192.131 110.592 192.685 110.592 193.359C110.592 194.033 110.39 194.577 109.985 194.991C109.58 195.406 109.028 195.612 108.326 195.612H105.466V191.052ZM105.466 199.119H108.326C109.639 199.119 110.777 198.926 111.739 198.539C112.701 198.153 113.425 197.654 113.911 197.042C114.828 195.855 115.287 194.623 115.287 193.346C115.287 191.744 114.675 190.378 113.452 189.244C112.229 188.112 110.52 187.545 108.326 187.545H100.852V206.485H105.466V199.119Z" fill="black"/>
<path fill-rule="evenodd" clip-rule="evenodd" d="M136.438 193.049L138.677 199.794H134.199L136.438 193.049ZM133.039 203.301H139.837L140.89 206.485H145.827L139.271 187.49H133.659L127.076 206.485H131.986L133.039 203.301Z" fill="black"/>
<path fill-rule="evenodd" clip-rule="evenodd" d="M175.83 206.484V187.49H171.216V199.442L163.5 187.49H158.886V206.484H163.5V194.532L171.216 206.484H175.83Z" fill="black"/>
<path fill-rule="evenodd" clip-rule="evenodd" d="M197.927 196.098L194.284 187.545H189.051L195.607 200.388V206.485H200.22V200.388L206.777 187.545H201.542L197.927 196.098Z" fill="black"/>
</g>
</svg>
