<svg width="191" height="226" viewBox="0 0 191 226" fill="none" xmlns="http://www.w3.org/2000/svg">
<path fill-rule="evenodd" clip-rule="evenodd" d="M39.3652 110.573L117.635 32.303V1.00195L39.3652 79.281V110.573Z" fill="black"/>
<path fill-rule="evenodd" clip-rule="evenodd" d="M39.3652 178.601L117.635 100.321V75.0293L39.3652 153.3V178.601Z" fill="black"/>
<path fill-rule="evenodd" clip-rule="evenodd" d="M73.2754 110.572L151.555 32.302V6L73.2754 84.28V110.572Z" fill="black"/>
<path fill-rule="evenodd" clip-rule="evenodd" d="M151.554 74.0312L73.2744 152.301V178.603L151.554 100.323V74.0312Z" fill="black"/>
<path fill-rule="evenodd" clip-rule="evenodd" d="M3.22234 222.361C4.22234 223.34 5.41234 224.098 6.79634 224.632C8.17934 225.167 9.69834 225.435 11.3543 225.435C12.9293 225.435 14.4123 225.132 15.8063 224.527C17.1993 223.921 18.3803 222.951 19.3493 221.619L16.2003 219.378C15.4933 220.286 14.7313 220.948 13.9133 221.361C13.0953 221.776 12.2523 221.982 11.3843 221.982C10.2733 221.982 9.26934 221.781 8.37034 221.377C7.47234 220.973 6.70034 220.418 6.05434 219.711C5.40734 219.005 4.90834 218.166 4.55534 217.197C4.20134 216.228 4.02434 215.168 4.02434 214.017C4.02434 212.947 4.20134 211.948 4.55534 211.019C4.90834 210.09 5.40734 209.278 6.05434 208.581C6.70034 207.884 7.47234 207.339 8.37034 206.945C9.26934 206.551 10.2733 206.355 11.3843 206.355C12.1313 206.355 12.8733 206.496 13.6103 206.779C14.3473 207.062 15.1093 207.627 15.8973 208.475L18.8653 206.294C17.7943 205.063 16.6393 204.189 15.3973 203.674C14.1553 203.16 12.8073 202.902 11.3543 202.902C9.69834 202.902 8.17934 203.17 6.79634 203.705C5.41234 204.24 4.22234 205.002 3.22234 205.991C2.22234 206.981 1.44034 208.177 0.875344 209.58C0.309344 210.984 0.0273438 212.544 0.0273438 214.259C0.0273438 215.936 0.309344 217.46 0.875344 218.833C1.44034 220.206 2.22234 221.382 3.22234 222.361Z" fill="black"/>
<path fill-rule="evenodd" clip-rule="evenodd" d="M31.3581 211.02C31.7111 210.092 32.2111 209.279 32.8571 208.582C33.5041 207.885 34.2751 207.34 35.1741 206.947C36.0721 206.553 37.0771 206.356 38.1881 206.356C39.2971 206.356 40.3081 206.553 41.2161 206.947C42.1251 207.34 42.9021 207.885 43.5481 208.582C44.1941 209.279 44.6941 210.092 45.0471 211.02C45.4001 211.949 45.5771 212.949 45.5771 214.019C45.5771 215.169 45.4001 216.229 45.0471 217.198C44.6941 218.167 44.1941 219.006 43.5481 219.712C42.9021 220.419 42.1251 220.974 41.2161 221.378C40.3081 221.782 39.2971 221.983 38.1881 221.983C37.0771 221.983 36.0721 221.782 35.1741 221.378C34.2751 220.974 33.5041 220.419 32.8571 219.712C32.2111 219.006 31.7111 218.167 31.3581 217.198C31.0041 216.229 30.8281 215.169 30.8281 214.019C30.8281 212.949 31.0041 211.949 31.3581 211.02ZM30.0251 222.362C31.0251 223.342 32.2161 224.099 33.5991 224.634C34.9821 225.168 36.5021 225.436 38.1571 225.436C39.8331 225.416 41.3671 225.128 42.7611 224.573C44.1541 224.018 45.3551 223.246 46.3651 222.256C47.3741 221.267 48.1621 220.086 48.7271 218.713C49.2921 217.34 49.5751 215.816 49.5751 214.14C49.5751 212.424 49.2921 210.869 48.7271 209.476C48.1621 208.082 47.3741 206.891 46.3651 205.902C45.3551 204.913 44.1541 204.16 42.7611 203.645C41.3671 203.131 39.8331 202.883 38.1571 202.903C36.5021 202.903 34.9821 203.171 33.5991 203.706C32.2161 204.241 31.0251 205.003 30.0251 205.993C29.0261 206.982 28.2431 208.178 27.6781 209.582C27.1131 210.985 26.8301 212.545 26.8301 214.261C26.8301 215.937 27.1131 217.461 27.6781 218.834C28.2431 220.207 29.0261 221.383 30.0251 222.362Z" fill="black"/>
<path fill-rule="evenodd" clip-rule="evenodd" d="M65.1724 203.449H59.3574V224.891H62.9914V207.083H63.0524L69.5644 224.891H72.2294L78.7404 207.083H78.8014V224.891H82.4354V203.449H76.6814L70.8964 218.47L65.1724 203.449Z" fill="black"/>
<path fill-rule="evenodd" clip-rule="evenodd" d="M97.1851 206.718H99.9111C100.415 206.718 100.941 206.749 101.486 206.809C102.031 206.87 102.525 207.006 102.97 207.218C103.414 207.43 103.777 207.733 104.06 208.127C104.343 208.52 104.484 209.05 104.484 209.717C104.484 210.444 104.328 211.009 104.015 211.413C103.702 211.817 103.298 212.119 102.803 212.321C102.308 212.523 101.768 212.644 101.183 212.685C100.597 212.725 100.032 212.745 99.4871 212.745H97.1851V206.718ZM97.1851 216.016H99.9111C101.041 216.016 102.127 215.936 103.166 215.774C104.206 215.613 105.12 215.304 105.908 214.85C106.695 214.396 107.321 213.755 107.786 212.927C108.249 212.099 108.482 211.009 108.482 209.656C108.482 208.465 108.265 207.47 107.831 206.673C107.396 205.875 106.816 205.239 106.089 204.765C105.362 204.291 104.519 203.952 103.56 203.75C102.602 203.549 101.607 203.447 100.577 203.447H93.3691V224.89H97.1851V216.016Z" fill="black"/>
<path fill-rule="evenodd" clip-rule="evenodd" d="M124.17 207.991L127.471 216.714H120.808L124.17 207.991ZM119.506 219.985H128.804L130.803 224.891H135.164L125.926 203.449H122.626L113.297 224.891H117.567L119.506 219.985Z" fill="black"/>
<path fill-rule="evenodd" clip-rule="evenodd" d="M143.613 203.449V224.891H147.429V208.446H147.49L158.09 224.891H162.936V203.449H159.12V219.379H159.059L148.671 203.449H143.613Z" fill="black"/>
<path fill-rule="evenodd" clip-rule="evenodd" d="M179.018 224.891H182.833V215.714L190.89 203.449H186.347L181.017 211.989L175.747 203.449H170.961L179.018 215.714V224.891Z" fill="black"/>
</svg>
