<svg width="152" height="170" viewBox="0 0 152 170" fill="none" xmlns="http://www.w3.org/2000/svg">
<path fill-rule="evenodd" clip-rule="evenodd" d="M2.48058 154.544C3.25612 155.326 4.18058 155.932 5.25468 156.358C6.32806 156.786 7.50791 157 8.79281 157C10.0158 157 11.1676 156.758 12.2496 156.274C13.3309 155.79 14.2475 155.016 15 153.951L12.5547 152.162C12.0065 152.887 11.4144 153.416 10.7799 153.746C10.1453 154.077 9.49065 154.242 8.81655 154.242C7.95396 154.242 7.1741 154.081 6.4777 153.758C5.77986 153.435 5.17986 152.992 4.67914 152.427C4.17626 151.863 3.78849 151.193 3.51439 150.419C3.24029 149.645 3.1036 148.798 3.1036 147.879C3.1036 147.025 3.24029 146.226 3.51439 145.484C3.78849 144.742 4.17626 144.092 4.67914 143.536C5.17986 142.979 5.77986 142.544 6.4777 142.229C7.1741 141.915 7.95396 141.757 8.81655 141.757C9.3964 141.757 9.97266 141.87 10.5446 142.096C11.1165 142.322 11.7086 142.774 12.3201 143.451L14.6237 141.709C13.7935 140.726 12.8964 140.028 11.9324 139.616C10.9683 139.205 9.92158 139 8.79281 139C7.50791 139 6.32806 139.213 5.25468 139.64C4.18058 140.068 3.25612 140.677 2.48058 141.467C1.70432 142.258 1.09712 143.213 0.658273 144.334C0.218705 145.456 0 146.702 0 148.071C0 149.412 0.218705 150.629 0.658273 151.725C1.09712 152.823 1.70432 153.762 2.48058 154.544Z" fill="black"/>
<path fill-rule="evenodd" clip-rule="evenodd" d="M24.5833 150.42C24.3039 149.646 24.1638 148.798 24.1638 147.879C24.1638 147.025 24.3039 146.226 24.5833 145.485C24.8627 144.742 25.258 144.093 25.7699 143.537C26.281 142.98 26.8919 142.544 27.6033 142.23C28.314 141.916 29.1089 141.758 29.9883 141.758C30.8661 141.758 31.6662 141.916 32.3849 142.23C33.1037 142.544 33.719 142.98 34.2301 143.537C34.742 144.093 35.1373 144.742 35.4167 145.485C35.6961 146.226 35.8362 147.025 35.8362 147.879C35.8362 148.798 35.6961 149.646 35.4167 150.42C35.1373 151.194 34.742 151.863 34.2301 152.427C33.719 152.992 33.1037 153.435 32.3849 153.758C31.6662 154.081 30.8661 154.242 29.9883 154.242C29.1089 154.242 28.314 154.081 27.6033 153.758C26.8919 153.435 26.281 152.992 25.7699 152.427C25.258 151.863 24.8627 151.194 24.5833 150.42ZM29.9641 157C31.29 156.984 32.5045 156.754 33.6075 156.311C34.7097 155.867 35.6602 155.25 36.4596 154.46C37.2582 153.67 37.8816 152.726 38.329 151.63C38.7763 150.532 39 149.315 39 147.976C39 146.606 38.7763 145.364 38.329 144.25C37.8816 143.137 37.2582 142.185 36.4596 141.395C35.6602 140.606 34.7097 140.005 33.6075 139.594C32.5045 139.182 31.29 138.984 29.9641 139.001C28.6535 139.001 27.4515 139.214 26.3566 139.641C25.2624 140.069 24.32 140.677 23.5294 141.468C22.7381 142.259 22.1184 143.214 21.671 144.335C21.2237 145.457 21 146.702 21 148.073C21 149.412 21.2237 150.629 21.671 151.726C22.1184 152.823 22.7381 153.762 23.5294 154.544C24.32 155.327 25.2624 155.932 26.3566 156.358C27.4515 156.786 28.6535 157 29.9641 157Z" fill="black"/>
<path fill-rule="evenodd" clip-rule="evenodd" d="M65 156V139H60.5119L56 150.909L51.5351 139H47V156H49.8342V141.881H49.8812L54.9606 156H57.0394L62.1181 141.881H62.1658V156H65Z" fill="black"/>
<path fill-rule="evenodd" clip-rule="evenodd" d="M77.0304 141.593H79.1946C79.5949 141.593 80.0129 141.617 80.4456 141.665C80.8783 141.713 81.2712 141.821 81.6237 141.989C81.9762 142.158 82.2647 142.397 82.4891 142.71C82.7136 143.022 82.8261 143.442 82.8261 143.97C82.8261 144.547 82.7018 144.995 82.4531 145.315C82.2043 145.635 81.8842 145.875 81.4913 146.035C81.0983 146.196 80.6693 146.292 80.2042 146.323C79.7399 146.356 79.2902 146.371 78.8583 146.371H77.0304V141.593ZM77.0304 148.965H79.1946C80.0924 148.965 80.9541 148.901 81.7797 148.773C82.6054 148.644 83.3317 148.4 83.9565 148.041C84.582 147.68 85.0787 147.172 85.4474 146.515C85.816 145.859 86 144.995 86 143.922C86 142.978 85.8278 142.19 85.4834 141.557C85.139 140.924 84.6784 140.421 84.1007 140.044C83.523 139.668 82.8541 139.4 82.0925 139.239C81.3308 139.08 80.5412 139 79.7237 139H74V156H77.0304V148.965Z" fill="black"/>
<path fill-rule="evenodd" clip-rule="evenodd" d="M95.8389 149.516L98.4528 142.601L101.018 149.516H95.8389ZM99.8181 139H97.2517L90 156H93.3193L94.8266 152.11H102.055L103.609 156H107L99.8181 139Z" fill="black"/>
<path fill-rule="evenodd" clip-rule="evenodd" d="M127.037 151.63H126.991L118.927 139H115V156H117.963V142.962H118.009L126.239 156H130V139H127.037V151.63Z" fill="black"/>
<path fill-rule="evenodd" clip-rule="evenodd" d="M144.073 145.77L139.842 139H136L142.468 148.725V156H145.532V148.725L152 139H148.353L144.073 145.77Z" fill="black"/>
<path fill-rule="evenodd" clip-rule="evenodd" d="M21 58L76 6.44199V0L21 51.558V58Z" fill="black"/>
<path fill-rule="evenodd" clip-rule="evenodd" d="M21 68.558V75L76 23.442V17L21 68.558Z" fill="black"/>
<path fill-rule="evenodd" clip-rule="evenodd" d="M21 85.5508V92L76 40.4411V34L21 85.5508Z" fill="black"/>
<path fill-rule="evenodd" clip-rule="evenodd" d="M21 101.557V108L76 56.4419V50L21 101.557Z" fill="black"/>
<path fill-rule="evenodd" clip-rule="evenodd" d="M76 67L21 118.557V125L76 73.442V67Z" fill="black"/>
<path fill-rule="evenodd" clip-rule="evenodd" d="M131 51.5632L80 4V10.4368L131 58V51.5632Z" fill="black"/>
<path fill-rule="evenodd" clip-rule="evenodd" d="M131 68.5631L80 21V27.4361L131 75V68.5631Z" fill="black"/>
<path fill-rule="evenodd" clip-rule="evenodd" d="M131 85.5561L80 38V44.4358L131 92V85.5561Z" fill="black"/>
<path fill-rule="evenodd" clip-rule="evenodd" d="M131 101.563L80 54V60.4367L131 108V101.563Z" fill="black"/>
<path fill-rule="evenodd" clip-rule="evenodd" d="M131 118.562L80 71V77.4361L131 125V118.562Z" fill="black"/>
<path fill-rule="evenodd" clip-rule="evenodd" d="M75.55 72.8829L75.61 72.8361V66.0936V66L75.55 66.0468L75.48 66V66.0936L75.39 66.1639V73L75.55 72.8829Z" fill="white"/>
<path fill-rule="evenodd" clip-rule="evenodd" d="M75.48 50V50.0936L75.39 50.1639V57L75.55 56.8829L75.61 56.8361V50.0936V50L75.55 50.0468L75.48 50Z" fill="white"/>
<path fill-rule="evenodd" clip-rule="evenodd" d="M75.61 33.0936V33L75.55 33.0468L75.48 33V33.0936L75.39 33.1639V40L75.55 39.8829L75.61 39.8361V33.0936Z" fill="white"/>
<path fill-rule="evenodd" clip-rule="evenodd" d="M75.61 16.0936V16L75.55 16.0468L75.48 16V16.0936L75.39 16.1639V23L75.55 22.8829L75.61 22.8361V16.0936Z" fill="white"/>
<path fill-rule="evenodd" clip-rule="evenodd" d="M75.55 6.88294L75.61 6.83612V0.0936455V0L75.55 0.0468227L75.48 0V0.0936455L75.39 0.16388V7L75.55 6.88294Z" fill="white"/>
<mask id="mask0" mask-type="alpha" maskUnits="userSpaceOnUse" x="0" y="0" width="152" height="170">
<path fill-rule="evenodd" clip-rule="evenodd" d="M0 170H152V0H0V170Z" fill="white"/>
</mask>
<g mask="url(#mask0)">
</g>
</svg>
