<svg width="388" height="122" viewBox="0 0 388 122" fill="none" xmlns="http://www.w3.org/2000/svg">
<path d="M158.808 87.28C160.392 87.28 161.648 87.744 162.576 88.672C163.52 89.584 163.992 90.92 163.992 92.68V100H162.288V92.848C162.288 91.536 161.96 90.536 161.304 89.848C160.648 89.16 159.712 88.816 158.496 88.816C157.136 88.816 156.056 89.224 155.256 90.04C154.472 90.84 154.08 91.952 154.08 93.376V100H152.376V87.376H154.008V89.704C154.472 88.936 155.112 88.344 155.928 87.928C156.76 87.496 157.72 87.28 158.808 87.28ZM173.034 87.28C174.682 87.28 175.946 87.696 176.826 88.528C177.706 89.344 178.146 90.56 178.146 92.176V100H176.514V98.032C176.13 98.688 175.562 99.2 174.81 99.568C174.074 99.936 173.194 100.12 172.17 100.12C170.762 100.12 169.642 99.784 168.81 99.112C167.978 98.44 167.562 97.552 167.562 96.448C167.562 95.376 167.946 94.512 168.714 93.856C169.498 93.2 170.738 92.872 172.434 92.872H176.442V92.104C176.442 91.016 176.138 90.192 175.53 89.632C174.922 89.056 174.034 88.768 172.866 88.768C172.066 88.768 171.298 88.904 170.562 89.176C169.826 89.432 169.194 89.792 168.666 90.256L167.898 88.984C168.538 88.44 169.306 88.024 170.202 87.736C171.098 87.432 172.042 87.28 173.034 87.28ZM172.434 98.776C173.394 98.776 174.218 98.56 174.906 98.128C175.594 97.68 176.106 97.04 176.442 96.208V94.144H172.482C170.322 94.144 169.242 94.896 169.242 96.4C169.242 97.136 169.522 97.72 170.082 98.152C170.642 98.568 171.426 98.776 172.434 98.776ZM193.148 87.376L187.532 100H185.78L180.188 87.376H181.964L186.692 98.128L191.468 87.376H193.148ZM195.548 87.376H197.252V100H195.548V87.376ZM196.412 84.616C196.06 84.616 195.764 84.496 195.524 84.256C195.284 84.016 195.164 83.728 195.164 83.392C195.164 83.072 195.284 82.792 195.524 82.552C195.764 82.312 196.06 82.192 196.412 82.192C196.764 82.192 197.06 82.312 197.3 82.552C197.54 82.776 197.66 83.048 197.66 83.368C197.66 83.72 197.54 84.016 197.3 84.256C197.06 84.496 196.764 84.616 196.412 84.616ZM213.681 87.376V98.464C213.681 100.608 213.153 102.192 212.097 103.216C211.057 104.256 209.481 104.776 207.369 104.776C206.201 104.776 205.089 104.6 204.033 104.248C202.993 103.912 202.145 103.44 201.489 102.832L202.353 101.536C202.961 102.08 203.697 102.504 204.561 102.808C205.441 103.112 206.361 103.264 207.321 103.264C208.921 103.264 210.097 102.888 210.849 102.136C211.601 101.4 211.977 100.248 211.977 98.68V97.072C211.449 97.872 210.753 98.48 209.889 98.896C209.041 99.312 208.097 99.52 207.057 99.52C205.873 99.52 204.793 99.264 203.817 98.752C202.857 98.224 202.097 97.496 201.537 96.568C200.993 95.624 200.721 94.56 200.721 93.376C200.721 92.192 200.993 91.136 201.537 90.208C202.097 89.28 202.857 88.56 203.817 88.048C204.777 87.536 205.857 87.28 207.057 87.28C208.129 87.28 209.097 87.496 209.961 87.928C210.825 88.36 211.521 88.984 212.049 89.8V87.376H213.681ZM207.225 98.008C208.137 98.008 208.961 97.816 209.697 97.432C210.433 97.032 211.001 96.48 211.401 95.776C211.817 95.072 212.025 94.272 212.025 93.376C212.025 92.48 211.817 91.688 211.401 91C211.001 90.296 210.433 89.752 209.697 89.368C208.977 88.968 208.153 88.768 207.225 88.768C206.313 88.768 205.489 88.96 204.753 89.344C204.033 89.728 203.465 90.272 203.049 90.976C202.649 91.68 202.449 92.48 202.449 93.376C202.449 94.272 202.649 95.072 203.049 95.776C203.465 96.48 204.033 97.032 204.753 97.432C205.489 97.816 206.313 98.008 207.225 98.008ZM222.862 87.28C224.51 87.28 225.774 87.696 226.654 88.528C227.534 89.344 227.974 90.56 227.974 92.176V100H226.342V98.032C225.958 98.688 225.39 99.2 224.638 99.568C223.902 99.936 223.022 100.12 221.998 100.12C220.59 100.12 219.47 99.784 218.638 99.112C217.806 98.44 217.39 97.552 217.39 96.448C217.39 95.376 217.774 94.512 218.542 93.856C219.326 93.2 220.566 92.872 222.262 92.872H226.27V92.104C226.27 91.016 225.966 90.192 225.358 89.632C224.75 89.056 223.862 88.768 222.694 88.768C221.894 88.768 221.126 88.904 220.39 89.176C219.654 89.432 219.022 89.792 218.494 90.256L217.726 88.984C218.366 88.44 219.134 88.024 220.03 87.736C220.926 87.432 221.87 87.28 222.862 87.28ZM222.262 98.776C223.222 98.776 224.046 98.56 224.734 98.128C225.422 97.68 225.934 97.04 226.27 96.208V94.144H222.31C220.15 94.144 219.07 94.896 219.07 96.4C219.07 97.136 219.35 97.72 219.91 98.152C220.47 98.568 221.254 98.776 222.262 98.776ZM239.251 99.232C238.931 99.52 238.531 99.744 238.051 99.904C237.587 100.048 237.099 100.12 236.587 100.12C235.403 100.12 234.491 99.8 233.851 99.16C233.211 98.52 232.891 97.616 232.891 96.448V88.816H230.635V87.376H232.891V84.616H234.595V87.376H238.435V88.816H234.595V96.352C234.595 97.104 234.779 97.68 235.147 98.08C235.531 98.464 236.075 98.656 236.779 98.656C237.131 98.656 237.467 98.6 237.787 98.488C238.123 98.376 238.411 98.216 238.651 98.008L239.251 99.232ZM242.353 87.376H244.057V100H242.353V87.376ZM243.217 84.616C242.865 84.616 242.569 84.496 242.329 84.256C242.089 84.016 241.969 83.728 241.969 83.392C241.969 83.072 242.089 82.792 242.329 82.552C242.569 82.312 242.865 82.192 243.217 82.192C243.569 82.192 243.865 82.312 244.105 82.552C244.345 82.776 244.465 83.048 244.465 83.368C244.465 83.72 244.345 84.016 244.105 84.256C243.865 84.496 243.569 84.616 243.217 84.616ZM253.958 100.12C252.742 100.12 251.646 99.848 250.67 99.304C249.694 98.744 248.926 97.976 248.366 97C247.806 96.024 247.526 94.92 247.526 93.688C247.526 92.456 247.806 91.352 248.366 90.376C248.926 89.4 249.694 88.64 250.67 88.096C251.646 87.552 252.742 87.28 253.958 87.28C255.174 87.28 256.27 87.552 257.246 88.096C258.222 88.64 258.982 89.4 259.526 90.376C260.086 91.352 260.366 92.456 260.366 93.688C260.366 94.92 260.086 96.024 259.526 97C258.982 97.976 258.222 98.744 257.246 99.304C256.27 99.848 255.174 100.12 253.958 100.12ZM253.958 98.608C254.854 98.608 255.654 98.408 256.358 98.008C257.078 97.592 257.638 97.008 258.038 96.256C258.438 95.504 258.638 94.648 258.638 93.688C258.638 92.728 258.438 91.872 258.038 91.12C257.638 90.368 257.078 89.792 256.358 89.392C255.654 88.976 254.854 88.768 253.958 88.768C253.062 88.768 252.254 88.976 251.534 89.392C250.83 89.792 250.27 90.368 249.854 91.12C249.454 91.872 249.254 92.728 249.254 93.688C249.254 94.648 249.454 95.504 249.854 96.256C250.27 97.008 250.83 97.592 251.534 98.008C252.254 98.408 253.062 98.608 253.958 98.608ZM270.277 87.28C271.861 87.28 273.117 87.744 274.045 88.672C274.989 89.584 275.461 90.92 275.461 92.68V100H273.757V92.848C273.757 91.536 273.429 90.536 272.773 89.848C272.117 89.16 271.181 88.816 269.965 88.816C268.605 88.816 267.525 89.224 266.725 90.04C265.941 90.84 265.549 91.952 265.549 93.376V100H263.845V87.376H265.477V89.704C265.941 88.936 266.581 88.344 267.397 87.928C268.229 87.496 269.189 87.28 270.277 87.28Z" fill="white"/>
<path fill-rule="evenodd" clip-rule="evenodd" d="M103.832 34.1637L99.9501 35.9294L101.051 40.3318C102.701 46.9256 104.229 51.1249 105.577 54.8297C106.762 58.086 107.698 60.6584 108.421 64.0894C110.005 71.654 108.005 80.9098 103.199 88.2467C99.1606 94.4226 92.142 99.1358 84.6885 103.814C77.1554 108.245 70.5603 110.691 64.224 111.372C62.3155 115.429 58.0805 115.405 56.3081 111.355C50.061 110.645 43.5162 108.202 36.0561 103.814C28.6027 99.1358 21.5835 94.4226 17.5431 88.2441C12.7397 80.9098 10.7402 71.654 12.3222 64.0965C13.0464 60.6578 13.9832 58.0847 15.1681 54.8284C16.5152 51.1236 18.0433 46.925 19.693 40.3318L20.7952 35.9294L16.9124 34.1637C16.538 33.993 7.7607 29.904 10.0028 22.4257C11.0055 19.0908 17.987 11.4691 20.6819 10.7734C20.8257 10.7371 21.3067 10.8065 22.1028 11.3386C24.8972 13.2063 27.8042 18.0837 28.4403 21.0324L29.8474 27.5536L35.3367 24.4731C42.2721 20.5814 50.9906 18.4477 59.9321 18.4477C60.0674 18.4477 60.2034 18.4484 60.3388 18.449L60.3705 18.4497L60.4029 18.449C69.5018 18.39 78.3774 20.5224 85.4169 24.4731L90.9135 27.5575L92.3145 21.0266C92.9471 18.0817 95.8481 13.2089 98.6407 11.3399C99.4374 10.8071 99.919 10.7345 100.071 10.7754C102.758 11.4691 109.739 19.0908 110.74 22.4225C112.983 29.904 104.207 33.993 103.832 34.1637ZM114.527 51.0068C113.566 48.3637 112.505 45.4513 111.383 41.5213C112.976 40.3915 114.815 38.8302 116.445 36.7964C120.537 31.688 121.761 25.4394 119.889 19.1985C118.002 12.9201 108.587 2.25936 102.308 0.638969C100.342 0.12631 97.2318 0.0309162 93.585 2.47286C90.1156 4.79476 87.0636 8.86164 85.0737 12.8565C77.6298 9.62609 69.1946 8.0005 60.3705 8.02646C51.5513 7.99791 43.1209 9.62609 35.6776 12.8578C33.6841 8.85969 30.6267 4.78957 27.1542 2.46832C23.5069 0.0309162 20.4004 0.127608 18.444 0.637022C12.158 2.25936 2.7428 12.9194 0.854117 19.2018C-1.01599 25.4394 0.207785 31.688 4.30022 36.7964C5.92953 38.8295 7.76909 40.3915 9.36066 41.5213C8.23871 45.45 7.17906 48.363 6.21765 51.0061C4.98908 54.3813 3.8294 57.5695 2.94107 61.7843C0.770855 72.1491 3.35978 84.599 9.6949 94.272C14.8638 102.177 22.8599 107.579 31.291 112.869L31.4036 112.937C41.8929 119.117 51.0308 122 60.0836 122H60.606C69.7127 122 78.8524 119.116 89.3411 112.937L89.4537 112.869C97.8847 107.579 105.881 102.177 111.048 94.2753C117.385 84.599 119.973 72.1491 117.802 61.7772C116.915 57.5695 115.755 54.3819 114.527 51.0068Z" fill="white"/>
<path fill-rule="evenodd" clip-rule="evenodd" d="M19.364 27.7378L27.5965 36.3634L25.5034 57.2445L27.6856 59.4256L30.9917 49.4849L34.0294 43.3728L43.7911 53.6045L43.7264 58.5941L45.2453 60.186L47.2871 54.8102L52.3147 52.7756L50.7958 51.1836L46.0227 51.2521L36.2738 41.0204L42.1057 37.8499L51.5763 34.3704L49.5083 32.0832L29.573 34.2783L21.3576 25.6488C19.2004 24.3133 18.1649 25.3955 19.364 27.7378ZM99.5976 25.6488L91.378 34.2783L71.4463 32.0832L69.3649 34.3704L78.8459 37.8499L84.6808 41.0204L74.9288 51.2521L70.1557 51.1836L68.6362 52.7756L73.7688 54.9298L75.7063 60.186L77.2251 58.5941L77.1635 53.6045L86.9252 43.3728L89.9629 49.4849L93.266 59.4256L95.4487 57.2445L93.3575 36.3634L101.587 27.7378C102.865 25.4883 101.832 24.3926 99.5976 25.6488ZM61.9134 108.393V96.2097L77.4802 82.9814L77.3923 79.8244L68.3555 84.3994L62.0898 86.4705V72.0104L65.4973 68.5213V66.2744L60.4202 68.5616L55.5067 66.2744V68.5213L58.9142 72.0104V86.4705L52.6479 84.3994L43.6117 79.8244L43.5232 82.9814L59.0906 96.2097V108.393C59.7044 110.937 61.172 110.937 61.9134 108.393Z" fill="white"/>
<path fill-rule="evenodd" clip-rule="evenodd" d="M157.518 13.4905H170.119C173.076 13.4905 175.103 13.6536 176.201 13.9784C177.903 14.5036 179.275 15.5858 180.317 17.2234C181.359 18.862 181.88 20.8315 181.88 23.1322C181.88 26.3092 180.995 28.7732 179.225 30.5231C177.455 32.2745 174.465 33.1497 170.253 33.1497H157.518V13.4905ZM157.518 62V39.6402H170.153C177.119 39.6402 181.935 38.0207 184.601 34.7812C187.267 31.5428 188.6 27.5848 188.6 22.9072C188.6 20.1813 188.102 17.6801 187.105 15.404C186.108 13.1284 184.792 11.3584 183.157 10.0954C181.521 8.83248 179.494 7.97541 177.074 7.52522C175.349 7.17524 172.852 7 169.581 7H151V62H157.518Z" fill="white"/>
<path fill-rule="evenodd" clip-rule="evenodd" d="M358.691 23.2823C359.869 19.8062 360.781 16.3044 361.429 12.7774C362.214 15.7545 363.415 19.5559 365.033 24.1827L370.335 39.4146H353.111L358.691 23.2823ZM345.591 62L351.17 45.3425H372.415L378.34 62H386L365.206 7H357.963L338.452 62H345.591ZM299.498 13.4905H310.172C314.169 13.4905 317.069 13.8656 318.871 14.6159C321.366 15.6664 323.486 17.736 325.23 20.8249C326.974 23.9143 327.847 28.3351 327.847 34.0873C327.847 38.2392 327.402 41.7728 326.513 44.6859C325.623 47.6 324.381 49.9194 322.787 51.6452C321.655 52.8708 320.136 53.8216 318.23 54.4964C316.324 55.1716 313.696 55.5095 310.346 55.5095H299.498V13.4905ZM311.108 62C314.18 62 316.901 61.6878 319.27 61.0619C321.638 60.4369 323.659 59.5179 325.335 58.3048C327.01 57.0917 328.552 55.4285 329.961 53.315C331.37 51.2015 332.525 48.5316 333.426 45.3048C334.328 42.0784 334.778 38.3772 334.778 34.1996C334.778 29.2979 334.114 24.9395 332.786 21.125C331.457 17.3115 329.453 14.1783 326.773 11.727C324.716 9.82652 322.233 8.51322 319.321 7.78758C317.243 7.26286 314.227 7 310.276 7H292.775V62H311.108ZM247.896 62V18.7804L274.581 62H281.478V7H275.031V50.1823L248.346 7H241.45V62H247.896ZM208.839 23.2823C210.017 19.8062 210.93 16.3044 211.576 12.7774C212.362 15.7545 213.563 19.5559 215.18 24.1827L220.483 39.4146H203.259L208.839 23.2823ZM195.739 62L201.319 45.3425H222.563L228.489 62H236.148L215.354 7H208.111L188.6 62H195.739Z" fill="white"/>
</svg>
