<svg width="166" height="181" viewBox="0 0 166 181" fill="none" xmlns="http://www.w3.org/2000/svg">
<path fill-rule="evenodd" clip-rule="evenodd" d="M50.0874 45.662H52.4252V48.0209V84.3371L63 73.6672V35H26.0078L26 111L36.5748 100.33V48.0209V45.662H38.9126H50.0874Z" fill="black"/>
<path fill-rule="evenodd" clip-rule="evenodd" d="M93.7161 87.575H96.1226V89.9129V101.088V103.426H93.7161H45.8854L35 114L107 113.993V77H73.0868L62.2006 87.575H93.7161Z" fill="black"/>
<path fill-rule="evenodd" clip-rule="evenodd" d="M129.265 42.8899V45.2649H126.89H103.735L93 56H140V9L129.265 19.7351V42.8899Z" fill="black"/>
<path fill-rule="evenodd" clip-rule="evenodd" d="M84 0V53L95.049 42.1548V13.2446V10.8444H97.4945H126.95L138 0H84Z" fill="black"/>
<mask id="mask0" mask-type="alpha" maskUnits="userSpaceOnUse" x="0" y="0" width="166" height="181">
<path fill-rule="evenodd" clip-rule="evenodd" d="M0 180.203H165.82V0.220703H0V180.203Z" fill="white"/>
</mask>
<g mask="url(#mask0)">
<path fill-rule="evenodd" clip-rule="evenodd" d="M10.624 159.159C10.0466 160.264 9.12358 160.816 7.85413 160.816C6.58467 160.816 5.58626 160.421 4.85811 159.632C4.12915 158.843 3.76507 157.789 3.76507 156.47C3.76507 155.15 4.12915 154.096 4.85811 153.307C5.58626 152.519 6.58467 152.124 7.85413 152.124C9.12358 152.124 10.0466 152.676 10.624 153.781H15.0378C14.5182 152.203 13.6024 150.969 12.2904 150.08C10.9769 149.191 9.47724 148.746 7.78997 148.746C5.61192 148.746 3.76908 149.474 2.26145 150.931C0.753816 152.386 0 154.232 0 156.47C0 158.707 0.753816 160.554 2.26145 162.009C3.76908 163.465 5.61192 164.192 7.78997 164.192C9.47724 164.192 10.9769 163.748 12.2904 162.859C13.6024 161.969 14.5182 160.737 15.0378 159.159H10.624Z" fill="black"/>
<path fill-rule="evenodd" clip-rule="evenodd" d="M35.884 159.634C35.155 160.422 34.1814 160.817 32.9625 160.817C31.7436 160.817 30.77 160.422 30.0419 159.634C29.3137 158.845 28.9496 157.79 28.9496 156.471C28.9496 155.152 29.3137 154.098 30.0419 153.308C30.77 152.52 31.7436 152.126 32.9625 152.126C34.1814 152.126 35.155 152.52 35.884 153.308C36.6121 154.098 36.9762 155.152 36.9762 156.471C36.9762 157.79 36.6121 158.845 35.884 159.634ZM40.7413 156.471C40.7413 154.234 39.9947 152.387 38.5023 150.932C37.0091 149.476 35.1694 148.748 32.985 148.748C30.7989 148.748 28.9529 149.476 27.446 150.932C25.9384 152.387 25.1846 154.234 25.1846 156.471C25.1846 158.709 25.9384 160.558 27.446 162.022C28.9529 163.484 30.7957 164.216 32.9737 164.216C35.1518 164.216 36.9906 163.484 38.491 162.022C39.9915 160.558 40.7413 158.709 40.7413 156.471Z" fill="black"/>
<path fill-rule="evenodd" clip-rule="evenodd" d="M68.977 148.963H64.7364L60.3875 159.375L56.017 148.963H51.7764V164.064H55.4765V155.546L59.0026 164.064H61.75L65.2769 155.546V164.064H68.977V148.963Z" fill="black"/>
<path fill-rule="evenodd" clip-rule="evenodd" d="M84.5771 151.759H86.8706C87.4183 151.759 87.8586 151.931 88.1906 152.275C88.5218 152.62 88.6878 153.061 88.6878 153.599C88.6878 154.136 88.5258 154.57 88.201 154.9C87.8762 155.231 87.4336 155.395 86.8706 155.395H84.5771V151.759ZM84.5771 158.191H86.8706C87.9235 158.191 88.8361 158.038 89.6076 157.729C90.379 157.421 90.9596 157.023 91.3494 156.535C92.0848 155.589 92.4528 154.607 92.4528 153.588C92.4528 152.311 91.9621 151.222 90.9813 150.318C90.0005 149.415 88.63 148.963 86.8706 148.963H80.877V164.065H84.5771V158.191Z" fill="black"/>
<path fill-rule="evenodd" clip-rule="evenodd" d="M109.415 153.35L111.21 158.729H107.619L109.415 153.35ZM106.689 161.525H112.141L112.985 164.064H116.944L111.687 148.918H107.186L101.907 164.064H105.845L106.689 161.525Z" fill="black"/>
<path fill-rule="evenodd" clip-rule="evenodd" d="M141.004 164.065V148.92H137.304V158.45L131.116 148.92H127.416V164.065H131.116V154.535L137.304 164.065H141.004Z" fill="black"/>
<path fill-rule="evenodd" clip-rule="evenodd" d="M158.724 155.783L155.803 148.963H151.606L156.864 159.203V164.065H160.563V159.203L165.821 148.963H161.623L158.724 155.783Z" fill="black"/>
</g>
</svg>
