<svg width="206" height="232" viewBox="0 0 206 232" fill="none" xmlns="http://www.w3.org/2000/svg">
<path fill-rule="evenodd" clip-rule="evenodd" d="M3.448 209.332C4.526 210.367 5.811 211.168 7.304 211.732C8.796 212.298 10.436 212.581 12.222 212.581C13.922 212.581 15.523 212.261 17.027 211.621C18.53 210.98 19.804 209.956 20.85 208.548L17.451 206.18C16.689 207.14 15.866 207.839 14.984 208.276C14.102 208.714 13.192 208.932 12.255 208.932C11.056 208.932 9.972 208.719 9.004 208.292C8.034 207.865 7.2 207.278 6.504 206.531C5.805 205.785 5.266 204.899 4.885 203.875C4.504 202.851 4.314 201.73 4.314 200.514C4.314 199.384 4.504 198.327 4.885 197.346C5.266 196.364 5.805 195.505 6.504 194.769C7.2 194.032 8.034 193.456 9.004 193.04C9.972 192.624 11.056 192.416 12.255 192.416C13.061 192.416 13.862 192.565 14.657 192.864C15.452 193.163 16.275 193.761 17.125 194.656L20.327 192.352C19.173 191.051 17.926 190.128 16.586 189.583C15.246 189.039 13.791 188.768 12.222 188.768C10.436 188.768 8.796 189.05 7.304 189.615C5.811 190.181 4.526 190.986 3.448 192.032C2.369 193.078 1.525 194.342 0.915 195.825C0.304 197.309 0 198.957 0 200.769C0 202.542 0.304 204.152 0.915 205.603C1.525 207.055 2.369 208.297 3.448 209.332Z" fill="black"/>
<path fill-rule="evenodd" clip-rule="evenodd" d="M33.8089 203.874C33.4279 202.85 33.2369 201.729 33.2369 200.513C33.2369 199.383 33.4279 198.326 33.8089 197.345C34.1899 196.363 34.7289 195.504 35.4269 194.768C36.1239 194.031 36.9569 193.455 37.9269 193.039C38.8959 192.623 39.9799 192.415 41.1789 192.415C42.3759 192.415 43.4669 192.623 44.4469 193.039C45.4269 193.455 46.2659 194.031 46.9629 194.768C47.6609 195.504 48.1999 196.363 48.5809 197.345C48.9619 198.326 49.1529 199.383 49.1529 200.513C49.1529 201.729 48.9619 202.85 48.5809 203.874C48.1999 204.898 47.6609 205.784 46.9629 206.53C46.2659 207.277 45.4269 207.864 44.4469 208.291C43.4669 208.718 42.3759 208.931 41.1789 208.931C39.9799 208.931 38.8959 208.718 37.9269 208.291C36.9569 207.864 36.1239 207.277 35.4269 206.53C34.7289 205.784 34.1899 204.898 33.8089 203.874ZM41.1459 212.58C42.9539 212.559 44.6099 212.254 46.1139 211.668C47.6169 211.081 48.9129 210.265 50.0029 209.219C51.0919 208.174 51.9419 206.926 52.5519 205.475C53.1619 204.023 53.4669 202.412 53.4669 200.641C53.4669 198.828 53.1619 197.185 52.5519 195.712C51.9419 194.239 51.0919 192.98 50.0029 191.935C48.9129 190.89 47.6169 190.095 46.1139 189.551C44.6099 189.006 42.9539 188.745 41.1459 188.767C39.3589 188.767 37.7199 189.049 36.2269 189.614C34.7349 190.18 33.4499 190.985 32.3719 192.031C31.2929 193.077 30.4479 194.341 29.8379 195.824C29.2279 197.308 28.9229 198.956 28.9229 200.769C28.9229 202.541 29.2279 204.151 29.8379 205.603C30.4479 207.054 31.2929 208.296 32.3719 209.331C33.4499 210.366 34.7349 211.167 36.2269 211.731C37.7199 212.297 39.3589 212.58 41.1459 212.58Z" fill="black"/>
<path fill-rule="evenodd" clip-rule="evenodd" d="M88.9245 212.005V189.344H82.7155L76.4735 205.219L70.2965 189.344H64.0225V212.005H67.9435V193.185H68.0085L75.0355 212.005H77.9115L84.9375 193.185H85.0035V212.005H88.9245Z" fill="black"/>
<path fill-rule="evenodd" clip-rule="evenodd" d="M104.841 192.8H107.782C108.326 192.8 108.894 192.832 109.482 192.897C110.07 192.96 110.604 193.105 111.083 193.328C111.562 193.553 111.954 193.872 112.259 194.289C112.564 194.705 112.717 195.265 112.717 195.969C112.717 196.738 112.548 197.335 112.21 197.762C111.872 198.189 111.437 198.509 110.903 198.722C110.369 198.936 109.786 199.064 109.154 199.106C108.523 199.149 107.912 199.17 107.325 199.17H104.841V192.8ZM104.841 202.627H107.782C109.002 202.627 110.173 202.542 111.295 202.371C112.417 202.2 113.404 201.874 114.253 201.395C115.103 200.914 115.778 200.237 116.279 199.362C116.78 198.487 117.03 197.335 117.03 195.905C117.03 194.647 116.796 193.596 116.328 192.752C115.86 191.909 115.234 191.238 114.449 190.736C113.664 190.235 112.755 189.877 111.72 189.663C110.685 189.45 109.612 189.344 108.501 189.344H100.723V212.005H104.841V202.627Z" fill="black"/>
<path fill-rule="evenodd" clip-rule="evenodd" d="M130.333 203.361L133.961 194.143L137.522 203.361H130.333ZM135.856 189.342H132.294L122.229 212.004H126.836L128.928 206.818H138.961L141.118 212.004H145.824L135.856 189.342Z" fill="black"/>
<path fill-rule="evenodd" clip-rule="evenodd" d="M171.672 206.178H171.607L160.398 189.342H154.94V212.003H159.058V194.623H159.123L170.562 212.003H175.79V189.342H171.672V206.178Z" fill="black"/>
<path fill-rule="evenodd" clip-rule="evenodd" d="M195.302 198.369L189.615 189.344H184.451L193.145 202.307V212.005H197.263V202.307L205.956 189.344H201.054L195.302 198.369Z" fill="black"/>
<path fill-rule="evenodd" clip-rule="evenodd" d="M28.6504 79.0809L102.82 8.97094V0.210938L28.6504 70.3209V79.0809Z" fill="black"/>
<path fill-rule="evenodd" clip-rule="evenodd" d="M28.6504 92.9108V101.671L102.82 31.5608V22.8008L28.6504 92.9108Z" fill="black"/>
<path fill-rule="evenodd" clip-rule="evenodd" d="M28.6504 115.491V124.262L102.82 54.1409V45.3809L28.6504 115.491Z" fill="black"/>
<path fill-rule="evenodd" clip-rule="evenodd" d="M28.6504 138.081V146.842L102.82 76.7307V67.9707L28.6504 138.081Z" fill="black"/>
<path fill-rule="evenodd" clip-rule="evenodd" d="M102.82 90.5605L28.6504 160.67V169.431L102.82 99.3205V90.5605Z" fill="black"/>
<path fill-rule="evenodd" clip-rule="evenodd" d="M177.3 70.3198L108.821 5.58984V14.3498L177.3 79.0798V70.3198Z" fill="black"/>
<path fill-rule="evenodd" clip-rule="evenodd" d="M177.3 92.9106L108.821 28.1816V36.9406L177.3 101.671V92.9106Z" fill="black"/>
<path fill-rule="evenodd" clip-rule="evenodd" d="M177.3 115.49L108.821 50.7598V59.5198L177.3 124.261V115.49Z" fill="black"/>
<path fill-rule="evenodd" clip-rule="evenodd" d="M177.3 138.08L108.821 73.3496V82.1096L177.3 146.841V138.08Z" fill="black"/>
<path fill-rule="evenodd" clip-rule="evenodd" d="M177.3 160.67L108.821 95.9414V104.7L177.3 169.431V160.67Z" fill="black"/>
<path fill-rule="evenodd" clip-rule="evenodd" d="M102.981 99.1696L103.041 99.1096V90.4696V90.3496L102.981 90.4096L102.911 90.3496V90.4696L102.821 90.5596V99.3196L102.981 99.1696Z" fill="white"/>
<path fill-rule="evenodd" clip-rule="evenodd" d="M102.911 67.7598V67.8798L102.821 67.9698V76.7298L102.981 76.5798L103.041 76.5198V67.8798V67.7598L102.981 67.8198L102.911 67.7598Z" fill="white"/>
<path fill-rule="evenodd" clip-rule="evenodd" d="M103.041 45.2899V45.1699L102.981 45.2299L102.911 45.1699V45.2899L102.821 45.3799V54.1399L102.981 53.9899L103.041 53.9299V45.2899Z" fill="white"/>
<path fill-rule="evenodd" clip-rule="evenodd" d="M103.041 22.7098V22.5898L102.981 22.6498L102.911 22.5898V22.7098L102.821 22.7998V31.5598L102.981 31.4098L103.041 31.3498V22.7098Z" fill="white"/>
<path fill-rule="evenodd" clip-rule="evenodd" d="M102.981 8.82L103.041 8.76V0.12V0L102.981 0.06L102.911 0V0.12L102.821 0.21V8.97L102.981 8.82Z" fill="white"/>
<mask id="mask0" mask-type="alpha" maskUnits="userSpaceOnUse" x="0" y="0" width="206" height="232">
<path fill-rule="evenodd" clip-rule="evenodd" d="M0 231.004H205.956V0H0V231.004Z" fill="white"/>
</mask>
<g mask="url(#mask0)">
</g>
</svg>
