<svg width="247" height="73" viewBox="0 0 247 73" fill="none" xmlns="http://www.w3.org/2000/svg">
<path d="M103.808 50.28C105.392 50.28 106.648 50.744 107.576 51.672C108.52 52.584 108.992 53.92 108.992 55.68V63H107.288V55.848C107.288 54.536 106.96 53.536 106.304 52.848C105.648 52.16 104.712 51.816 103.496 51.816C102.136 51.816 101.056 52.224 100.256 53.04C99.472 53.84 99.08 54.952 99.08 56.376V63H97.376V50.376H99.008V52.704C99.472 51.936 100.112 51.344 100.928 50.928C101.76 50.496 102.72 50.28 103.808 50.28ZM118.034 50.28C119.682 50.28 120.946 50.696 121.826 51.528C122.706 52.344 123.146 53.56 123.146 55.176V63H121.514V61.032C121.13 61.688 120.562 62.2 119.81 62.568C119.074 62.936 118.194 63.12 117.17 63.12C115.762 63.12 114.642 62.784 113.81 62.112C112.978 61.44 112.562 60.552 112.562 59.448C112.562 58.376 112.946 57.512 113.714 56.856C114.498 56.2 115.738 55.872 117.434 55.872H121.442V55.104C121.442 54.016 121.138 53.192 120.53 52.632C119.922 52.056 119.034 51.768 117.866 51.768C117.066 51.768 116.298 51.904 115.562 52.176C114.826 52.432 114.194 52.792 113.666 53.256L112.898 51.984C113.538 51.44 114.306 51.024 115.202 50.736C116.098 50.432 117.042 50.28 118.034 50.28ZM117.434 61.776C118.394 61.776 119.218 61.56 119.906 61.128C120.594 60.68 121.106 60.04 121.442 59.208V57.144H117.482C115.322 57.144 114.242 57.896 114.242 59.4C114.242 60.136 114.522 60.72 115.082 61.152C115.642 61.568 116.426 61.776 117.434 61.776ZM138.148 50.376L132.532 63H130.78L125.188 50.376H126.964L131.692 61.128L136.468 50.376H138.148ZM140.548 50.376H142.252V63H140.548V50.376ZM141.412 47.616C141.06 47.616 140.764 47.496 140.524 47.256C140.284 47.016 140.164 46.728 140.164 46.392C140.164 46.072 140.284 45.792 140.524 45.552C140.764 45.312 141.06 45.192 141.412 45.192C141.764 45.192 142.06 45.312 142.3 45.552C142.54 45.776 142.66 46.048 142.66 46.368C142.66 46.72 142.54 47.016 142.3 47.256C142.06 47.496 141.764 47.616 141.412 47.616ZM158.681 50.376V61.464C158.681 63.608 158.153 65.192 157.097 66.216C156.057 67.256 154.481 67.776 152.369 67.776C151.201 67.776 150.089 67.6 149.033 67.248C147.993 66.912 147.145 66.44 146.489 65.832L147.353 64.536C147.961 65.08 148.697 65.504 149.561 65.808C150.441 66.112 151.361 66.264 152.321 66.264C153.921 66.264 155.097 65.888 155.849 65.136C156.601 64.4 156.977 63.248 156.977 61.68V60.072C156.449 60.872 155.753 61.48 154.889 61.896C154.041 62.312 153.097 62.52 152.057 62.52C150.873 62.52 149.793 62.264 148.817 61.752C147.857 61.224 147.097 60.496 146.537 59.568C145.993 58.624 145.721 57.56 145.721 56.376C145.721 55.192 145.993 54.136 146.537 53.208C147.097 52.28 147.857 51.56 148.817 51.048C149.777 50.536 150.857 50.28 152.057 50.28C153.129 50.28 154.097 50.496 154.961 50.928C155.825 51.36 156.521 51.984 157.049 52.8V50.376H158.681ZM152.225 61.008C153.137 61.008 153.961 60.816 154.697 60.432C155.433 60.032 156.001 59.48 156.401 58.776C156.817 58.072 157.025 57.272 157.025 56.376C157.025 55.48 156.817 54.688 156.401 54C156.001 53.296 155.433 52.752 154.697 52.368C153.977 51.968 153.153 51.768 152.225 51.768C151.313 51.768 150.489 51.96 149.753 52.344C149.033 52.728 148.465 53.272 148.049 53.976C147.649 54.68 147.449 55.48 147.449 56.376C147.449 57.272 147.649 58.072 148.049 58.776C148.465 59.48 149.033 60.032 149.753 60.432C150.489 60.816 151.313 61.008 152.225 61.008ZM167.862 50.28C169.51 50.28 170.774 50.696 171.654 51.528C172.534 52.344 172.974 53.56 172.974 55.176V63H171.342V61.032C170.958 61.688 170.39 62.2 169.638 62.568C168.902 62.936 168.022 63.12 166.998 63.12C165.59 63.12 164.47 62.784 163.638 62.112C162.806 61.44 162.39 60.552 162.39 59.448C162.39 58.376 162.774 57.512 163.542 56.856C164.326 56.2 165.566 55.872 167.262 55.872H171.27V55.104C171.27 54.016 170.966 53.192 170.358 52.632C169.75 52.056 168.862 51.768 167.694 51.768C166.894 51.768 166.126 51.904 165.39 52.176C164.654 52.432 164.022 52.792 163.494 53.256L162.726 51.984C163.366 51.44 164.134 51.024 165.03 50.736C165.926 50.432 166.87 50.28 167.862 50.28ZM167.262 61.776C168.222 61.776 169.046 61.56 169.734 61.128C170.422 60.68 170.934 60.04 171.27 59.208V57.144H167.31C165.15 57.144 164.07 57.896 164.07 59.4C164.07 60.136 164.35 60.72 164.91 61.152C165.47 61.568 166.254 61.776 167.262 61.776ZM184.251 62.232C183.931 62.52 183.531 62.744 183.051 62.904C182.587 63.048 182.099 63.12 181.587 63.12C180.403 63.12 179.491 62.8 178.851 62.16C178.211 61.52 177.891 60.616 177.891 59.448V51.816H175.635V50.376H177.891V47.616H179.595V50.376H183.435V51.816H179.595V59.352C179.595 60.104 179.779 60.68 180.147 61.08C180.531 61.464 181.075 61.656 181.779 61.656C182.131 61.656 182.467 61.6 182.787 61.488C183.123 61.376 183.411 61.216 183.651 61.008L184.251 62.232ZM187.353 50.376H189.057V63H187.353V50.376ZM188.217 47.616C187.865 47.616 187.569 47.496 187.329 47.256C187.089 47.016 186.969 46.728 186.969 46.392C186.969 46.072 187.089 45.792 187.329 45.552C187.569 45.312 187.865 45.192 188.217 45.192C188.569 45.192 188.865 45.312 189.105 45.552C189.345 45.776 189.465 46.048 189.465 46.368C189.465 46.72 189.345 47.016 189.105 47.256C188.865 47.496 188.569 47.616 188.217 47.616ZM198.958 63.12C197.742 63.12 196.646 62.848 195.67 62.304C194.694 61.744 193.926 60.976 193.366 60C192.806 59.024 192.526 57.92 192.526 56.688C192.526 55.456 192.806 54.352 193.366 53.376C193.926 52.4 194.694 51.64 195.67 51.096C196.646 50.552 197.742 50.28 198.958 50.28C200.174 50.28 201.27 50.552 202.246 51.096C203.222 51.64 203.982 52.4 204.526 53.376C205.086 54.352 205.366 55.456 205.366 56.688C205.366 57.92 205.086 59.024 204.526 60C203.982 60.976 203.222 61.744 202.246 62.304C201.27 62.848 200.174 63.12 198.958 63.12ZM198.958 61.608C199.854 61.608 200.654 61.408 201.358 61.008C202.078 60.592 202.638 60.008 203.038 59.256C203.438 58.504 203.638 57.648 203.638 56.688C203.638 55.728 203.438 54.872 203.038 54.12C202.638 53.368 202.078 52.792 201.358 52.392C200.654 51.976 199.854 51.768 198.958 51.768C198.062 51.768 197.254 51.976 196.534 52.392C195.83 52.792 195.27 53.368 194.854 54.12C194.454 54.872 194.254 55.728 194.254 56.688C194.254 57.648 194.454 58.504 194.854 59.256C195.27 60.008 195.83 60.592 196.534 61.008C197.254 61.408 198.062 61.608 198.958 61.608ZM215.277 50.28C216.861 50.28 218.117 50.744 219.045 51.672C219.989 52.584 220.461 53.92 220.461 55.68V63H218.757V55.848C218.757 54.536 218.429 53.536 217.773 52.848C217.117 52.16 216.181 51.816 214.965 51.816C213.605 51.816 212.525 52.224 211.725 53.04C210.941 53.84 210.549 54.952 210.549 56.376V63H208.845V50.376H210.477V52.704C210.941 51.936 211.581 51.344 212.397 50.928C213.229 50.496 214.189 50.28 215.277 50.28Z" fill="#8A92A5"/>
<path fill-rule="evenodd" clip-rule="evenodd" d="M66.0751 20.4416L63.6046 21.4981L64.3052 24.1324C65.3554 28.0778 66.3274 30.5905 67.1851 32.8073C67.9395 34.7558 68.5349 36.295 68.995 38.3479C70.0032 42.8743 68.7305 48.4126 65.6722 52.8027C63.1022 56.4981 58.6358 59.3184 53.8927 62.1176C49.0989 64.7689 44.902 66.2324 40.8698 66.6401C39.6553 69.0673 36.9603 69.053 35.8324 66.6296C31.857 66.2052 27.6921 64.7433 22.9448 62.1176C18.2017 59.3184 13.7349 56.4981 11.1638 52.8012C8.10706 48.4126 6.83466 42.8743 7.84138 38.3522C8.30223 36.2946 8.89841 34.755 9.6524 32.8065C10.5097 30.5897 11.4821 28.0775 12.5319 24.1324L13.2333 21.4981L10.7624 20.4416C10.5242 20.3395 4.93863 17.8928 6.36542 13.418C7.00352 11.4226 11.4463 6.86203 13.1612 6.44577C13.2527 6.42403 13.5588 6.46558 14.0654 6.78398C15.8437 7.9015 17.6936 10.8199 18.0984 12.5844L18.9938 16.4864L22.487 14.6431C26.9004 12.3145 32.4486 11.0378 38.1386 11.0378C38.2247 11.0378 38.3113 11.0382 38.3974 11.0386L38.4176 11.0389L38.4382 11.0386C44.2284 11.0032 49.8765 12.2792 54.3562 14.6431L57.854 16.4887L58.7456 12.5809C59.1482 10.8188 60.9942 7.90306 62.7713 6.78476C63.2783 6.46596 63.5848 6.42248 63.6812 6.44694C65.3916 6.86203 69.8336 11.4226 70.471 13.4161C71.8985 17.8928 66.3137 20.3395 66.0751 20.4416ZM72.8808 30.5199C72.269 28.9383 71.5943 27.1956 70.8804 24.8441C71.8939 24.1681 73.0642 23.2338 74.1014 22.0169C76.7053 18.9602 77.4841 15.2213 76.2932 11.487C75.0921 7.73026 69.1006 1.35131 65.105 0.381726C63.8539 0.0749704 61.8748 0.0178906 59.5541 1.47906C57.3463 2.86839 55.4041 5.30185 54.1378 7.69221C49.4008 5.75926 44.0329 4.78658 38.4176 4.80211C32.8054 4.78502 27.4405 5.75926 22.7039 7.69299C21.4353 5.30068 19.4897 2.86528 17.28 1.47634C14.9589 0.0178906 12.9821 0.075747 11.7371 0.380561C7.73693 1.35131 1.74542 7.72987 0.543529 11.489C-0.64654 15.2213 0.132227 18.9602 2.7365 22.0169C3.77334 23.2334 4.94396 24.1681 5.95678 24.8441C5.24282 27.1949 4.56849 28.9379 3.95669 30.5195C3.17487 32.539 2.43689 34.4467 1.87159 36.9687C0.490544 43.1706 2.13804 50.6201 6.16948 56.4081C9.45876 61.1379 14.5472 64.3705 19.9125 67.5355L19.9841 67.5767C26.6591 71.274 32.4741 72.9993 38.235 72.9993H38.5674C44.3626 72.9993 50.1788 71.2737 56.8534 67.5767L56.9251 67.5355C62.2903 64.3705 67.3788 61.1379 70.6669 56.41C74.6995 50.6201 76.3466 43.1706 74.9648 36.9644C74.4006 34.4467 73.6623 32.5394 72.8808 30.5199Z" fill="#8A92A5"/>
<path fill-rule="evenodd" clip-rule="evenodd" d="M12.3224 16.5973L17.5612 21.7585L16.2293 34.2529L17.6179 35.558L19.7218 29.6099L21.6549 25.9527L27.8669 32.0749L27.8257 35.0605L28.7923 36.013L30.0916 32.7963L33.291 31.5789L32.3244 30.6264L29.287 30.6673L23.0832 24.5451L26.7943 22.648L32.8211 20.566L31.5051 19.1974L18.819 20.5109L13.591 15.3473C12.2183 14.5482 11.5593 15.1958 12.3224 16.5973ZM63.3801 15.3473L58.1494 20.5109L45.4657 19.1974L44.1411 20.566L50.1745 22.648L53.8876 24.5451L47.6818 30.6673L44.6444 30.6264L43.6774 31.5789L46.9436 32.8679L48.1765 36.013L49.1431 35.0605L49.1039 32.0749L55.3158 25.9527L57.2489 29.6099L59.3509 35.558L60.7399 34.2529L59.4091 21.7585L64.6461 16.5973C65.4592 15.2513 64.8022 14.5957 63.3801 15.3473ZM39.3993 64.8585V57.5682L49.3054 49.6529L49.2495 47.7638L43.4988 50.5014L39.5115 51.7406V43.0882L41.6799 41.0005V39.6561L38.4491 41.0247L35.3223 39.6561V41.0005L37.4907 43.0882V51.7406L33.503 50.5014L27.7527 47.7638L27.6964 49.6529L37.6029 57.5682V64.8585C37.9936 66.3805 38.9275 66.3805 39.3993 64.8585Z" fill="#8A92A5"/>
<path fill-rule="evenodd" clip-rule="evenodd" d="M100.161 7.89428H108.204C110.091 7.89428 111.385 7.99217 112.086 8.18705C113.172 8.50218 114.048 9.15148 114.713 10.134C115.378 11.1172 115.711 12.2989 115.711 13.6793C115.711 15.5855 115.145 17.0639 114.016 18.1139C112.886 19.1647 110.978 19.6898 108.289 19.6898H100.161V7.89428ZM100.161 37V23.5841H108.225C112.672 23.5841 115.746 22.6124 117.448 20.6687C119.149 18.7257 120 16.3509 120 13.5443C120 11.9088 119.682 10.4081 119.046 9.04241C118.409 7.67704 117.569 6.61502 116.526 5.85725C115.482 5.09949 114.188 4.58524 112.643 4.31513C111.542 4.10514 109.948 4 107.86 4H96V37H100.161Z" fill="#8A92A5"/>
<path fill-rule="evenodd" clip-rule="evenodd" d="M228.569 13.7694C229.321 11.6837 229.903 9.58263 230.317 7.46645C230.817 9.2527 231.584 11.5336 232.617 14.3096L236.001 23.4487H225.007L228.569 13.7694ZM220.207 37L223.768 27.0055H237.329L241.111 37H246L232.727 4H228.104L215.65 37H220.207ZM190.787 7.89428H197.599C200.151 7.89428 202.001 8.11937 203.152 8.56956C204.745 9.19982 206.097 10.4416 207.211 12.2949C208.324 14.1486 208.881 16.8011 208.881 20.2524C208.881 22.7435 208.597 24.8637 208.03 26.6115C207.462 28.36 206.669 29.7517 205.651 30.7871C204.929 31.5225 203.959 32.0929 202.743 32.4978C201.526 32.903 199.849 33.1057 197.71 33.1057H190.787V7.89428ZM198.197 37C200.158 37 201.895 36.8127 203.406 36.4371C204.918 36.0622 206.208 35.5108 207.278 34.7829C208.347 34.055 209.331 33.0571 210.231 31.789C211.13 30.5209 211.868 28.919 212.443 26.9829C213.018 25.0471 213.306 22.8263 213.306 20.3198C213.306 17.3787 212.881 14.7637 212.034 12.475C211.185 10.1869 209.906 8.307 208.196 6.83619C206.883 5.69591 205.298 4.90793 203.439 4.47255C202.113 4.15772 200.188 4 197.666 4H186.495V37H198.197ZM157.849 37V11.0683L174.882 37H179.284V4H175.169V29.9094L158.136 4H153.734V37H157.849ZM132.919 13.7694C133.671 11.6837 134.253 9.58263 134.666 7.46645C135.167 9.2527 135.934 11.5336 136.966 14.3096L140.351 23.4487H129.357L132.919 13.7694ZM124.557 37L128.118 27.0055H141.678L145.461 37H150.35L137.077 4H132.454L120 37H124.557Z" fill="#8A92A5"/>
</svg>
