<svg width="144" height="170" viewBox="0 0 144 170" fill="none" xmlns="http://www.w3.org/2000/svg">
<path fill-rule="evenodd" clip-rule="evenodd" d="M29.6787 82.8495L88.6886 23.7121V0.0625L29.6787 59.2066V82.8495Z" fill="black"/>
<path fill-rule="evenodd" clip-rule="evenodd" d="M29.6787 134.25L88.6886 75.1056V55.9961L29.6787 115.134V134.25Z" fill="black"/>
<path fill-rule="evenodd" clip-rule="evenodd" d="M55.2441 82.8498L114.262 23.7125V3.83984L55.2441 62.9847V82.8498Z" fill="black"/>
<path fill-rule="evenodd" clip-rule="evenodd" d="M114.262 55.2402L55.2441 114.378V134.25L114.262 75.1053V55.2402Z" fill="black"/>
<path fill-rule="evenodd" clip-rule="evenodd" d="M2.4293 167.314C3.18323 168.053 4.0804 168.626 5.12384 169.03C6.16652 169.434 7.31173 169.636 8.56024 169.636C9.74767 169.636 10.8657 169.407 11.9167 168.95C12.9669 168.492 13.8573 167.759 14.5879 166.753L12.2138 165.06C11.6807 165.746 11.1062 166.246 10.4895 166.558C9.87282 166.872 9.23726 167.027 8.58285 167.027C7.74524 167.027 6.9883 166.875 6.31052 166.57C5.63349 166.265 5.05146 165.846 4.56442 165.311C4.07663 164.778 3.70042 164.144 3.43429 163.412C3.1674 162.68 3.03395 161.879 3.03395 161.009C3.03395 160.201 3.1674 159.446 3.43429 158.744C3.70042 158.042 4.07663 157.429 4.56442 156.902C5.05146 156.376 5.63349 155.964 6.31052 155.666C6.9883 155.368 7.74524 155.22 8.58285 155.22C9.14604 155.22 9.70545 155.327 10.2611 155.541C10.8167 155.754 11.3912 156.181 11.9853 156.822L14.223 155.174C13.4155 154.244 12.5447 153.584 11.6084 153.195C10.672 152.806 9.65569 152.611 8.56024 152.611C7.31173 152.611 6.16652 152.814 5.12384 153.218C4.0804 153.622 3.18323 154.198 2.4293 154.945C1.67538 155.693 1.08581 156.597 0.659838 157.657C0.233115 158.718 0.0205078 159.896 0.0205078 161.192C0.0205078 162.459 0.233115 163.611 0.659838 164.648C1.08581 165.685 1.67538 166.574 2.4293 167.314Z" fill="black"/>
<path fill-rule="evenodd" clip-rule="evenodd" d="M23.6423 158.743C23.9084 158.042 24.2854 157.428 24.7724 156.901C25.2602 156.374 25.8415 155.963 26.5193 155.666C27.1963 155.368 27.954 155.219 28.7916 155.219C29.6277 155.219 30.3899 155.368 31.0745 155.666C31.7598 155.963 32.3456 156.374 32.8327 156.901C33.3197 157.428 33.6967 158.042 33.9628 158.743C34.2289 159.445 34.3624 160.201 34.3624 161.009C34.3624 161.878 34.2289 162.679 33.9628 163.411C33.6967 164.143 33.3197 164.777 32.8327 165.31C32.3456 165.845 31.7598 166.264 31.0745 166.569C30.3899 166.874 29.6277 167.026 28.7916 167.026C27.954 167.026 27.1963 166.874 26.5193 166.569C25.8415 166.264 25.2602 165.845 24.7724 165.31C24.2854 164.777 23.9084 164.143 23.6423 163.411C23.3754 162.679 23.2427 161.878 23.2427 161.009C23.2427 160.201 23.3754 159.445 23.6423 158.743ZM22.6373 167.313C23.3912 168.053 24.2892 168.625 25.3318 169.029C26.3745 169.433 27.5205 169.635 28.7682 169.635C30.0318 169.62 31.1883 169.402 32.2393 168.983C33.2895 168.564 34.195 167.98 34.9565 167.232C35.7172 166.485 36.3113 165.593 36.7372 164.556C37.1632 163.518 37.3766 162.367 37.3766 161.1C37.3766 159.804 37.1632 158.629 36.7372 157.576C36.3113 156.523 35.7172 155.623 34.9565 154.876C34.195 154.129 33.2895 153.56 32.2393 153.171C31.1883 152.782 30.0318 152.595 28.7682 152.61C27.5205 152.61 26.3745 152.813 25.3318 153.217C24.2892 153.621 23.3912 154.197 22.6373 154.945C21.8841 155.692 21.2938 156.596 20.8678 157.657C20.4419 158.717 20.2285 159.895 20.2285 161.192C20.2285 162.458 20.4419 163.61 20.8678 164.647C21.2938 165.684 21.8841 166.573 22.6373 167.313Z" fill="black"/>
<path fill-rule="evenodd" clip-rule="evenodd" d="M49.1351 153.023H44.751V169.224H47.4907V155.769H47.5367L52.4463 169.224H54.4555L59.3643 155.769H59.4103V169.224H62.1501V153.023H57.812L53.4505 164.373L49.1351 153.023Z" fill="black"/>
<path fill-rule="evenodd" clip-rule="evenodd" d="M73.2705 155.495H75.3257C75.7057 155.495 76.1023 155.518 76.5132 155.564C76.9241 155.61 77.2965 155.712 77.632 155.873C77.9667 156.033 78.2404 156.262 78.4538 156.559C78.6671 156.856 78.7734 157.257 78.7734 157.761C78.7734 158.31 78.6558 158.737 78.4199 159.042C78.1839 159.347 77.8793 159.576 77.5061 159.728C77.1329 159.881 76.7258 159.972 76.2847 160.003C75.8429 160.033 75.417 160.049 75.0061 160.049H73.2705V155.495ZM73.2705 162.52H75.3257C76.1777 162.52 76.9964 162.46 77.7798 162.337C78.5639 162.216 79.2529 161.982 79.847 161.639C80.4404 161.296 80.9123 160.812 81.2629 160.186C81.612 159.561 81.7876 158.737 81.7876 157.715C81.7876 156.815 81.624 156.063 81.2968 155.461C80.9689 154.858 80.5316 154.377 79.9835 154.019C79.4354 153.661 78.7998 153.405 78.0768 153.252C77.3546 153.101 76.6044 153.023 75.8279 153.023H70.3936V169.225H73.2705V162.52Z" fill="black"/>
<path fill-rule="evenodd" clip-rule="evenodd" d="M93.6154 156.455L96.1041 163.046H91.0807L93.6154 156.455ZM90.0991 165.517H97.1091L98.6162 169.224H101.904L94.9393 153.023H92.4514L85.418 169.224H88.6372L90.0991 165.517Z" fill="black"/>
<path fill-rule="evenodd" clip-rule="evenodd" d="M108.273 153.023V169.224H111.15V156.799H111.196L119.188 169.224H122.842V153.023H119.965V165.059H119.919L112.087 153.023H108.273Z" fill="black"/>
<path fill-rule="evenodd" clip-rule="evenodd" d="M134.966 169.224H137.842V162.29L143.917 153.023H140.492L136.473 159.476L132.5 153.023H128.892L134.966 162.29V169.224Z" fill="black"/>
</svg>
