<svg id="SvgjsSvg1001" width="288" height="288" xmlns="http://www.w3.org/2000/svg" version="1.1" xmlns:xlink="http://www.w3.org/1999/xlink" xmlns:svgjs="http://svgjs.com/svgjs"><defs id="SvgjsDefs1002"></defs><g id="SvgjsG1008" transform="matrix(0.9167,0,0,0.9167,11.995200000000011,11.995399238204953)"><svg xmlns="http://www.w3.org/2000/svg" enable-background="new 0 0 60.123 60.123" viewBox="0 0 60.123 60.123" width="288" height="288"><path d="M57.124 51.893H16.92c-1.657 0-3-1.343-3-3s1.343-3 3-3h40.203c1.657 0 3 1.343 3 3S58.781 51.893 57.124 51.893zM57.124 33.062H16.92c-1.657 0-3-1.343-3-3s1.343-3 3-3h40.203c1.657 0 3 1.343 3 3C60.124 31.719 58.781 33.062 57.124 33.062zM57.124 14.231H16.92c-1.657 0-3-1.343-3-3s1.343-3 3-3h40.203c1.657 0 3 1.343 3 3S58.781 14.231 57.124 14.231z" fill="#6d7587" class="color000 svgShape"></path><circle cx="4.029" cy="11.463" r="4.029" fill="#6d7587" class="color000 svgShape"></circle><circle cx="4.029" cy="30.062" r="4.029" fill="#6d7587" class="color000 svgShape"></circle><circle cx="4.029" cy="48.661" r="4.029" fill="#6d7587" class="color000 svgShape"></circle></svg></g></svg>