<svg width="28" height="28" viewBox="0 0 28 28" fill="none" xmlns="http://www.w3.org/2000/svg">
<path d="M7.22333 13.0883C8.90333 16.39 11.61 19.085 14.9117 20.7767L17.4783 18.21C17.7933 17.895 18.26 17.79 18.6683 17.93C19.975 18.3617 21.3867 18.595 22.8333 18.595C23.475 18.595 24 19.12 24 19.7617V23.8333C24 24.475 23.475 25 22.8333 25C11.8783 25 3 16.1217 3 5.16667C3 4.525 3.525 4 4.16667 4H8.25C8.89167 4 9.41667 4.525 9.41667 5.16667C9.41667 6.625 9.65 8.025 10.0817 9.33167C10.21 9.74 10.1167 10.195 9.79 10.5217L7.22333 13.0883Z" fill="#6D7587"/>
</svg>
