<?xml version="1.0" encoding="utf-8"?>
<!-- Generator: Adobe Illustrator 22.1.0, SVG Export Plug-In . SVG Version: 6.00 Build 0)  -->
<svg version="1.1" id="Слой_1" xmlns="http://www.w3.org/2000/svg" xmlns:xlink="http://www.w3.org/1999/xlink" x="0px" y="0px"
	 viewBox="0 0 696 443.3" style="enable-background:new 0 0 696 443.3;" xml:space="preserve">
<style type="text/css">
	.st0{fill:#6D7587;}
</style>
<g>
	<path class="st0" d="M217.3,53.6c35.3,21,57.3,51,63,91.7c5.7,40.6-6.9,75.7-34.9,105.4c4.4,4.3,8.9,8.6,13.3,13
		c28.1-26.9,48.4-72.9,40.1-124c-4.1-25.2-14.3-47.6-30.3-67.4c-10.8-13.3-23.7-24.3-38.6-33.1C225.6,44,221.5,48.7,217.3,53.6z"/>
	<path class="st0" d="M120.5,108.5c-3.4,9.1-7.6,43.3-6.1,48.6c6.9,0.5,84.6,0.3,86.6-0.4c-0.5-16.3-2.3-32.4-6.3-48.3
		C169.8,108.5,145.2,108.5,120.5,108.5z"/>
	<path class="st0" d="M200.7,168.6c-2.2-0.5-84.4-0.5-86.6,0.1c0.3,16.3,2.2,32.5,6.3,48.3c25,0,49.6,0,74.1,0
		C197.6,208.4,201.8,175.8,200.7,168.6z"/>
	<path class="st0" d="M109.4,108.4c-0.9,0-1.8,0-2.6,0c-12.9,0-25.9,0.1-38.8-0.1c-2.1,0-3.2,0.7-4.3,2.5c-7.6,14-12,28.9-13.1,44.7
		c0,0.5,0.1,1,0.2,1.5c17.7,0,35.3,0,52.7,0c0.7-8.2,1.1-16.3,2.1-24.3C106.5,124.7,108,116.7,109.4,108.4z"/>
	<path class="st0" d="M211.2,157c5.6,0.5,51.3,0.3,53.2-0.3c-0.9-17.3-5.8-33.4-14.5-48.2c-6.2-0.5-42.6-0.3-44.6,0.3
		C209,124.6,210.7,140.7,211.2,157z"/>
	<path class="st0" d="M50.6,168.4c-0.1,0.5-0.2,0.7-0.1,1c0.3,2.5,0.5,5.1,0.8,7.6c1.8,13.6,6.1,26.4,12.8,38.4
		c0.7,1.3,1.5,1.8,3,1.8c13.5-0.1,27,0,40.6-0.1c0.6,0,1.2-0.1,2-0.2c-3.7-16-5.6-32.1-6-48.5C85.9,168.4,68.3,168.4,50.6,168.4z"/>
	<path class="st0" d="M205.2,217c1.2,0.1,1.9,0.1,2.6,0.1c13.2,0,26.4,0,39.6,0.1c1.9,0,2.8-0.6,3.7-2.2
		c7.4-13.3,11.7-27.6,13.1-42.7c0.1-1.2,0-2.5,0-3.7c-2.8-0.5-51-0.4-53,0.1C210.8,184.8,208.9,200.8,205.2,217z"/>
	<path class="st0" d="M191.4,97.9c-0.2-0.7-0.3-1.3-0.4-1.8c-0.8-2.3-1.6-4.7-2.6-7c-3.2-7.7-7-15.1-12.4-21.5
		c-2.9-3.4-6.1-6.4-10-8.4c-5.5-2.8-11.1-3-16.5-0.1c-2.2,1.2-4.3,2.7-6.3,4.3c-3.6,3.1-6.4,6.9-9,10.9c-4.4,6.9-7.6,14.4-10.3,22.1
		c-0.1,0.4-0.2,0.9-0.3,1.5C146.2,97.9,168.7,97.9,191.4,97.9z"/>
	<path class="st0" d="M191.3,227.5c-22.6,0-45.1,0-68,0c0.8,2.4,1.6,4.5,2.4,6.7c3,7.8,6.7,15.2,11.8,21.9c2.8,3.6,6,6.9,9.9,9.3
		c4.1,2.5,8.5,3.6,13.3,2.7c3.4-0.7,6.4-2.3,9.2-4.5c4.1-3.2,7.3-7.1,10.1-11.4c4.7-7.2,8.2-15,10.9-23.1
		C191.2,228.6,191.2,228.1,191.3,227.5z"/>
	<path class="st0" d="M280.3,395.8c2.1-2.2,4-4.3,5.9-6.3c1.9-2,3.9-4,5.8-6.1c1.8-2,3.9-3.9,5.9-6.4c-3.4,0-6.3,0.1-9.2,0
		c-1.6-0.1-2.7,0.4-3.8,1.6c-4.6,5-9.4,9.9-14,14.8c-0.4,0.4-0.9,0.8-1.8,1.5c0-12.4,0-24.2,0-36.2c-3.5,0-6.6,0-9.7,0
		c-0.5,3.8-0.3,58.8,0.2,60.5c3.2,0.5,7.8,0.3,9.5-0.3c0-1.7,0-3.4,0-5.2c0-1.8,0-3.7,0-5.5c0-1.8-0.1-3.5,0-5.3
		c0.1-1.7-0.4-3.6,0.4-5.5c0.7,0.8,1.2,1.4,1.8,2c5.1,6,10.2,11.9,15.1,18c1.2,1.5,2.5,2.3,4.4,2.1c2.3-0.2,4.6,0,7,0
		c0.7,0,1.4-0.1,2.6-0.2C293.5,411.3,287,403.7,280.3,395.8z"/>
	<path class="st0" d="M242.1,98c0.1-0.2,0.2-0.4,0.3-0.6c-15.6-19.9-35.7-33-60.9-39.1c0.6,0.8,0.9,1.3,1.3,1.7
		c2.6,3.5,5.4,7,7.7,10.7c4.9,7.8,8.2,16.2,11,24.9c0.9,2.7,0.6,2.5,3.5,2.5c11.6,0,23.2,0,34.8,0C240.6,98,241.4,98,242.1,98z"/>
	<path class="st0" d="M132.9,58.6C118,62,104.5,68.3,92.5,77.5c-7.6,5.8-14.3,12.4-20.2,20.3c13.7,0,26.9,0,39.9,0
		c2.9-6.9,5.5-13.8,8.6-20.6C123.8,70.5,128,64.4,132.9,58.6z"/>
	<path class="st0" d="M181.4,267.1c14.2-3.3,26.8-9,38.2-17.1c8.7-6.2,16.4-13.5,23.1-22.4c-13.7,0-27,0-40.4,0
		C197.7,241.9,191.9,255.5,181.4,267.1z"/>
	<path class="st0" d="M133,266.9c-10.1-11.4-15.9-25.1-20.5-39.3c-6.4-0.5-38.3-0.3-40.2,0.3C88.1,247.9,108.2,261,133,266.9z"/>
	<path class="st0" d="M36,377.1c-0.5,2.7-0.4,40.3,0.1,42.1c3.1,0,6.1,0,9.5,0c0-1.1,0-2.1,0-3c0-9.1,0-18.2,0-27.3
		c0-1.6,0.5-2.5,1.9-3.2c3.1-1.6,6.4-2.3,10-2c3.4,0.4,5.7,2.1,6.5,5.5c0.5,2.1,0.7,4.3,0.7,6.4c0.1,7,0,13.9,0,20.9
		c0,0.9,0.1,1.8,0.2,2.9c3.3,0.1,6.4,0.2,9.5-0.1c0.1-0.9,0.2-1.4,0.2-2c0-8.5,0.1-17,0-25.4c0-2.2-0.3-4.5-0.8-6.6
		c-1.1-4.9-4.3-7.9-9.2-8.9c-3.3-0.7-6.7-0.4-10,0.1c-2.1,0.3-3.7,1.2-4.8,3.1c-0.7,1.3-1.7,2.5-2.6,3.7c-0.3,0.4-0.5,0.9-0.8,1.4
		c-0.3-0.1-0.5-0.3-0.8-0.4c0-2.3,0-4.7,0-7.1C42.1,377.1,39.1,377.1,36,377.1z"/>
	<path class="st0" d="M190.1,384.2c0,0.9,0.1,1.6,0.1,2.3c0,7-0.1,13.9-0.1,20.9c0,1.4-0.1,2.7,0.1,4.1c0.5,5,3.7,8.4,8.8,8.9
		c1.9,0.2,3.8,0,5.7-0.1c0.6,0,1.3-0.3,1.7-0.7c1.7-2.1,3.3-4.4,5.1-6.8c-2.1,0.2-3.7,0.5-5.4,0.5c-3.8,0-5.9-2-6.1-5.9
		c0-0.7,0-1.4,0-2.2c0-6.2,0-12.3,0.1-18.5c0-0.8,0.1-1.6,0.2-2.6c3.2,0,6.3,0,9.6,0c0.2-2.6,0.3-4.8-0.1-7.1
		c-3.3-0.3-6.3,0.1-9.5-0.3c0-3.6,0-7.1,0-10.9c-3.4,1.1-6.6,2-9.8,3c0,2.2,0,4.2,0,6.2c0,0.5,0,1.3-0.3,1.5
		c-2.1,1.4-2.8,3.8-4.2,5.7c-0.3,0.4-0.4,0.9-0.7,1.6C187,383.9,188.5,384,190.1,384.2z"/>
	<path class="st0" d="M85.7,384.1c0.1,0.7,0.2,1.1,0.2,1.6c0,6-0.1,12-0.1,18c0,2.8-0.1,5.6,0.2,8.4c0.4,4.3,3.6,7.6,7.9,8.1
		c2.1,0.2,4.3,0.1,6.4,0c0.6,0,1.4-0.3,1.7-0.7c1.7-2.1,3.2-4.3,5.1-6.8c-1.1,0.1-1.6,0.2-2.1,0.2c-1.3,0.1-2.7,0.3-4,0.3
		c-2.9-0.2-4.7-1.9-5.2-4.7c-0.2-1.3-0.3-2.7-0.3-4.1c0-4.9,0.1-9.8,0.1-14.6c0-1.8,0.1-3.6,0.2-5.6c3.2-0.1,6.3-0.2,9.4-0.2
		c0-2.5,0-4.7,0-7.1c-3.2,0-6.2,0-9.4,0c0-3.7,0-7.2,0-11c-3.5,1.1-6.7,2.1-9.8,3.1c0,2.7,0,5.1,0,7.1c-2.5,2.4-3.7,5.1-5.5,7.9
		C82.5,383.9,84.1,384,85.7,384.1z"/>
	<path class="st0" d="M181.6,376.8c-2.1-0.7-5.3-0.9-7.8-0.5c-2.5,0.4-4.6,1.2-5.8,3.6c-0.4,0.9-1.2,1.7-1.8,2.5
		c-0.3,0.4-0.7,0.7-1.5,1.5c0-2.6,0-4.7,0-6.9c-3.5-0.1-6.7-0.1-10,0c0,14.2,0,28.1,0,42.1c3.4,0,6.6,0,10.1,0c0-1,0-1.9,0-2.8
		c0-9.3,0.1-18.6,0-27.8c0-1.7,0.6-2.6,2.1-3.3c4.1-1.7,8.2-2.1,12.3-0.3c0.8,0.3,1.6,0.6,2.4,0.9
		C181.6,382.8,181.6,379.8,181.6,376.8z"/>
	<path class="st0" d="M231.1,263.2c3.9,4.6,7.8,9.3,11.8,14.1c1.2-1,2.2-1.8,3.2-2.7c-1.8-2.6-4.1-4.7-6.1-7.8
		c1.1,0.3,1.7,0.4,2.2,0.5c2.1,0.7,4.3,1.2,6.4,2.1c2,0.9,3.7,0.6,5.1-1.1c0.3-0.3,0.5-0.6,0.9-1c-4-4.8-7.9-9.4-11.8-14.2
		c-1.2,1-2.2,1.8-3.2,2.7c0.8,1,1.5,1.9,2.2,2.8c0.7,0.8,1.3,1.6,2,2.4c0.6,0.8,1.3,1.6,1.9,2.4c-3-0.5-5.7-1.1-8.3-2.3
		c-2.5-1.1-4.2-0.5-5.9,1.4C231.3,262.8,231.2,262.9,231.1,263.2z"/>
	<path class="st0" d="M86,264.4c-3.4,5.4-6.6,10.5-9.9,15.9c4.2,2.6,8.2,5.1,12.4,7.7c0.7-1.2,1.4-2.1,2-3.2
		c-2.9-1.8-5.6-3.6-8.5-5.4c0.8-1.2,1.4-2.2,2.1-3.3c2.6,1.6,5.1,3.1,7.7,4.7c0.7-1.1,1.3-2.1,2-3.2c-2.6-1.7-5.1-3.2-7.6-4.9
		c0.6-0.9,1.1-1.6,1.6-2.5c2.9,1.7,5.5,3.4,8.3,5c0.5-0.7,0.8-1.1,1.1-1.6c0.3-0.5,0.5-1.1,0.8-1.7C94,269.4,90.2,267,86,264.4z"/>
	<path class="st0" d="M111.1,39.6c1.6,4.3,4.8,5.3,7.5,4.7c1.8-0.4,3.7-1.1,5.3-2c2.3-1.3,3.1-3.8,2.4-6.2c-0.7-2.6-2.4-3.9-5.2-4.1
		c-1.6-0.1-3.2,0.1-4.8,0.1c-0.9,0-1.9,0.1-2.5-0.9c1.4-2.6,3.4-2.8,6.1-0.5c1.1-0.4,2.4-0.9,3.6-1.3c-0.8-2.5-1.8-3.5-3.9-4.1
		c-2.8-0.8-7.4,0.7-9.1,3c-2.3,3-0.8,7.3,3,8c1.3,0.3,2.7,0.2,4.1,0.2c0.9,0,1.8-0.2,2.6,0c0.6,0.1,1.6,0.6,1.6,1
		c0.1,0.6-0.3,1.6-0.8,2c-1.5,1.4-3.7,1.2-5.1-0.2c-0.3-0.3-0.5-0.8-0.7-1.2C113.5,38.6,112.4,39,111.1,39.6z"/>
	<path class="st0" d="M74,269.4c-0.6,0.3-1,0.5-1.4,0.7c-1.7,0.8-3,0.6-4.2-0.5c-1.2-1.2-1.6-2.8-0.8-4.4c0.7-1.3,1.7-2.5,2.7-3.6
		c1.5-1.5,3.3-1.8,4.8-1.1c1.7,0.8,2.2,2.2,1.9,4.6c0,0.2,0,0.3,0.1,0.7c1.1,0.6,2.4,1.2,3.6,1.8c1.1-2.3,1.2-3.1,1-4.4
		c-0.6-3.6-4.1-6.8-7.8-7.1c-4.6-0.5-7.5,2.1-9.7,5.7c-2.9,4.9-0.7,10.9,4.7,12.7c2.6,0.9,5.1,0.5,7.4-1.6
		C75.5,271.7,74.8,270.6,74,269.4z"/>
	<path class="st0" d="M173.3,297.3c-0.3,0.9-0.5,1.4-0.7,1.9c-0.6,1.3-1.6,2.1-3.2,2.2c-1.5,0.1-2.7-0.6-3.3-1.9
		c-1.1-2.2-1.4-4.6-0.6-7c0.9-2.8,4.5-3.4,6.4-1.2c0.3,0.4,0.6,0.9,1,1.3c1.4-0.5,2.6-0.9,3.9-1.4c-0.7-2.4-2-3.9-4-4.7
		c-4.6-1.9-11.8,0.4-12.1,7.5c-0.1,1.3,0,2.6,0.2,3.8c0.6,4.2,3.7,7.1,7.9,7.3c4.8,0.3,8.2-2.4,8.6-7.2
		C176.1,297.8,174.8,297.6,173.3,297.3z"/>
	<path class="st0" d="M138.3,285.4c-0.8,6.4-1.4,12.4-1.9,18.5c1.6,0.2,2.9,0.3,4.3,0.4c0.3-2.6,0.6-4.9,0.9-7.4
		c2.6,0.2,4.9,0.4,7.4,0.6c0.2-1.3,0.3-2.3,0.5-3.6c-2.6-0.3-5-0.7-7.6-1c0.2-1.2,0.4-2.2,0.6-3.2c3,0.3,5.6,0.5,8.5,0.8
		c0.1-1.3,0.3-2.4,0.4-3.8C147,286.3,142.8,285.9,138.3,285.4z"/>
	<path class="st0" d="M363.6,288.3c0.2,0,0.3,0.1,0.5,0.1c0,0.8,0.1,1.5,0.1,2.3c0,3.4,0,6.7,0,10.1c0,1.3,0.5,1.8,2,1.1
		c0-5.7,0.1-11.5-0.1-17.3c-1.2,0-2.1,0-3,0c-1.7,4.9-3.4,9.8-5.1,14.7c-0.2,0-0.3,0-0.5,0c-1.7-4.9-3.3-9.8-5-14.6
		c-1.2,0-2.2,0-3.4,0c0,5.9,0,11.7,0,17.6c0.9-0.1,1.4-0.1,2.2-0.1c0-4.6,0-9.1,0-13.6c0.2,0,0.4-0.1,0.5-0.1
		c1.6,4.6,3.2,9.1,4.7,13.6c2.1,0.3,2.1,0.3,2.7-1.4c1.2-3.4,2.3-6.8,3.5-10.2C363,289.7,363.3,289,363.6,288.3z"/>
	<path class="st0" d="M123.6,286.3c1.9,0.5,3.5,0.9,5.2,1.3c0.4-1.4,0.6-2.4,1-3.6c-5-1.5-9.7-2.8-14.6-4.3
		c-0.4,1.3-0.7,2.4-1.1,3.6c1.8,0.6,3.3,1.2,5.1,1.7c-1.4,4.8-2.7,9.3-4.1,14.1c1.5,0.4,2.8,0.8,4.3,1.2
		C120.9,295.5,122.2,291,123.6,286.3z"/>
	<path class="st0" d="M208.3,280.3c-0.5-1.2-0.9-2.3-1.3-3.6c-4.8,1.8-9.4,3.4-14.2,5.2c0.5,1.3,0.9,2.4,1.3,3.5
		c1.8-0.6,3.3-1.1,5-1.6c1.7,4.7,3.4,9.2,5.1,13.8c1.5-0.5,2.8-1,4.2-1.5c-1.7-4.7-3.3-9.2-5-13.8
		C204.9,281.6,206.4,281,208.3,280.3z"/>
	<path class="st0" d="M205.7,47.6c2.3-5.8,4.5-11.5,6.7-17.3c-1.4-0.5-2.4-1.7-3.7-0.8c-1.5,1.1-3.1,1.6-4.9,1.8
		c-1,0.1-1.6,0.5-1.9,1.5c-0.2,0.7-0.4,1.3-0.7,2.2c1.6,0,3,0,4.6,0c-1.4,3.8-2.8,7.4-4.2,11.1C203.1,46.7,204.3,47.1,205.7,47.6z"
		/>
	<path class="st0" d="M100.1,31.3c2.4,5.8,4.8,11.4,7.2,17.2c1.5-0.7,2.7-1.2,4.1-1.8c-2.4-5.8-4.8-11.4-7.2-17.2
		C102.7,30.1,101.5,30.7,100.1,31.3z"/>
	<path class="st0" d="M131.3,284c-1.2,6.2-2.4,12.2-3.6,18.4c1.6,0.3,2.9,0.5,4.4,0.8c1.2-6.2,2.4-12.1,3.6-18.2
		C134.2,284.7,133,284.4,131.3,284z"/>
	<path class="st0" d="M216.2,292.8c1.5-0.7,2.7-1.2,4.1-1.9c-2.7-5.7-5.3-11.2-8-16.9c-1.5,0.7-2.7,1.4-4,2
		C210.9,281.7,213.5,287.1,216.2,292.8z"/>
	<path class="st0" d="M153.5,305.2c1.4,0,2.8,0,4.4,0c0-6.2,0-12.1,0-18.2c-1.4-0.3-2.8-0.5-4.4,0.1
		C153.5,293.1,153.5,299,153.5,305.2z"/>
	<path class="st0" d="M338.2,302.1c2.1,0,2.1,0,2.2-1.6c0-3.8,0-7.7,0-11.5c0-0.8,0.1-1.7,0.2-2.7c2,0,3.9,0,5.7,0
		c0-0.7,0-1.1,0-1.7c-4.7,0-9.3,0-14,0c0,0.6,0,1,0,1.8c1.9,0,3.8,0,5.9,0C338.2,291.7,338.2,296.8,338.2,302.1z"/>
	<path class="st0" d="M13.8,156.8c0.3-1.8,0.8-3.6,0.9-5.4C19,106,40,70.4,77.1,44.2c2.5-1.8,5.2-3.4,8.1-5.2
		c4.2,4.9,8.4,9.7,12.6,14.5c-35.4,20.9-57.5,51-63.3,91.8c-5.7,40.6,6.8,75.7,35.3,105.8c-4.4,4.2-8.9,8.5-13.5,12.9
		c-0.5-0.4-1-0.8-1.4-1.2c-20.4-21.2-33.4-46.2-38.5-75.2c-0.9-5.3-1.3-10.6-2-15.9c-0.1-0.9-0.4-1.8-0.6-2.8
		C13.8,164.8,13.8,160.8,13.8,156.8z"/>
	<path class="st0" d="M677.7,386.7c-90.8,0-181.6,0-272.4,0c-3.4,0-6.9,0-10.3,0c-0.8,0-1.6,0-2.5,0c0-123.1,0-246,0-369.1
		c1,0,1.7,0,2.5,0c94.1,0,188.1,0,282.2,0c0.2,0,0.3,0,0.5,0C677.7,140.6,677.7,263.6,677.7,386.7z M675.2,20.3
		c-1.4-0.1-2.8-0.1-4.1-0.1c-86.9,0-173.7,0-260.6,0c-4.3,0-8.6,0-13,0c-0.8,0-1.7,0.1-2.4,0.2c-0.5,4-0.3,361.7,0.1,363.5
		c0.1,0.1,0.3,0.2,0.4,0.2c0.3,0.1,0.6,0.1,0.9,0.1c92.2,0,184.4,0,276.7,0c0.5,0,0.9-0.1,1.4-0.2c0.1,0,0.1-0.1,0.2-0.1
		c0.1,0,0.1-0.1,0.3-0.2C675.2,262.7,675.2,141.6,675.2,20.3z"/>
	<path class="st0" d="M13.8,327.6c1,0,1.9,0,2.9,0c93.4,0,186.7,0,280.1,0c1.2,0,2.4,0,3.7,0c0,2.4,0,4.5,0,6.8c-1,0-1.9,0-2.8,0
		c-93.9,0-187.8,0-281.7,0c-0.7,0-1.4-0.1-2.2-0.1C13.8,332.1,13.8,329.9,13.8,327.6z"/>
	<path class="st0" d="M13.8,358.4c2.8,0.1,5.6,0.1,8.4,0.2c0.9,0,1.9,0,2.8,0c0.6,1.9,0.8,57.4,0.2,60.6c-1.8,0.6-3.7,0.2-5.6,0.3
		c-1.9,0-3.8,0-5.8-0.1C13.8,399,13.8,378.7,13.8,358.4z"/>
	<path class="st0" d="M217.3,53.6c4.2-4.9,8.3-9.6,12.6-14.4c14.9,8.8,27.7,19.8,38.6,33.1c16.1,19.8,26.3,42.3,30.3,67.4
		c8.3,51.1-12,97.1-40.1,124c-4.4-4.3-8.9-8.7-13.3-13c28-29.7,40.7-64.8,34.9-105.4C274.5,104.6,252.5,74.6,217.3,53.6z"/>
	<path class="st0" d="M120.5,108.5c24.7,0,49.3,0,74.1,0c4.1,15.9,5.9,32,6.3,48.3c-1.9,0.6-79.7,0.9-86.6,0.4
		C112.9,151.8,117.1,117.6,120.5,108.5z"/>
	<path class="st0" d="M200.7,168.6c1.1,7.2-3.1,39.9-6.3,48.4c-24.5,0-49.1,0-74.1,0c-4-15.8-6-31.9-6.3-48.3
		C116.2,168.1,198.5,168,200.7,168.6z"/>
	<path class="st0" d="M109.4,108.4c-1.3,8.3-2.9,16.3-3.9,24.4c-1,8-1.4,16.1-2.1,24.3c-17.5,0-35,0-52.7,0c-0.1-0.5-0.2-1-0.2-1.5
		c1.2-15.8,5.5-30.7,13.1-44.7c1-1.9,2.1-2.5,4.3-2.5c12.9,0.1,25.9,0.1,38.8,0.1C107.6,108.4,108.5,108.4,109.4,108.4z"/>
	<path class="st0" d="M211.2,157c-0.5-16.3-2.2-32.4-6-48.2c2-0.6,38.4-0.8,44.6-0.3c8.7,14.9,13.6,31,14.5,48.2
		C262.5,157.3,216.9,157.6,211.2,157z"/>
	<path class="st0" d="M50.6,168.4c17.7,0,35.3,0,53.1,0c0.4,16.4,2.2,32.5,6,48.5c-0.8,0.1-1.4,0.2-2,0.2c-13.5,0-27,0-40.6,0.1
		c-1.5,0-2.3-0.5-3-1.8c-6.7-12-11.1-24.8-12.8-38.4c-0.3-2.5-0.5-5.1-0.8-7.6C50.5,169.1,50.6,168.9,50.6,168.4z"/>
	<path class="st0" d="M205.2,217c3.7-16.1,5.6-32.2,6-48.3c2-0.5,50.1-0.6,53-0.1c0,1.2,0.1,2.5,0,3.7c-1.4,15.2-5.8,29.4-13.1,42.7
		c-0.9,1.6-1.8,2.2-3.7,2.2c-13.2-0.1-26.4-0.1-39.6-0.1C207.1,217.1,206.4,217,205.2,217z"/>
	<path class="st0" d="M191.4,97.9c-22.7,0-45.2,0-67.9,0c0.1-0.6,0.2-1,0.3-1.5c2.6-7.7,5.9-15.2,10.3-22.1c2.5-4,5.3-7.8,9-10.9
		c1.9-1.6,4-3.2,6.3-4.3c5.5-2.9,11.1-2.7,16.5,0.1c4,2.1,7.2,5,10,8.4c5.4,6.4,9.2,13.8,12.4,21.5c1,2.3,1.8,4.6,2.6,7
		C191.1,96.6,191.2,97.1,191.4,97.9z"/>
	<path class="st0" d="M191.3,227.5c-0.1,0.6-0.2,1.1-0.3,1.5c-2.7,8.1-6.2,15.9-10.9,23.1c-2.8,4.3-6.1,8.2-10.1,11.4
		c-2.7,2.1-5.7,3.8-9.2,4.5c-4.8,1-9.2-0.2-13.3-2.7c-3.9-2.4-7.1-5.6-9.9-9.3c-5.1-6.6-8.8-14.1-11.8-21.9
		c-0.8-2.1-1.6-4.3-2.4-6.7C146.2,227.5,168.7,227.5,191.3,227.5z"/>
	<path class="st0" d="M280.3,395.8c6.7,7.9,13.2,15.5,20,23.5c-1.2,0.1-1.9,0.2-2.6,0.2c-2.3,0-4.6-0.1-7,0c-2,0.1-3.2-0.6-4.4-2.1
		c-5-6.1-10.1-12-15.1-18c-0.5-0.6-1.1-1.2-1.8-2c-0.8,1.9-0.3,3.8-0.4,5.5c-0.1,1.8,0,3.5,0,5.3c0,1.8,0,3.7,0,5.5
		c0,1.8,0,3.5,0,5.2c-1.7,0.7-6.3,0.8-9.5,0.3c-0.5-1.7-0.7-56.6-0.2-60.5c3.1,0,6.3,0,9.7,0c0,11.9,0,23.8,0,36.2
		c0.9-0.8,1.4-1.1,1.8-1.5c4.7-4.9,9.4-9.8,14-14.8c1.1-1.2,2.2-1.6,3.8-1.6c2.9,0.1,5.7,0,9.2,0c-2,2.5-4,4.4-5.9,6.4
		c-1.9,2.1-3.8,4.1-5.8,6.1C284.3,391.5,282.4,393.5,280.3,395.8z"/>
	<path class="st0" d="M242.1,98c-0.8,0-1.6,0-2.4,0c-11.6,0-23.2,0-34.8,0c-2.9,0-2.6,0.3-3.5-2.5c-2.8-8.7-6.2-17.2-11-24.9
		c-2.3-3.7-5.1-7.1-7.7-10.7c-0.3-0.4-0.6-0.8-1.3-1.7c25.2,6.2,45.3,19.2,60.9,39.1C242.3,97.6,242.2,97.8,242.1,98z"/>
	<path class="st0" d="M132.9,58.6c-4.9,5.7-9.1,11.9-12.2,18.7c-3.1,6.7-5.7,13.6-8.6,20.6c-13,0-26.2,0-39.9,0
		c6-8,12.7-14.6,20.2-20.3C104.5,68.3,118,62,132.9,58.6z"/>
	<path class="st0" d="M181.4,267.1c10.6-11.7,16.3-25.3,21-39.6c13.4,0,26.7,0,40.4,0c-6.7,8.9-14.4,16.2-23.1,22.4
		C208.1,258.1,195.6,263.8,181.4,267.1z"/>
	<path class="st0" d="M133,266.9c-24.8-5.9-44.9-19-60.7-39c1.9-0.6,33.8-0.8,40.2-0.3C117.1,241.7,122.9,255.4,133,266.9z"/>
	<path class="st0" d="M252.6,398.7c-9.6,0-19,0-28.4,0c-0.7,5.6,2.3,10.9,7.2,13.1c4.1,1.8,8.4,1.8,12.7,1c2.2-0.4,4.3-1,6.9-1.7
		c-1.5,2.7-2.8,5-4.3,7.3c-0.3,0.5-1,0.8-1.6,0.9c-6.2,1.4-12.4,1.7-18.4-0.4c-6.6-2.2-10.9-6.8-12.7-13.6c-1.6-5.9-1.3-11.7,1-17.4
		c3.8-9.5,12.7-13.2,21.4-12.1c9.9,1.3,14.8,8,15.9,16.5c0.2,1.6,0.3,3.2,0.4,4.8C252.7,397.6,252.7,398,252.6,398.7z M224.2,392.4
		c6.1,0,12.1,0,18,0c0.9-5.6-3.7-10.4-9.2-9.8C228.2,383.1,224.8,386.8,224.2,392.4z"/>
	<path class="st0" d="M148.1,398.7c-4.9,0-9.7,0-14.4,0c-4.7,0-9.4,0-14,0c-0.6,5.6,2.4,10.9,7.3,13.2c4,1.8,8.2,1.8,12.5,1.1
		c2.2-0.3,4.3-1,6.8-1.7c-0.2,0.6-0.3,1.1-0.6,1.5c-0.9,1.7-1.9,3.3-2.9,5c-0.5,0.9-1.1,1.5-2.1,1.7c-5.8,1.2-11.6,1.5-17.3-0.1
		c-8.2-2.4-12.9-8-14.2-16.3c-0.8-4.9-0.5-9.9,1.4-14.6c3.8-9.5,12.1-13.3,20.8-12.5c10,1,15.9,7.3,16.8,17.7
		C148.2,395.1,148.1,396.7,148.1,398.7z M138,392.4c0.2-5.5-3.2-10-9-9.8c-5,0.1-9.5,5.1-9,9.8C126,392.4,131.9,392.4,138,392.4z"/>
	<path class="st0" d="M36,377.1c3.1,0,6.2,0,9.5,0c0,2.5,0,4.8,0,7.1c0.3,0.1,0.5,0.3,0.8,0.4c0.3-0.5,0.5-1,0.8-1.4
		c0.9-1.3,1.9-2.4,2.6-3.7c1.1-1.9,2.6-2.8,4.8-3.1c3.3-0.5,6.7-0.8,10-0.1c5,1,8.1,4,9.2,8.9c0.5,2.2,0.7,4.4,0.8,6.6
		c0.1,8.5,0,17,0,25.4c0,0.6-0.1,1.1-0.2,2c-3.1,0.3-6.2,0.1-9.5,0.1c-0.1-1.1-0.2-2-0.2-2.9c0-7,0-13.9,0-20.9
		c0-2.1-0.2-4.3-0.7-6.4c-0.8-3.3-3.1-5.1-6.5-5.5c-3.5-0.4-6.8,0.3-10,2c-1.4,0.7-1.9,1.6-1.9,3.2c0.1,9.1,0,18.2,0,27.3
		c0,0.9,0,1.9,0,3c-3.3,0-6.4,0-9.5,0C35.5,417.4,35.4,379.8,36,377.1z"/>
	<path class="st0" d="M190.1,384.2c-1.6-0.1-3.1-0.2-4.8-0.3c0.3-0.6,0.4-1.2,0.7-1.6c1.4-1.9,2-4.3,4.2-5.7c0.3-0.2,0.3-1,0.3-1.5
		c0-2,0-4,0-6.2c3.2-1,6.4-2,9.8-3c0,3.8,0,7.2,0,10.9c3.2,0.5,6.2,0,9.5,0.3c0.4,2.3,0.3,4.5,0.1,7.1c-3.3,0-6.3,0-9.6,0
		c-0.1,1.1-0.2,1.9-0.2,2.6c0,6.2-0.1,12.3-0.1,18.5c0,0.7,0,1.4,0,2.2c0.2,3.8,2.3,5.9,6.1,5.9c1.7,0,3.3-0.3,5.4-0.5
		c-1.8,2.4-3.4,4.6-5.1,6.8c-0.3,0.4-1.1,0.7-1.7,0.7c-1.9,0.1-3.8,0.3-5.7,0.1c-5-0.5-8.3-3.9-8.8-8.9c-0.1-1.3-0.1-2.7-0.1-4.1
		c0-7,0.1-13.9,0.1-20.9C190.2,385.7,190.1,385,190.1,384.2z"/>
	<path class="st0" d="M85.7,384.1c-1.6-0.1-3.2-0.2-5.2-0.3c1.8-2.8,3-5.5,5.5-7.9c0-2,0-4.4,0-7.1c3.2-1,6.3-2,9.8-3.1
		c0,3.8,0,7.3,0,11c3.3,0,6.3,0,9.4,0c0,2.5,0,4.6,0,7.1c-3.1,0.1-6.2,0.2-9.4,0.2c-0.1,2-0.2,3.8-0.2,5.6
		c-0.1,4.9-0.1,9.8-0.1,14.6c0,1.4,0.1,2.7,0.3,4.1c0.4,2.8,2.3,4.6,5.2,4.7c1.3,0.1,2.7-0.2,4-0.3c0.5,0,1.1-0.1,2.1-0.2
		c-1.9,2.5-3.4,4.7-5.1,6.8c-0.3,0.4-1.1,0.7-1.7,0.7c-2.1,0.1-4.3,0.3-6.4,0c-4.3-0.5-7.5-3.8-7.9-8.1c-0.3-2.8-0.2-5.6-0.2-8.4
		c0-6,0.1-12,0.1-18C85.9,385.3,85.8,384.8,85.7,384.1z"/>
	<path class="st0" d="M181.6,376.8c0,3,0,6,0,9.2c-0.9-0.3-1.7-0.5-2.4-0.9c-4.2-1.8-8.2-1.5-12.3,0.3c-1.5,0.6-2.1,1.5-2.1,3.3
		c0.1,9.3,0,18.6,0,27.8c0,0.9,0,1.7,0,2.8c-3.5,0-6.7,0-10.1,0c0-14,0-27.9,0-42.1c3.3-0.2,6.5-0.1,10,0c0,2.2,0,4.3,0,6.9
		c0.8-0.8,1.2-1.1,1.5-1.5c0.6-0.8,1.3-1.6,1.8-2.5c1.2-2.5,3.3-3.3,5.8-3.6C176.4,375.9,179.5,376,181.6,376.8z"/>
	<path class="st0" d="M231.1,263.2c0.2-0.3,0.2-0.5,0.3-0.6c1.6-1.9,3.4-2.5,5.9-1.4c2.5,1.1,5.3,1.8,8.3,2.3
		c-0.6-0.8-1.2-1.6-1.9-2.4c-0.6-0.8-1.3-1.6-2-2.4c-0.7-0.9-1.4-1.7-2.2-2.8c1-0.9,2-1.7,3.2-2.7c4,4.8,7.9,9.4,11.8,14.2
		c-0.4,0.4-0.7,0.7-0.9,1c-1.4,1.7-3,1.9-5.1,1.1c-2.1-0.9-4.2-1.4-6.4-2.1c-0.5-0.2-1-0.2-2.2-0.5c2,3,4.3,5.1,6.1,7.8
		c-1,0.8-2,1.7-3.2,2.7C238.9,272.6,235,267.9,231.1,263.2z"/>
	<path class="st0" d="M145.8,30.4c0,5.6-3,8.8-8.4,9.5c-4.6,0.6-8.6-2.1-9.6-6.7c-0.4-1.6-0.6-3.4-0.4-5c0.8-5.3,4.6-7.5,9.5-7.6
		c4.5-0.1,7.9,3,8.7,7.7C145.8,29.2,145.8,30.1,145.8,30.4z M141.3,30.9c-0.2-1-0.3-2.1-0.6-3c-0.8-2.6-2.6-3.6-5.1-3.2
		c-2.3,0.4-3.8,2.1-3.8,4.8c0,0.9,0.2,1.9,0.4,2.8c0.8,2.7,2.8,4,5.3,3.6C139.9,35.5,141.2,33.7,141.3,30.9z"/>
	<path class="st0" d="M236.1,277.4c0.2,5.5-5.4,9.1-9.6,9.1c-4.9,0-9.5-5.1-9.6-10.5c0-5.5,5.3-9,9.6-9.1
		C231.5,266.9,236.1,272,236.1,277.4z M221.5,276.2c0.3,2,1.4,4.2,3.7,5.5c1.5,0.9,3.1,0.7,4.5-0.2c1.4-0.9,2.2-2.3,2-4.1
		c-0.3-2.2-1.4-4-3.2-5.4c-1.4-1.1-3-1.1-4.5-0.3C222.4,272.5,221.4,273.8,221.5,276.2z"/>
	<path class="st0" d="M86,264.4c4.1,2.6,8,5,12,7.5c-0.3,0.6-0.5,1.2-0.8,1.7c-0.3,0.5-0.6,0.9-1.1,1.6c-2.7-1.7-5.4-3.3-8.3-5
		c-0.6,0.9-1,1.6-1.6,2.5c2.6,1.6,5,3.2,7.6,4.9c-0.7,1.1-1.3,2.1-2,3.2c-2.6-1.6-5.1-3.1-7.7-4.7c-0.7,1.1-1.3,2.1-2.1,3.3
		c2.9,1.8,5.6,3.6,8.5,5.4c-0.7,1.1-1.3,2.1-2,3.2c-4.2-2.6-8.3-5.1-12.4-7.7C79.5,274.9,82.7,269.8,86,264.4z"/>
	<path class="st0" d="M111.1,39.6c1.3-0.5,2.4-1,4-1.6c0.2,0.4,0.4,0.8,0.7,1.2c1.4,1.5,3.6,1.6,5.1,0.2c0.5-0.5,0.9-1.4,0.8-2
		c-0.1-0.4-1-0.9-1.6-1c-0.8-0.2-1.7,0.1-2.6,0c-1.4,0-2.7,0.1-4.1-0.2c-3.8-0.7-5.3-5.1-3-8c1.8-2.3,6.4-3.8,9.1-3
		c2.1,0.6,3,1.6,3.9,4.1c-1.2,0.4-2.5,0.9-3.6,1.3c-2.7-2.3-4.7-2.1-6.1,0.5c0.5,1,1.6,0.9,2.5,0.9c1.6,0,3.2-0.1,4.8-0.1
		c2.9,0.2,4.5,1.5,5.2,4.1c0.7,2.4-0.1,4.9-2.4,6.2c-1.6,0.9-3.5,1.6-5.3,2C115.9,44.9,112.6,43.9,111.1,39.6z"/>
	<path class="st0" d="M199.5,299.5c-1.9,0.4-3.3,0.7-4.7,1.1c-0.6-0.8-1.2-1.5-1.6-2.2c-0.6-1-1.4-1.2-2.4-0.9
		c-1.5,0.4-3.3,0.3-4.3,1.2c-0.9,0.8-1,2.7-1.6,4.3c-1.2,0.2-2.5,0.5-4.3,0.9c1-6.7,2-13.1,2.9-19.7c1.4-0.4,2.7-0.7,4.3-1.2
		C191.6,288.4,195.4,293.7,199.5,299.5z M187.4,290c-0.2,0.1-0.4,0.1-0.6,0.2c-0.1,1.3-0.2,2.5-0.4,4.2c1.3-0.3,2.2-0.5,3.4-0.8
		C188.9,292.2,188.1,291.1,187.4,290z"/>
	<path class="st0" d="M155.5,33.1c1.4-0.1,2.6-0.2,3.8-0.2c0.2,0.9,1,2.3,2.5,1.8c1.3-0.4,1.6-1.5,1.6-2.8c-0.7,0.1-1.4,0.2-2,0.1
		c-1.2-0.2-2.4-0.3-3.4-0.9c-2.3-1.3-3.1-4.3-2.4-7.2c0.6-2.3,2.6-4.1,4.9-4.4c3.1-0.4,5.6,0.8,6.8,3.4c1.3,2.6,1.2,5.4,0.8,8.2
		c-0.1,1.1-0.4,2.2-0.8,3.2c-1.4,3.3-4.9,4.9-8.3,3.7C156.7,37.3,155.7,35.6,155.5,33.1z M159.6,26.2c0,0.2,0.1,0.7,0.2,1.2
		c0.3,0.8,0.8,1.3,1.7,1.3c0.9,0,1.5-0.5,1.8-1.3c0.2-0.4,0.2-0.9,0.2-1.4c0-1.6-0.9-2.7-2-2.8C160.4,23.1,159.6,24.2,159.6,26.2z"
		/>
	<path class="st0" d="M74,269.4c0.8,1.2,1.5,2.3,2.3,3.5c-2.2,2.1-4.7,2.5-7.4,1.6c-5.4-1.8-7.7-7.8-4.7-12.7
		c2.2-3.6,5.1-6.2,9.7-5.7c3.7,0.4,7.1,3.5,7.8,7.1c0.2,1.3,0.1,2.1-1,4.4c-1.2-0.6-2.5-1.2-3.6-1.8c0-0.4-0.1-0.5-0.1-0.7
		c0.4-2.5-0.2-3.8-1.9-4.6c-1.5-0.8-3.3-0.5-4.8,1.1c-1,1.1-2,2.3-2.7,3.6c-0.9,1.6-0.5,3.2,0.8,4.4c1.2,1.1,2.4,1.3,4.2,0.5
		C73,269.9,73.5,269.7,74,269.4z"/>
	<path class="st0" d="M173.3,297.3c1.5,0.3,2.8,0.6,4,0.8c-0.4,4.7-3.8,7.5-8.6,7.2c-4.2-0.3-7.3-3.1-7.9-7.3
		c-0.2-1.3-0.2-2.5-0.2-3.8c0.4-7.2,7.5-9.4,12.1-7.5c2,0.8,3.4,2.3,4,4.7c-1.3,0.5-2.6,0.9-3.9,1.4c-0.4-0.5-0.6-0.9-1-1.3
		c-1.9-2.2-5.5-1.6-6.4,1.2c-0.8,2.4-0.5,4.8,0.6,7c0.6,1.3,1.8,2,3.3,1.9c1.5-0.1,2.5-0.8,3.2-2.2
		C172.8,298.7,173,298.1,173.3,297.3z"/>
	<path class="st0" d="M198.2,30.5c-0.1,3.1-0.9,6-2.4,8.7c-1.6,2.9-4.1,4-7,3.2c-2.6-0.8-4.2-2.9-4.1-6c0-3.5,0.9-6.8,2.8-9.8
		c1.9-3,5.5-3.7,8.4-1.7C197.8,26.2,198.3,28.2,198.2,30.5z M193.6,31.2c-0.1,0,0.4-1.2,0.3-1.2c0-0.4,0.1-0.8-0.1-1.2
		c-0.2-0.5-0.6-1-1-1.1c-0.4-0.1-1,0.2-1.4,0.5c-0.3,0.3-0.6,0.8-0.7,1.2c-0.6,2.1-1.2,4.3-1.7,6.4c-0.1,0.5-0.1,1.2,0,1.6
		c0.2,0.5,0.6,1,1,1.1c0.4,0.1,1-0.3,1.4-0.5c0.2-0.1,0.4-0.5,0.5-0.8C192.7,34.9,192.9,33.6,193.6,31.2z"/>
	<path class="st0" d="M183.3,28.1c-0.1,3.1-0.4,5.7-1.6,8.1c-1.3,2.8-3.4,3.8-6.4,3.4c-2.6-0.4-4.5-2.4-4.8-5.2
		c-0.3-3.4,0.1-6.7,1.5-9.8c0.9-2,2.2-3.5,4.6-3.7c3.8-0.3,6.3,1.7,6.7,5.5C183.3,27.1,183.3,27.9,183.3,28.1z M178.9,28.8
		c-0.1,0,0.2-0.9,0.1-1c0-0.5,0-1,0-1.4c-0.1-0.8-0.3-1.6-1.2-1.8c-1-0.2-1.6,0.5-1.7,1.3c-0.5,2.7-0.9,5.5-1.2,8.2
		c-0.1,0.7,0.2,1.6,1.2,1.8c1.1,0.2,1.6-0.6,1.8-1.5C178.4,32.3,178.5,31,178.9,28.8z"/>
	<path class="st0" d="M138.3,285.4c4.5,0.5,8.7,0.9,13.1,1.4c-0.1,1.3-0.3,2.5-0.4,3.8c-2.9-0.3-5.5-0.5-8.5-0.8
		c-0.2,1-0.4,2-0.6,3.2c2.6,0.3,5,0.7,7.6,1c-0.2,1.3-0.3,2.4-0.5,3.6c-2.5-0.2-4.8-0.4-7.4-0.6c-0.3,2.4-0.6,4.8-0.9,7.4
		c-1.4-0.1-2.7-0.3-4.3-0.4C136.9,297.8,137.5,291.8,138.3,285.4z"/>
	<path class="st0" d="M363.6,288.3c-0.3,0.7-0.6,1.4-0.8,2.1c-1.2,3.4-2.3,6.8-3.5,10.2c-0.6,1.7-0.6,1.7-2.7,1.4
		c-1.6-4.5-3.2-9-4.7-13.6c-0.2,0-0.4,0.1-0.5,0.1c0,4.5,0,9,0,13.6c-0.8,0-1.3,0.1-2.2,0.1c-0.1-5.9,0-11.7,0-17.6
		c1.3,0,2.3,0,3.4,0c1.7,4.9,3.3,9.8,5,14.6c0.2,0,0.3,0,0.5,0c1.7-4.9,3.4-9.7,5.1-14.7c1,0,1.8,0,3,0c0.1,5.8,0,11.6,0.1,17.3
		c-1.5,0.7-2,0.2-2-1.1c0-3.4,0-6.7,0-10.1c0-0.8-0.1-1.5-0.1-2.3C363.9,288.4,363.7,288.4,363.6,288.3z"/>
	<path class="st0" d="M123.6,286.3c-1.4,4.7-2.7,9.2-4.2,14c-1.5-0.4-2.8-0.8-4.3-1.2c1.4-4.8,2.7-9.3,4.1-14.1
		c-1.7-0.6-3.3-1.1-5.1-1.7c0.4-1.2,0.7-2.3,1.1-3.6c4.9,1.4,9.6,2.8,14.6,4.3c-0.3,1.2-0.6,2.2-1,3.6
		C127.2,287.2,125.5,286.7,123.6,286.3z"/>
	<path class="st0" d="M208.3,280.3c-1.9,0.7-3.3,1.3-4.9,2c1.7,4.7,3.3,9.1,5,13.8c-1.4,0.5-2.7,0.9-4.2,1.5
		c-1.7-4.6-3.3-9.1-5.1-13.8c-1.7,0.5-3.2,1.1-5,1.6c-0.4-1.1-0.8-2.2-1.3-3.5c4.8-1.8,9.4-3.4,14.2-5.2
		C207.4,278,207.8,279,208.3,280.3z"/>
	<path class="st0" d="M205.7,47.6c-1.4-0.5-2.6-0.9-4-1.5c1.4-3.7,2.8-7.4,4.2-11.1c-1.6,0-3,0-4.6,0c0.3-0.8,0.5-1.5,0.7-2.2
		c0.2-1,0.8-1.4,1.9-1.5c1.8-0.2,3.4-0.7,4.9-1.8c1.3-0.9,2.3,0.3,3.7,0.8C210.1,36.1,207.9,41.8,205.7,47.6z"/>
	<path class="st0" d="M100.1,31.3c1.4-0.6,2.6-1.2,4.1-1.8c2.4,5.8,4.8,11.4,7.2,17.2c-1.4,0.6-2.6,1.1-4.1,1.8
		C104.8,42.7,102.5,37.1,100.1,31.3z"/>
	<path class="st0" d="M131.3,284c1.7,0.4,2.9,0.6,4.4,1c-1.2,6.1-2.3,12-3.6,18.2c-1.5-0.3-2.8-0.5-4.4-0.8
		C128.9,296.2,130.1,290.2,131.3,284z"/>
	<path class="st0" d="M216.2,292.8c-2.7-5.7-5.2-11.1-7.9-16.8c1.3-0.7,2.5-1.3,4-2c2.7,5.7,5.3,11.2,8,16.9
		C218.9,291.6,217.7,292.1,216.2,292.8z"/>
	<path class="st0" d="M153.5,305.2c0-6.2,0-12.1,0-18.1c1.6-0.6,3-0.4,4.4-0.1c0,6.1,0,12,0,18.2
		C156.3,305.2,154.9,305.2,153.5,305.2z"/>
	<path class="st0" d="M338.2,302.1c0-5.3,0-10.3,0-15.7c-2.1,0-4,0-5.9,0c0-0.8,0-1.2,0-1.8c4.7,0,9.3,0,14,0c0,0.6,0,1,0,1.7
		c-1.8,0-3.6,0-5.7,0c-0.1,1.1-0.2,1.9-0.2,2.7c0,3.8,0,7.7,0,11.5C340.3,302.1,340.3,302.1,338.2,302.1z"/>
	<path class="st0" d="M527.4,254.9c-2.4-2.7-4.6-5.1-6.8-7.5c-6.2-6.9-12.3-13.8-18.5-20.7c-4.4-4.9-8.8-9.9-13.2-14.8
		c-0.8-0.9-1.3-1.7-1.3-2.9c0-17.9,0-35.8,0-53.7c0-0.2,0.1-0.5,0.1-0.7c1.3,0.7,7.5,8.6,13.3,16.6c4.2,5.8,8.7,11.5,13,17.2
		c4.3,5.7,8.7,11.4,13.3,17.4c9-12.3,17.4-24.7,26.1-36.8c8.7-12.2,17.3-24.5,25.9-36.8c8.6-12.2,17.2-24.5,25.8-36.7
		c0.2,0.1,0.3,0.1,0.5,0.2c0.1,2.4,0.2,4.9,0.3,7.3c0.2,10.9,0.4,21.7,0.6,32.6c0,1.4-0.3,2.4-1.1,3.6c-7,10.3-14,20.6-20.9,30.9
		c-5.7,8.5-11.4,17-17.1,25.4c-6.8,10.1-13.6,20.1-20.4,30.2C540.6,235.2,534.1,244.9,527.4,254.9z"/>
	<path class="st0" d="M491.6,71c1.4-1.6,2.9-3.2,4.3-4.9c0,0-0.1,0.1-0.1,0.1c1.7-0.8,3.4-1.5,5.1-2.3c-1.4-0.8-2.7-1.5-3-3
		c-0.1-0.7,0-1.6,0.4-2.3c0.7-1.4,2.8-1.8,4.2-0.9c1.6,1,1.7,2.8,0.1,5.5c4.1-0.8,7.9-0.3,12,1.2c-0.2-0.8-0.3-1.3-0.4-1.8
		c-0.3-1.7,0.3-3.1,1.6-3.6c1.5-0.6,3.2,0,3.9,1.3c0.8,1.5,0.3,3.1-1.2,4.1c-0.3,0.2-0.7,0.3-1.3,0.6c2.3,1.4,4.5,2.3,7,2.5
		l-0.1-0.1c1.3,0.8,2.8,1.1,4.6,0.8c0.1-1.2,0.2-2.4,0.4-3.8c0.4-0.2,0.9-0.4,1.6-0.7c-0.3-0.3-0.5-0.6-0.8-0.9
		c-2.7-2.7-3.3-6.6-1.5-9.9c0.5-0.9,1.3-1.8,2.2-2.5c2.3-1.8,3-4.2,3-7c-1.7-0.6-2.9,0.8-4.5,0.8c0-1.9,0-3.9,0-6.1
		c1.5,0.5,2.9,0.9,4.3,1.4c0.9-2.2-0.6-3.5-1.1-5.1c1.5-0.7,3.9-0.8,6.1-0.1c-0.3,1.6-1.9,3-1.1,5.2c1.4-0.5,2.7-0.9,4.2-1.4
		c0,2.1,0,4,0,6.1c-1.4-0.4-2.7-0.8-4.4-1.2c0.1,3.1,0.6,5.7,3.1,7.5c2.3,1.6,3.1,3.9,3.1,6.6c0,1.9-0.7,3.6-2,5
		c-0.4,0.5-0.8,0.9-1.4,1.5c0.6,0.3,1.1,0.5,1.7,0.7c0.1,1.2,0.2,2.4,0.3,3.8c1.8,0.3,3.4-0.1,4.9-0.9l-0.1,0.1
		c2.4-0.2,4.5-1.3,6.7-2.3c-2.6-1.7-3.3-3.2-2.6-4.8c0.6-1.3,2.3-2,3.9-1.5c1.6,0.5,2,1.8,1.5,5.2c3.9-1.1,7.7-2.1,11.8-0.9
		c-0.4-1.1-0.9-2.1-1-3.1c-0.2-1.2,0.3-2.2,1.5-2.7c1.6-0.7,3.6,0,4.2,1.5c0.8,2-0.1,3.4-3.2,4.6c1.5,0.8,2.9,1.5,4.6,2.5
		c-0.5-1.8-0.9-3.4,0.3-4.5c0.5-0.5,1.4-0.9,2.1-1c1.7-0.2,3.2,1.6,3.1,3.2c-0.1,2.1-1.8,3.1-4.8,2.9c1.6,1.6,3.1,3.2,4.5,4.7
		c0,0-0.1-0.1-0.1-0.1c0.5,1.2,0.9,2.4,1.4,3.5c1.6,4.4,1.2,8.8-0.2,13.2c-0.2,0.6-0.3,1.2-0.5,1.9c3.3-1.7,5-1.5,5.9,0.5
		c0.9,2-0.1,3.7-3.1,4.8c1.2,1.8,0.3,3.4-0.4,5c-2,5-3.9,10.1-6.1,15.1c-1,2.4-2.1,4.7,0,7.4c-2.4,0.9-4.3,2-4.6,4.6
		c-24.1-8.1-48-8.1-72.1-0.1c-0.5-0.9-0.8-2.1-1.6-2.9c-0.7-0.7-1.9-1-2.9-1.5c0-0.3-0.1-0.5-0.1-0.6c1.3-2.1,0.9-4.1-0.1-6.3
		c-2.4-5.6-4.6-11.4-6.9-17.1c-0.5-1.3-0.6-2.4,0.4-3.7c-1.5-0.4-3.1-0.7-3.4-2.3c-0.2-0.8-0.2-1.8,0.1-2.5c0.8-2,2.9-2.1,5.9-0.3
		c-0.6-2.2-1.3-4-1.5-5.9c-0.2-2-0.1-4-0.1-6.4c-0.9,0.6-1.3,0.9-1.8,1.2c-1.6,1-3.3,0.6-4.2-0.8c-0.9-1.4-0.5-3.5,0.8-4.2
		c1.5-0.9,3.2-0.5,4.2,0.9c0.4,0.6,0.6,1.2,1,2c0.8-2.1,1.6-4,2.3-5.9C491.7,70.8,491.6,71,491.6,71z M547.5,108.6
		c-0.7-0.6-1.1-0.8-1.4-1.2c-0.8-1.2-1.3-2.6-2.3-3.6c-1.4-1.5-3.2-2.7-5.5-2.1c0,1.8,0.6,3.2,1.6,4.5c2.3,3.1,5.4,4.1,9.1,3.6
		c3.7-0.5,5.8-3.1,7.2-6.4c0.3-0.8,0.3-1.8,0.1-2.6c-0.2-0.5-1-1.1-1.6-1.1c-0.7-0.1-1.3,0.5-1.4,1.4c0,0.5,0,1.1,0,1.7
		c-3.3-1.2-4.8-3.1-3.9-5.4c0.4-1,1.2-1.9,2.1-2.5c1.8-1.1,3.8-0.4,5.7,0.4c0.7-1.8,1.3-3.4,2-5c0.8-1.7,1.9-3.1,3.8-3.9
		c2.2,3.3,1.1,6.8,0.8,10.3c0.7,0.2,1.4,0.3,2.1,0.5c0.7,0.3,1.5,0.6,2.1,1c1.7,1.2,2.2,3.9,1.1,5.6c-1,1.7-2.9,2.1-4.8,1.3
		c0.1-0.9,0.5-1.8,0.2-2.4c-0.6-1.2-2.3-1.1-3.2,0.2c-1.2,1.6-1.2,3.4-0.4,5.3c1.2,2.9,4.6,4.9,7.7,4.6c3-0.3,5.6-2.8,6-5.9
		c-1-0.2-1.9-0.1-2.6,0.7c-1,0.9-1.9,2-2.8,2.9c-0.3,0.3-0.8,0.5-1.2,0.8c-0.1-0.1-0.3-0.2-0.4-0.3c2.3-5.8,4.6-11.6,7.3-17.3
		c0.9,1.6,0,3.1,0,4.6c0,1.6,0.2,3.2,1.7,4.3c0.2-0.1,0.3-0.2,0.4-0.3c0.1-0.2,0.2-0.4,0.3-0.7c0.7-2.8,0.6-5.6-0.7-8.2
		c-1-1.9-0.3-3.3,0.7-4.8c0.4-0.6,1-1.1,1.2-1.8c1.6-5,1.5-9.8-1.6-14.2c-5.2-7.2-12.1-9-20.5-5.8c-2.9,1.1-5.8,2.2-8.8,3.2
		c-1.9,0.6-3.9,0.8-5.8,1.2c0,5,0,9.9,0,14.5c1,1.2,3.1-0.3,3.2,1.9c-4.6,1.9-6.4,4.1-6.8,8.4c1.9,0.4,1.9,0.3,3.2-0.3
		c1.9-1,3.2-2.6,4-4.6c0.4-0.8,0.7-1.9,2.1-1.3C547.5,95.6,547.5,101.8,547.5,108.6z M528.7,71c-2.7-0.6-5.2-1.1-7.7-1.8
		c-2.5-0.8-4.9-1.9-7.4-2.8c-4.9-1.7-9.7-2.1-14.5,0.8c-6,3.6-9.1,9.9-7.6,16.9c0.3,1.2,0.4,2.4,0.9,3.5c0.6,1.3,1.5,2.4,2.3,3.5
		c-1.8,3.7-2.9,7.4-1.1,11.6c2.8-2.9,1-6.1,1.6-9.1c1.5,1.6,2,3.7,2.8,5.5c0.9,2,1.6,4,2.4,6c0.8,2,1.5,3.9,2.2,5.9
		c-0.1,0.1-0.3,0.3-0.4,0.4c-2.3-1.4-3.2-5.1-7.1-4.3c0.5,1,0.9,1.8,1.4,2.5c3.2,4.5,9.2,4.4,12.3-0.2c1.3-2,1.3-5.5-0.2-6.7
		c-0.7-0.6-1.5-0.9-2.4-0.4c-0.9,0.6-1,1.4-0.4,2.3c0.2,0.2,0.3,0.5,0.4,0.8c-1.9,0.7-3.5,0.4-4.7-0.9c-1.1-1.2-1.1-2.8-0.7-4.3
		c0.4-1.5,1.6-2.2,2.9-2.6c0.9-0.3,1.9-0.5,2.9-0.8c-0.5-3.5-1.5-7,0.8-10.2c3.8,1.9,4.3,5.6,5.5,8.7c1.5-0.2,2.9-0.6,4.3-0.6
		c1.8-0.1,2.9,1.1,3.6,2.6c0.7,1.6,0.2,3-0.9,4.1c-0.7,0.7-1.6,1.2-2.7,1.9c0-0.8,0-1.3,0-1.7c0-1-0.4-1.6-1.3-1.7
		c-1-0.1-1.6,0.6-1.8,1.6c-0.1,0.5-0.1,1,0,1.4c1,3.4,3,5.9,6.4,6.9c3.2,0.9,6.4,0.4,8.9-2.1c1.6-1.6,2.8-3.4,2.5-5.8
		c-2-0.5-3.5,0.4-4.7,1.6c-1.1,1.2-2,2.6-2.8,4.1c-0.5,0.9-0.9,1-1.7,0.5c0-6.2,0-12.3,0-18.4c1.6-0.1,1.6-0.2,2.1,0.9
		c0.8,1.8,1.8,3.4,3.5,4.5c1.1,0.8,2.3,1.4,3.9,0.7c-0.2-0.9-0.3-1.7-0.6-2.5c-0.9-2.5-2.7-4.3-5.2-5.3c-0.8-0.3-1.3-0.6-0.7-1.6
		c0.9-0.1,1.8-0.3,2.9-0.4C528.7,80.8,528.7,75.9,528.7,71z M541.6,58.2c0.4-2,0.4-2-1.4-2.4c-1.2-0.3-2.4-0.6-3.6-0.8
		c-0.1-1.7-0.2-3-0.3-4.7c-0.9,0.1-1.6,0.1-2.3,0.2c-0.1,1.6-0.2,3-0.3,4.5c-1.4,0.3-2.6,0.5-3.9,0.8c-1.6,0.4-1.7,0.6-1.2,2.4
		C533,58.2,537.2,58.2,541.6,58.2z M554.3,115c-2.5,0-3.7,0.8-3.8,2c-0.1,1.1,0.9,2,2.6,2.2c1.7,0.3,3.5,0.5,5.2,0.6
		c1.3,0.1,2.3-0.6,2.5-1.7c0.2-1.1-0.4-2-1.6-2.3C557.3,115.5,555.4,115.2,554.3,115z M516.9,115c-1.4,0.3-3.3,0.5-5.1,1
		c-1.2,0.3-1.6,1.1-1.4,2.4c0.2,1.2,0.9,1.7,2,1.6c2.1-0.2,4.3-0.4,6.4-0.8c1.3-0.2,1.8-1,1.7-2.2c-0.1-1.1-0.8-1.8-2-1.9
		C518.1,115,517.7,115,516.9,115z M535.3,120c1.3-1.4,2.4-2.6,3.6-3.8c-1.3-1.4-2.3-2.5-3.5-3.8c-1.4,1.4-2.5,2.5-3.5,3.5
		C533.1,117.3,534.1,118.5,535.3,120z M539,65.1c-0.3,0.2-0.5,0.3-0.5,0.4c-0.1,0.7-0.1,1.4-0.1,2.1c0,6,0.1,12,0.2,17.9
		c0,0.1,0.1,0.1,0.2,0.2c0.1,0,0.2,0,0.2,0c0.5-1.6,0.7-13.7,0.4-19.3C539.3,65.9,539.1,65.5,539,65.1z M535.3,84.9
		c1.2,0,1.9-0.7,1.9-1.9c0-1.2-0.7-2-1.9-2c-1.1,0-2.1,1-2.1,2.1C533.3,84.1,534.2,84.9,535.3,84.9z M535.2,63.1c-1.1,0-2,0.9-2,1.9
		c0,1.1,1,2.1,2.2,2c1.1-0.1,1.8-0.9,1.8-2.1C537.2,63.7,536.5,63,535.2,63.1z M535.3,76.5c-1.1,0-2,0.8-2.1,1.9c0,1,0.9,2,1.9,2.1
		c1.1,0,2-0.8,2-1.9C537.2,77.3,536.5,76.5,535.3,76.5z M537.2,69.6c0-1.1-0.8-2-1.8-2.1c-1,0-2,0.9-2.1,1.9c-0.1,1.1,0.8,2,1.9,2
		C536.4,71.5,537.2,70.7,537.2,69.6z M537.2,73.9c0-1.2-0.7-1.9-2-1.9c-1.2,0-2,0.8-2,1.9c0,1.2,1,2.1,2.1,2
		C536.5,75.9,537.2,75.1,537.2,73.9z M500.4,120.3c-1.1-0.4-2-0.8-3-1.2c-0.5,1.1-0.8,2-1.3,3c1.1,0.5,2,0.8,3.1,1.3
		C499.6,122.3,500,121.4,500.4,120.3z M573.9,119.2c-1,0.4-1.9,0.7-3.1,1.2c0.5,1.2,0.9,2,1.4,3.1c1.1-0.5,1.9-0.9,2.8-1.4
		C574.6,121.1,574.3,120.3,573.9,119.2z M531.7,65.2c-0.2,0-0.4,0-0.6,0c0,1.7,0,3.5,0,5.2c0,1.7,0,3.3,0,5c0,1.8-0.1,3.5,0,5.3
		c0.1,1.6-0.3,3.3,0.6,4.9C531.7,78.8,531.7,72,531.7,65.2z"/>
	<path class="st0" d="M503.7,268.3c2.8,0,5.7,0,8.4,0c0,5.7,0,11.4,0,17.4c0.6-0.6,1.1-0.9,1.5-1.3c4-4.9,8-9.8,11.9-14.7
		c0.8-1.1,1.6-1.6,3-1.5c1.2,0.1,2.4,0,4.1,0c-4.8,5.4-9.4,10.6-14.1,15.9c4.9,7.6,10,15,15.1,22.6c-0.7,0.1-1.2,0.2-1.7,0.2
		c-2,0-4-0.1-6,0c-1.5,0.1-2.5-0.3-3.3-1.7c-2.9-4.8-6-9.4-9-14.1c-0.3-0.5-0.7-0.9-1.3-1.3c-0.3,5.6-0.4,11.2,0.1,16.9
		c-2.9,0-5.7,0-8.7,0C503.7,294,503.7,281.2,503.7,268.3z"/>
	<path class="st0" d="M457.7,268.4c0,0.7,0,1.2,0,1.8c-0.2,7.3-0.5,14.5-0.4,21.8c0,2.3,0.7,4.8,1.5,7c1.2,3.1,3.7,4.7,7.1,4.9
		c1.2,0.1,2.4,0.1,3.6,0.1c3.1,0,5.1-1.6,6.5-4.1c1.4-2.5,2.1-5.2,2.1-8c0.1-6.8,0-13.6,0-20.4c0-0.9,0-1.9,0-3c1.7,0,3.3,0,4.9,0
		c0,2.6,0,5.1,0,7.7c-0.1,4.6-0.2,9.3-0.3,13.9c-0.1,3.2-0.4,6.4-1.7,9.4c-2,4.7-5.5,7.4-10.5,8c-3.5,0.4-7,0.3-10.5-0.2
		c-5.2-0.9-10.6-5.4-10.9-11.7c-0.2-3.9-0.1-7.8-0.1-11.7c-0.1-4.6-0.1-9.1-0.2-13.6c0-0.5,0-1,0-1.6
		C451.7,268.4,454.6,268.4,457.7,268.4z"/>
	<path class="st0" d="M551.4,306.8c-1.6,0-3.1,0-5,0c5.4-13,10.6-25.9,15.9-38.8c1.3,0,2.6,0,4.1,0c5.1,12.8,10.2,25.7,15.4,38.7
		c-3,0-6,0-9.1,0c-1.3-3.7-2.6-7.4-3.9-11.3c-0.9-0.1-1.8-0.2-2.6-0.2c-3,0-6.1,0-9.1,0c-1.2,0-1.9,0.5-2.3,1.7
		C553.7,300.2,552.5,303.4,551.4,306.8z M556.9,292c3.6,0,6.7,0,10.2,0c-1.3-4.5-2.7-8.7-4.8-13.3
		C559.9,283.2,558.4,287.4,556.9,292z"/>
	<path class="st0" d="M616.9,275.7c-0.6-0.7-0.8-1-1-1.2c-1.9-3.8-5.1-4.2-8.8-3.5c-1.7,0.4-3,1.6-3.5,3.3c-0.5,1.9-0.4,3.9,1.3,5.3
		c1,0.9,2.2,1.6,3.4,2.3c2.1,1.2,4.3,2.2,6.3,3.4c4.5,2.6,6.5,6.5,5.8,11.6c-0.7,5.3-3.9,8.5-8.8,10c-4,1.2-8.1,1-12.1,0
		c-1-0.2-1.8-0.9-2.9-1.4c0.6-2.4,1.1-4.7,1.7-6.9c0.2,0,0.4,0,0.6-0.1c0.3,0.6,0.6,1.2,0.9,1.8c1.9,3.8,7.3,5.4,11,3.4
		c3.2-1.7,4-6.2,1.4-8.8c-1.3-1.3-3.1-2.3-4.7-3.2c-1.6-1-3.4-1.8-5.1-2.7c-4.6-2.6-6.2-6.7-5.4-11.8c0.7-4.6,3.5-7.5,7.9-9
		c3.7-1.3,7.4-0.9,11,0.4c0.9,0.3,1.7,1,2.7,1.6C618.2,271.9,617.6,273.5,616.9,275.7z"/>
	<path class="st0" d="M582.2,340.4c-1.8,0-3.1,0-4.6,0c-0.4-4.6-0.9-9.1-1.3-13.7c-0.2-0.1-0.3-0.1-0.5-0.2
		c-0.6,1.1-1.2,2.3-1.8,3.4c-1.5,3.1-2.9,6.2-4.4,9.3c-0.2,0.4-0.7,0.7-1,1.1c-0.4-0.4-0.8-0.7-1.1-1.1c-1.6-3.2-3.1-6.5-4.6-9.7
		c-0.4-0.8-0.9-1.7-1.5-2.9c-1.1,2.5-0.8,4.7-1.1,6.8c-0.3,2.2-0.4,4.4-0.6,6.8c-0.8,0-1.5,0-2.4,0c1-6.9,2.1-13.6,3.1-20.6
		c0.6,0,1.4-0.1,2.2-0.2c2.4,4.9,4.7,9.7,7,14.5c0.2,0,0.4,0,0.6,0c1.1-2.2,2.3-4.5,3.4-6.7c0.9-1.9,1.8-3.9,2.7-5.9
		c0.9-1.9,0.9-1.9,3.3-1.7C580.5,326.5,581.4,333.4,582.2,340.4z"/>
	<path class="st0" d="M431.6,340.4c-0.9,0-1.5,0-2.4,0c1-6.9,2.1-13.8,3.1-20.7c0.8,0,1.5-0.1,2.2-0.1c2.3,4.9,4.6,9.6,7.2,15
		c0.9-1.7,1.6-2.9,2.2-4c1.5-3.1,2.9-6.2,4.4-9.3c0.8-1.7,0.8-1.7,3.2-1.5c0.8,6.8,1.7,13.6,2.5,20.6c-1.6,0-3,0-4.5,0
		c-0.4-4.4-0.9-8.8-1.3-13.3c-1.4,0.2-1.4,1.2-1.8,1.9c-1.6,3.3-3.1,6.6-4.7,9.9c-0.3,0.7-0.4,1.6-1.8,1.6c-2.1-4.4-4.3-9-6.5-13.5
		C432.1,331.4,432.1,335.8,431.6,340.4z"/>
	<path class="st0" d="M558.5,355.3c-0.4,4.3-0.8,8.5-1.2,12.9c-0.7,0.1-1.3,0.1-2.2,0.2c1-7,2-13.8,2.9-20.4
		c0.2-0.2,0.2-0.3,0.3-0.3c0.6-0.1,1.2-0.1,2-0.2c2.3,4.9,4.6,9.6,7.2,14.9c1.8-2.5,2.8-5,4-7.3c1.2-2.4,2.4-4.9,3.6-7.4
		c0.6,0,1.3,0,2.3,0c0.8,6.8,1.7,13.7,2.5,20.7c-1.6,0-3,0-4.5,0c-0.4-4.5-0.8-9-1.3-13.5c-0.1,0-0.3-0.1-0.4-0.1
		c-0.3,0.6-0.7,1.1-1,1.7c-1.7,3.4-3.3,6.9-5,10.3c-0.3,0.7-0.5,1.5-1.8,1.6c-2.2-4.4-4.4-8.9-6.5-13.3
		C558.9,355.2,558.7,355.3,558.5,355.3z"/>
	<path class="st0" d="M494.4,333.5c0-4.6,0-9.2,0-13.8c0.9,0,1.5-0.1,2.3-0.1c-0.2,6.9-0.3,13.7-0.5,20.6c-1.6,0.8-2.5,0-3.4-1.1
		c-3.5-4-7-7.9-10.5-11.8c-0.4-0.5-0.9-0.8-1.5-1.4c-0.8,1.7-0.4,3.3-0.5,4.8c-0.1,1.6,0,3.2,0,4.8c0,1.6,0,3.2,0,4.9
		c-0.7,0-1.4,0-2.1,0c0.2-6.9,0.4-13.7,0.6-20.5c1.7-0.7,2.7,0,3.7,1.2c3.4,3.9,6.9,7.7,10.4,11.6c0.3,0.4,0.7,0.7,1,1
		C494.1,333.6,494.3,333.6,494.4,333.5z"/>
	<path class="st0" d="M603.3,326.2c0,4.7,0,9.4,0,14.2c-0.8,0-1.4,0-2,0c0-6.8,0-13.6,0-20.4c1.8-0.9,2.9-0.2,3.9,1
		c3.2,3.7,6.5,7.2,9.8,10.8c0.6,0.7,1.4,1.3,2.2,2.1c0.8-1.5,0.3-3.1,0.4-4.6c0.1-1.5,0-3,0-4.6c0-1.6,0-3.2,0-4.9c0.7,0,1.2,0,2,0
		c-0.1,6.9-0.2,13.7-0.4,20.5c-1.6,0.7-2.5,0.1-3.5-1c-3.4-3.9-6.9-7.8-10.4-11.6c-0.5-0.6-1.1-1.1-1.7-1.6
		C603.7,326,603.5,326.1,603.3,326.2z"/>
	<path class="st0" d="M534.9,331.6c1.5,0,2.7,0,4,0c0,2.6,0,5.1,0,7.9c-5.5,2-10.8,2.4-15.9-0.7c-2-1.3-3.3-3.1-3.8-5.6
		c-1.5-7.6,2.6-13,10-14c3.2-0.4,6.4-0.2,9.4,1.7c-0.2,0.8-0.5,1.6-0.7,2.7c-0.5-0.4-0.8-0.7-1.1-0.9c-4-3.3-9.3-2.4-11.8,2.2
		c-1.7,3.2-2,6.6-0.5,9.9c1.5,3.7,5.5,5.5,9.3,4.4c0.8-0.2,1.2-0.8,1.2-1.6c0-1.2,0-2.4,0-3.6C534.9,333.2,534.9,332.4,534.9,331.6z
		"/>
	<path class="st0" d="M501.7,340.4c-0.9,0-1.5,0-2.4,0c2.9-7.1,5.7-14,8.6-20.9c0.7,0,1.4,0,2.1,0c2.8,7,5.5,13.9,8.4,21
		c-1.7,0-3.1,0-4.7,0c-0.4-1.2-0.9-2.4-1.3-3.7c-0.8-2.5-0.8-2.5-3.5-2.5c-1,0-2.1,0.1-3.1,0c-1.4-0.1-2.1,0.6-2.4,1.7
		C502.7,337.4,502.2,338.9,501.7,340.4z M508.1,325.5c-0.2,0-0.4,0-0.5,0c-1.2,2.1-2,4.4-2.7,6.9c2.1,0.1,3.8,0.4,5.8-0.2
		C509.7,329.9,508.9,327.7,508.1,325.5z"/>
	<path class="st0" d="M474.8,340.4c-1.6,0-3.1,0-4.7,0c-0.5-1.5-1.1-3-1.6-4.6c-0.3-0.8-0.6-1.5-1.6-1.5c-2.1,0-4.3,0-6.5,0
		c-0.8,2.1-1.4,4.1-2.2,6.1c-0.7,0-1.3,0-2.4,0c0.4-1,0.7-1.9,1-2.7c2.3-5.5,4.6-11,6.8-16.6c0.5-1.3,1.1-2.1,2.9-1.5
		C469.3,326.4,472,333.3,474.8,340.4z M464.6,325.6c-0.2,0-0.5,0-0.7,0c-0.8,2.2-2,4.3-2.5,6.8c2,0,3.7,0,5.7,0
		C466.2,330,465.4,327.8,464.6,325.6z"/>
	<path class="st0" d="M541.2,347.6c3.7,0,7.2,0,11,0c0,0.7,0.1,1.3,0.1,2.1c-2.3,0-4.3,0-6.7,0c-0.1,2.2-0.3,4.4-0.4,6.8
		c2.5,0,4.6,0,6.8,0c0.1,0.8,0.2,1.4,0.2,2.2c-2.3,0-4.5,0-6.9,0c-0.3,2.7-0.4,5.2,0.1,7.9c2.2,0,4.3,0,6.5,0c0.3,1.2,0.4,2-0.9,2
		c-3.3,0-6.5,0-10,0C541.2,361.5,541.2,354.7,541.2,347.6z"/>
	<path class="st0" d="M585.7,340.4c0-7,0-13.8,0-20.7c3.7,0,7.4,0,11.2,0c0,0.7,0,1.3,0,2.1c-2.2-0.1-4.2-0.3-6.5-0.4
		c0,2.3,0,4.5,0,6.9c2,0,4.1,0,6.4,0c0.1,0.6,0.1,1.2,0.2,2.1c-2.2,0-4.3,0-6.6,0c0,2.7,0,5.2,0,8c1.1,0,2.2,0,3.3,0c1,0,2,0,3.2,0
		c0,0.6,0.1,1.2,0.1,1.9C593.2,340.4,589.5,340.4,585.7,340.4z"/>
	<path class="st0" d="M554.6,319.7c0,0.7,0,1.3,0,1.8c-0.2,0.1-0.2,0.2-0.3,0.2c-2,0-4,0-6.2,0c-0.7,1.9-0.5,4.1-0.5,6.5
		c2.3,0.8,4.6-0.3,6.9,0.2c0,0.7,0,1.3,0,2c-1.5,0-2.9,0-4.3,0c-2.4-0.1-2.6,0.1-2.7,2.4c0,1.3,0,2.6,0,3.8c0.1,1.7,0.4,2,2,1.9
		c1.6,0,3.2-0.2,4.9-0.3c0.1,0.8,0.1,1.3,0.2,2.1c-3.8,0-7.4,0-11.2,0c0-6.8,0-13.7,0-20.7C547.1,319.7,550.8,319.7,554.6,319.7z"/>
	<path class="st0" d="M474.3,367.8c0.3-1.2,0.5-2.2,0.9-3.7c1.2,2.1,2.6,3.3,4.7,3.3c2.7,0,4.1-1.6,3.5-4.2c-0.2-0.8-1-1.6-1.7-2.1
		c-1.4-0.9-2.9-1.6-4.4-2.5c-2-1.2-3-3.1-2.9-5.4c0.2-2.5,1.3-4.5,3.7-5.4c2.6-1,5.3-0.9,8,0.7c-0.3,0.9-0.5,1.7-0.8,2.6
		c-0.6-0.5-1-0.9-1.4-1.3c-1.1-0.9-2.3-1.4-3.8-0.8c-1.1,0.4-2,1-2.2,2.3c-0.2,1.2,0.2,2.2,1.3,2.9c1.5,0.9,3,1.8,4.5,2.6
		c2.5,1.4,3.8,3.4,3.4,6.3c-0.4,2.9-2.2,4.7-5,5.5C479.4,369.4,476.9,369.1,474.3,367.8z"/>
	<path class="st0" d="M582.1,367.8c0.3-1.1,0.5-2.2,0.9-3.6c1.3,2.7,3.2,3.6,5.7,3.1c1.4-0.3,2.4-1,2.6-2.4c0.3-1.4,0-2.6-1.3-3.3
		c-1.5-0.9-3-1.7-4.5-2.6c-2.4-1.4-3.4-3.4-3.2-6.2c0.2-2.3,2.4-5.3,5.5-5.4c2.7-0.1,4,0,5.9,1.3c-0.2,0.7-0.4,1.5-0.6,2.2
		c-1.2-0.7-2.1-1.5-3.2-1.9c-1.6-0.6-3.4,0.2-4.1,1.7c-0.7,1.4-0.3,2.7,1.4,3.8c1.5,1,3.1,1.7,4.6,2.6c2,1.3,3.2,3.1,3,5.6
		c-0.2,2.6-1.5,4.6-3.8,5.7C588.2,369.4,585.3,369.5,582.1,367.8z"/>
	<path class="st0" d="M508,367.8c0.3-1.2,0.5-2.3,0.8-3.7c0.6,0.9,0.9,1.3,1.2,1.7c1.3,1.6,3.9,2,5.7,1c1.9-1.1,2.2-3.6,0.6-5.1
		c-0.8-0.7-1.7-1.1-2.6-1.6c-0.8-0.5-1.7-0.9-2.5-1.4c-2.6-1.7-3.5-4.2-2.7-7.3c0.6-2.3,3-4.1,5.7-4.2c0.9,0,1.8,0,2.6,0.1
		c2.6,0.3,2.9,0.8,2.1,3.6c-0.5-0.5-0.9-0.9-1.4-1.2c-1.2-0.9-2.5-1.3-4-0.8c-2.4,0.9-2.9,3.5-0.9,5.1c1.5,1.1,3.1,1.9,4.8,2.7
		c1.4,0.8,2.4,1.8,2.9,3.3c1.1,3.1-0.3,6.8-3.3,8C514,369.4,511.1,369.5,508,367.8z"/>
	<path class="st0" d="M489.3,347.5c1.7,0,3.2,0,4.8,0c1.5,3,3.1,6,4.8,9.3c2.5-2.9,3.2-6.3,5-9.2c0.6,0,1.3,0,2,0
		c0,0.3,0,0.6-0.1,0.8c-1.4,2.6-2.8,5.2-4.3,7.7c-1.1,2-1.8,4-1.6,6.4c0.2,1.9,0,3.8,0,5.8c-1.6,0-3,0-4.6,0c0.1-1,0-2,0.2-2.9
		c0.5-3.1,0.2-6-1.6-8.7c-1.5-2.4-2.7-5.1-4-7.6C489.7,348.7,489.6,348.1,489.3,347.5z"/>
	<path class="st0" d="M528.1,368.3c0-6.3,0-12.4,0-18.7c-1.8,0-3.5,0-5.3,0c0-0.7-0.1-1.3-0.1-2.1c5.1,0,10,0,15.1,0
		c0,0.7,0,1.3,0,2.1c-1.6-0.1-3.2-0.1-4.8-0.2c-0.7,2.1-0.3,4.2-0.3,6.2c-0.1,2.1,0,4.1,0,6.2c0,2.1,0,4.1,0,6.3
		C531.1,368.3,529.8,368.3,528.1,368.3z"/>
	<path class="st0" d="M633,321.4c-0.2,6.4-0.1,12.6,0,19c-1.5,0-2.9,0-4.5,0c0-0.6,0-1.1,0-1.6c0.1-5.2,0.2-10.4,0.2-15.6
		c0-1.6-0.3-1.8-1.9-1.7c-1.2,0.1-2.3,0.2-3.6,0.4c0-0.8,0-1.4,0-2.2c5,0,9.9,0,15,0c0,0.6,0.1,1.2,0.1,2.1
		C636.5,321.6,634.9,321.5,633,321.4z"/>
	<path class="st0" d="M546.6,67.5c-0.7-0.2-1.4-0.3-2-0.6c-1.7-0.8-2.2-2.9-1.3-4.5c0.8-1.3,3.1-1.7,4.4-0.7c1.4,1.1,1.6,3,0.4,4.4
		C547.6,66.6,547.1,67.1,546.6,67.5C546.6,67.5,546.6,67.5,546.6,67.5z"/>
	<path class="st0" d="M587.9,76.4c0,1.6-1.6,3-3.1,3c-1.5,0-3.1-1.7-3-3.1c0.1-1.5,1.7-3,3.2-3C586.5,73.4,587.9,74.8,587.9,76.4z"
		/>
	<path class="st0" d="M495.8,66.2C495.8,66.2,495.9,66.1,495.8,66.2c-2,0.8-3.4,0.6-4.3-0.9c-0.7-1.2-0.5-2.8,0.4-3.8
		c0.9-1,2.2-1.3,3.5-0.7c1.4,0.7,2.1,2.1,1.6,3.6C496.8,65.1,496.2,65.6,495.8,66.2z"/>
	<path class="st0" d="M491.6,71c0,0,0.1-0.2,0.1-0.2c-1,0.5-1.9,1.3-2.9,1.5c-1.6,0.3-2.8-0.7-3.2-2.2c-0.3-1.6,0.3-2.9,1.8-3.5
		c1.4-0.6,3.2-0.1,3.8,1.4C491.6,68.9,491.5,70,491.6,71z"/>
	<path class="st0" d="M524.2,67.6c-0.6-0.4-1.2-0.8-1.7-1.3c-1.2-1.2-1.2-3.4,0.1-4.5c1.2-1,3.6-0.9,4.5,0.3
		c1.1,1.4,0.8,3.6-0.8,4.6C525.7,67.1,524.9,67.3,524.2,67.6C524.1,67.5,524.2,67.6,524.2,67.6z"/>
	<path class="st0" d="M585.3,87.3c-1.7,0.1-3-1.2-3.1-3c0-1.7,1.3-3.1,2.9-3.2c1.6,0,3.1,1.3,3.1,3C588.3,85.8,587,87.2,585.3,87.3z
		"/>
	<path class="st0" d="M485.3,81.1c1.6,0,3,1.3,3.1,3c0.1,1.8-1.3,3.2-3.1,3.2c-1.7,0-2.9-1.3-2.9-3.1
		C482.4,82.5,483.7,81.1,485.3,81.1z"/>
	<path class="st0" d="M564.3,59.3c0,1.7-1.2,3.1-3,3.1c-1.7,0-3.1-1.3-3.2-2.9c0-1.6,1.4-3.1,3-3.1
		C562.9,56.2,564.3,57.6,564.3,59.3z"/>
	<path class="st0" d="M579.3,71.3c-0.1-0.5-0.2-0.9-0.3-1.4c-0.2-1.4,0.5-2.7,1.8-3.3c1.2-0.5,2.7-0.2,3.5,0.7c0.8,1,1,2.4,0.3,3.5
		c-0.7,1.2-2,1.7-3.5,1.3C580.4,72,579.8,71.6,579.3,71.3C579.2,71.2,579.3,71.3,579.3,71.3z"/>
	<path class="st0" d="M99.5,285.3c-1,2.2-2,4.2-3,6.5c-1.4-0.6-2.6-1.1-4.1-1.8c2.6-5.8,5-11.3,7.6-17.1c3.3,1.5,6.5,2.9,9.5,4.4
		c2.5,1.3,3.5,3.3,3,5.7c-0.4,2.5-2.1,4-4.9,4.4c-0.2,0-0.5,0.1-0.8,0.2c0.5,3,1,6,1.6,9.6c-1.7-0.8-3.1-1.3-4.3-2
		c-0.5-0.3-0.8-1.1-0.9-1.8c-0.4-1.8-0.7-3.6-1.1-5.4C101.9,286.6,101.3,285.6,99.5,285.3z M101,281.7c1.8,0.7,3.2,1.4,4.7,1.8
		c1,0.3,1.7-0.2,2.1-1.1c0.4-0.9,0-1.6-0.8-2c-1.4-0.7-2.8-1.3-4.5-2.1C102,279.5,101.6,280.4,101,281.7z"/>
	<path class="st0" d="M509.3,62.3c-1.7,0-3-1.3-3-3c0-1.7,1.4-3.1,3-3c1.5,0,2.8,1.4,2.8,3C512.2,61,511,62.3,509.3,62.3z"/>
	<g>
		<path class="st0" d="M526.3,415c0,6.9-2.6,10.8-7.1,10.8c-4,0-6.7-3.7-6.8-10.5c0-6.9,3-10.6,7.1-10.6
			C523.8,404.6,526.3,408.4,526.3,415z M515.2,415.3c0,5.3,1.6,8.3,4.2,8.3c2.8,0,4.2-3.3,4.2-8.5c0-5-1.3-8.3-4.2-8.3
			C516.9,406.7,515.2,409.7,515.2,415.3z"/>
		<path class="st0" d="M534.8,407.5L534.8,407.5l-3.6,1.9l-0.5-2.1l4.5-2.4h2.4v20.4h-2.7V407.5z"/>
		<path class="st0" d="M553.5,425.4v-5.6H544V418l9.1-13.1h3v12.7h2.9v2.2h-2.9v5.6H553.5z M553.5,417.7v-6.8c0-1.1,0-2.1,0.1-3.2
			h-0.1c-0.6,1.2-1.1,2.1-1.7,3l-5,7v0.1H553.5z"/>
	</g>
	<path class="st0" d="M193.3,28c0,0,0.8,0.8,0.2,3.7c-1.3,5.8,2.6-2.8,2.6-2.8l-2.1-1.1L193.3,28z"/>
</g>
</svg>
