<svg width="118" height="81" viewBox="0 0 118 81" fill="none" xmlns="http://www.w3.org/2000/svg">
<path fill-rule="evenodd" clip-rule="evenodd" d="M71.9888 55.0422H109.011V7.95811H71.9888V55.0422ZM69 58H112V5H69V58Z" fill="#6D7587"/>
<path fill-rule="evenodd" clip-rule="evenodd" d="M0 68H118V0H0V68ZM2.18533 65.7916H115.815V2.20849H2.18533V65.7916Z" fill="#6D7587"/>
<path fill-rule="evenodd" clip-rule="evenodd" d="M101 17L89.7197 32.4427L84 25.136V33.0232L89.7197 39L101 22.8461V17Z" fill="#6D7587"/>
<path fill-rule="evenodd" clip-rule="evenodd" d="M90.9233 21.0248C89.2991 21.0248 87.4202 21.263 85.9721 21.7456L85.7271 21.263L85.3155 21.1062L85.4725 20.608L84.1875 17.5592L84.2504 17.3179C84.0966 17.3179 83.8577 17.2238 83.7634 17.0735C83.6788 16.8197 83.8577 16.5753 84.0054 16.5093H84.5081V16.4248C84.5081 16.4248 84.4202 16.2556 84.3353 16.0142C84.2504 16.0958 84.1875 16.2556 84.0054 16.2556C83.8577 16.3339 83.5939 16.2556 83.5341 16.0142C83.4462 15.8702 83.5341 15.6195 83.6788 15.5349C83.8577 15.4535 84.0966 15.4535 84.2504 15.5349V15.1307C84.0966 15.2091 84.0054 15.2091 83.8577 15.2091C83.5939 15.2091 83.4462 14.974 83.5341 14.7357C83.5341 14.4945 83.6788 14.3222 83.9175 14.4068C84.0966 14.4068 84.2504 14.4945 84.3353 14.5573C84.3353 14.4945 84.4202 14.3222 84.5081 14.2345H84.1875C83.9175 14.1687 83.8577 13.9338 83.9175 13.6736C84.0054 13.4292 84.2504 13.3664 84.5081 13.4292C84.5804 13.5263 84.75 13.6047 84.75 13.7613C84.907 13.6736 84.9982 13.6047 85.0799 13.5263C84.9982 13.4292 84.8191 13.3664 84.75 13.2819C84.5804 13.1126 84.5804 12.8713 84.75 12.7147C84.9982 12.5424 85.2244 12.5424 85.4035 12.7147C85.4725 12.8713 85.5573 13.0437 85.4725 13.191C85.6422 13.1126 85.7897 13.0437 85.8746 12.956C85.7897 12.956 85.7271 12.7774 85.6422 12.7147C85.5573 12.4766 85.6422 12.2165 85.8746 12.1539C86.0537 12.0629 86.3773 12.1539 86.4464 12.392C86.4464 12.5424 86.4464 12.7147 86.3773 12.8713C86.5313 12.8713 86.77 12.7774 86.9428 12.8713C86.8549 12.7147 86.77 12.5424 86.77 12.4766C86.77 12.2165 86.9428 12.0629 87.1815 12.0629C87.4202 12.0629 87.5993 12.2165 87.5993 12.4766C87.5993 12.6301 87.5114 12.7774 87.3356 12.8713C87.5993 12.956 87.8382 13.0437 87.9889 13.1126C87.9229 12.956 87.9229 12.7774 87.9889 12.7147C88.0831 12.4766 88.2528 12.3012 88.4886 12.392C88.7273 12.4766 88.812 12.7147 88.812 12.956C88.7273 13.0437 88.6425 13.191 88.4886 13.2819C88.6425 13.3664 88.7273 13.3664 88.9 13.4292C88.966 13.4292 89.0507 13.4292 89.0507 13.5263C88.966 13.3664 88.966 13.1126 88.966 12.956C89.0507 12.7774 89.2991 12.6301 89.5315 12.7147C89.7074 12.7774 89.8677 13.0437 89.7954 13.191C89.7954 13.3664 89.6194 13.5263 89.4687 13.6047C89.8677 13.6736 89.9463 13.6047 89.9463 13.6047V13.191L90.1913 13.0437C89.9463 12.7147 89.7954 12.6301 89.7954 12.1539C89.7954 11.7433 89.9463 11.3547 90.1913 11.2576C90.4457 11.0227 90.6814 10.6121 90.6814 10.4555V10.2863C90.4457 10.2863 90.1913 10.2863 89.9463 10.3708V9.56869C90.2729 9.71285 90.5054 9.71285 90.6814 9.71285V9.48718C90.6814 9.39637 90.5054 9.15811 90.4457 9.00781H90.8384H91.3411C91.2532 9.15811 91.096 9.39637 91.096 9.48718V9.71285C91.2532 9.71285 91.4259 9.71285 91.7306 9.48718V10.3708C91.5798 10.2863 91.2532 10.2863 91.096 10.2863V10.4555C91.096 10.6121 91.2532 11.0227 91.5798 11.1761C91.8186 11.3547 91.9851 11.7433 91.9851 12.1539C91.9851 12.6301 91.8186 12.7147 91.5798 13.0437L91.7306 13.191V13.6047C91.7306 13.6047 91.9034 13.6736 92.3212 13.6047C92.1422 13.5263 91.9851 13.3664 91.9851 13.191C91.9034 12.956 91.9851 12.7774 92.2364 12.7147C92.4752 12.6301 92.7139 12.7774 92.7139 12.956C92.7988 13.1126 92.7988 13.3664 92.6449 13.5263C92.7139 13.4292 92.7988 13.4292 92.8837 13.4292C92.9715 13.3664 93.1192 13.2819 93.2952 13.2819C93.1192 13.191 93.0312 13.0437 92.9715 12.8713C92.8837 12.7147 93.0312 12.4766 93.2952 12.392C93.4428 12.3012 93.6879 12.4766 93.7726 12.7147C93.8575 12.7774 93.7726 12.956 93.7726 13.0437C93.9518 13.0437 94.1937 12.956 94.3444 12.8713C94.2565 12.7774 94.093 12.6301 94.093 12.4766C94.093 12.2165 94.3444 12.0629 94.5864 12.0629C94.7559 12.0629 94.9886 12.2165 94.9886 12.4766C94.9886 12.5424 94.91 12.7147 94.8408 12.7774C94.9886 12.7774 95.1738 12.7774 95.4064 12.8713C95.3184 12.7147 95.2273 12.4766 95.3184 12.392C95.4064 12.1539 95.6451 12.0629 95.8838 12.1539C96.1415 12.2165 96.2106 12.4766 96.1415 12.6301C96.0598 12.7774 95.9686 12.8713 95.8242 12.956C95.9686 13.0437 96.1415 13.1126 96.2106 13.191C96.2106 13.0437 96.3018 12.8713 96.3834 12.7147C96.5405 12.5424 96.7729 12.5424 96.9457 12.7147C97.1028 12.8713 97.197 13.1126 97.0399 13.2819C96.9457 13.3664 96.7729 13.4292 96.707 13.4292C96.7729 13.5263 96.8671 13.6736 96.9457 13.7613C97.0399 13.6047 97.197 13.5263 97.2819 13.4292C97.5143 13.3664 97.7562 13.4292 97.8473 13.6736C97.9321 13.8459 97.8473 14.0872 97.6054 14.1687C97.5143 14.2345 97.4233 14.2345 97.2819 14.2345C97.3667 14.3222 97.4233 14.4945 97.4233 14.5573C97.5143 14.4945 97.6871 14.4068 97.8473 14.3222C98.0139 14.3222 98.2526 14.4945 98.2526 14.7357C98.3501 14.974 98.1647 15.1307 97.9321 15.2091C97.7562 15.2091 97.6871 15.1307 97.5143 15.1307V15.5349C97.6871 15.4535 97.9321 15.4535 98.0139 15.4535C98.2526 15.6195 98.3501 15.8702 98.2526 16.0142C98.1647 16.2556 97.9321 16.3339 97.6871 16.2556C97.6054 16.1897 97.5143 16.0958 97.4233 16.0142C97.3667 16.2556 97.2819 16.4248 97.2819 16.4248V16.5093C97.4233 16.4248 97.6054 16.4248 97.7562 16.5093C97.9321 16.5753 98.0798 16.8197 98.0139 17.0735C97.9321 17.2238 97.6871 17.3179 97.5143 17.3179L97.6054 17.5592L96.3018 20.608L96.4556 21.1062L96.0598 21.263L95.8242 21.7456C94.3444 21.263 92.4752 21.0248 90.9233 21.0248ZM89.2991 19.0914C89.5315 18.5964 89.8677 18.2046 90.4457 18.2046C90.3641 18.7687 90.1254 19.3296 89.2991 19.3296C88.168 19.3296 87.9229 18.2611 87.9229 18.2046C87.9229 18.0385 88.0831 17.9728 88.168 17.9728C88.3156 17.9728 88.4886 18.1201 88.4068 18.3613C88.6425 18.3613 88.966 18.2046 88.966 17.7033C88.966 17.4651 88.6425 17.2238 88.3156 17.2238C88.168 17.2238 87.9229 17.3179 87.8382 17.3868C87.6686 16.7476 87.4202 16.5093 87.3356 16.3339C87.0338 16.0958 87.0338 16.0958 86.9428 16.4248C86.77 16.9073 86.8549 17.0735 86.9428 17.5592C86.77 17.5592 86.1197 17.6405 86.1197 18.2046C86.1197 18.5964 86.3773 18.7687 86.5313 18.7687C86.7041 18.7687 86.8549 18.6778 86.9428 18.5964C86.77 18.5336 86.77 18.5336 86.77 18.4365C86.77 18.3613 86.9428 18.2046 87.0338 18.2046C87.2759 18.2046 87.3356 18.4365 87.3356 18.6778C87.3356 19.3296 86.8549 19.6554 86.3773 19.6554C85.7271 19.6554 85.4035 19.1603 85.4035 18.9222C85.8746 18.9222 86.1197 19.3296 86.2045 19.4894L86.3773 19.3923L85.4035 17.0735L85.2244 17.1456C85.4035 17.3868 85.4725 17.6405 85.4725 17.7033C85.4725 17.9728 85.3155 18.2611 85.1395 18.2611C84.9982 18.2046 84.9982 18.1201 84.9982 17.7033C84.9982 17.4651 85.0799 17.0735 85.2244 16.7476C84.9982 16.4248 84.75 15.6885 84.75 15.3814C84.75 14.5573 85.4035 13.3664 86.77 13.3664C87.9229 13.3664 88.2528 13.9901 89.9463 14.1687V15.9516C89.8677 16.0142 89.7074 16.0958 89.6194 16.0958V16.2556C90.1254 16.6629 90.4457 16.6629 90.5054 17.3868C89.9463 17.3868 89.7074 17.2238 89.3839 16.5093H89.1514V19.0914H89.2991ZM96.7729 17.7033C96.7729 18.1201 96.7729 18.2046 96.6254 18.2611C96.4556 18.2611 96.3834 17.9728 96.3834 17.7033C96.3834 17.6405 96.4556 17.3868 96.5405 17.1456L96.3834 17.0735L95.4064 19.3923L95.5539 19.4894C95.6451 19.3296 95.8838 18.9222 96.3834 18.9222C96.3834 19.1603 96.0598 19.6554 95.4064 19.6554C94.91 19.6554 94.4293 19.3296 94.4293 18.6778C94.4293 18.4365 94.5235 18.2046 94.7559 18.2046C94.8408 18.2046 94.9886 18.3613 94.9886 18.4365C94.9886 18.5336 94.9886 18.5336 94.91 18.5964C94.91 18.6778 95.0828 18.7687 95.2273 18.7687C95.4064 18.7687 95.7299 18.5964 95.7299 18.2046C95.7299 17.6405 94.9886 17.5592 94.8408 17.5592C94.91 17.0735 94.9886 16.9073 94.8408 16.4248C94.7559 16.0958 94.7559 16.0958 94.4293 16.3339C94.3444 16.5093 94.093 16.7476 93.9518 17.3868C93.8575 17.3179 93.6218 17.2238 93.4428 17.2238C93.1192 17.2238 92.7988 17.4651 92.7988 17.7033C92.7988 18.2046 93.1192 18.3613 93.3641 18.3613C93.2952 18.1201 93.4428 17.9728 93.6218 17.9728C93.6879 17.9728 93.8575 18.0385 93.8575 18.2046C93.8575 18.2611 93.6218 19.3296 92.4752 19.3296C91.6647 19.3296 91.4259 18.7687 91.3411 18.2046C91.9034 18.2046 92.3212 18.5964 92.4752 19.0914H92.6449V16.5093H92.3778C92.0574 17.2238 91.8186 17.3868 91.2532 17.3868C91.3411 16.6629 91.6647 16.6629 92.2364 16.2556V16.0958C92.0574 16.0958 91.9034 16.0142 91.8186 15.9516V14.0872C93.204 13.9338 93.7726 13.2819 94.91 13.2819C96.2106 13.2819 97.0399 14.5573 97.0399 15.3814C97.0399 15.6885 96.7729 16.4248 96.5405 16.7476C96.707 17.0735 96.7729 17.4651 96.7729 17.7033ZM92.9715 20.2885C92.9715 20.5422 93.1192 20.5422 93.3641 20.608C93.4428 20.608 93.9518 20.7052 94.093 20.7052C94.1937 20.7052 94.3444 20.608 94.3444 20.4514C94.3444 20.2196 93.9518 20.0504 93.3641 20.0504C93.1192 20.0504 92.9715 20.1412 92.9715 20.2885ZM90.8384 19.7245L91.3411 20.2196L90.8384 20.608L90.3641 20.2196L90.8384 19.7245ZM95.8838 21.1062L96.2106 21.0248L96.1415 20.7052L95.8242 20.7836L95.8838 21.1062ZM85.7897 21.1062L85.4725 21.0248L85.6422 20.7052L85.9721 20.7836L85.7897 21.1062ZM88.812 20.2885C88.812 20.5422 88.6425 20.5422 88.4068 20.608C88.2528 20.608 87.7598 20.7052 87.6686 20.7052C87.5114 20.7052 87.4202 20.608 87.4202 20.4514C87.4202 20.2196 87.8382 20.0504 88.4068 20.0504C88.6425 20.0504 88.812 20.1412 88.812 20.2885ZM90.9233 11.2576C91.0207 11.2576 91.096 11.2576 91.096 11.5052V11.7433C91.096 11.9784 91.096 11.9784 91.4259 11.9784C91.7306 11.9784 91.9034 12.0629 91.9034 12.1539C91.9034 12.2165 91.8186 12.3012 91.6647 12.3012C91.6647 12.3012 91.0207 12.2165 90.9233 12.2165C90.7694 12.2165 90.1254 12.3012 90.1254 12.3012C89.9463 12.3012 89.9463 12.2165 89.9463 12.1539C89.9463 12.0629 90.0405 11.9784 90.3641 11.9784C90.6814 11.9784 90.6814 11.9784 90.6814 11.7433V11.5052C90.6814 11.2576 90.7694 11.2576 90.9233 11.2576ZM90.9233 15.3814C91.0207 15.3814 91.096 15.2968 91.096 15.1307C91.096 15.0587 91.0207 14.8832 90.9233 14.8832C90.7694 14.8832 90.6814 15.0587 90.6814 15.1307C90.6814 15.2968 90.7694 15.3814 90.9233 15.3814ZM90.9233 14.1687C91.0207 14.1687 91.096 13.9901 91.096 13.9338C91.096 13.7613 91.0207 13.6736 90.9233 13.6736C90.7694 13.6736 90.6814 13.7613 90.6814 13.9338C90.6814 13.9901 90.7694 14.1687 90.9233 14.1687ZM90.9233 13.5263C91.0207 13.5263 91.096 13.4292 91.096 13.2819C91.096 13.1126 91.0207 13.0437 90.9233 13.0437C90.7694 13.0437 90.6814 13.1126 90.6814 13.2819C90.6814 13.4292 90.7694 13.5263 90.9233 13.5263ZM90.9233 14.7357C91.0207 14.7357 91.096 14.6449 91.096 14.5573C91.096 14.4068 91.0207 14.3222 90.9233 14.3222C90.7694 14.3222 90.6814 14.4068 90.6814 14.5573C90.6814 14.6449 90.7694 14.7357 90.9233 14.7357ZM90.9233 15.9516C91.0207 15.9516 91.096 15.8702 91.096 15.6885C91.096 15.6195 91.0207 15.5349 90.9233 15.5349C90.7694 15.5349 90.6814 15.6195 90.6814 15.6885C90.6814 15.8702 90.7694 15.9516 90.9233 15.9516Z" fill="#6D7587"/>
<path fill-rule="evenodd" clip-rule="evenodd" d="M86.5312 40.875C86.5312 40.875 86.6161 42.0814 86.6161 43.3661C86.6161 44.5788 86.5312 46.1143 86.5312 46.1143H87.8381C87.8381 46.1143 87.7596 44.4033 87.7596 43.3661C87.7596 42.3258 87.8381 40.875 87.8381 40.875H86.5312Z" fill="#6D7587"/>
<path fill-rule="evenodd" clip-rule="evenodd" d="M87.667 43.3661C87.667 43.3661 88.487 42.4761 88.8136 42.0814C89.1498 41.6708 89.7939 40.875 89.7939 40.875H90.5981C90.5981 40.875 89.1498 42.5639 88.8136 42.8929C88.4084 43.2156 87.9906 43.5417 87.9906 43.5417L87.667 43.3661Z" fill="#6D7587"/>
<path fill-rule="evenodd" clip-rule="evenodd" d="M88.5727 43.043L90.7687 46.1139H89.3832L87.759 43.6885L87.668 43.3657L88.5727 43.043Z" fill="#6D7587"/>
<path fill-rule="evenodd" clip-rule="evenodd" d="M79.0495 40.875H80.1773V42.9777C80.1773 43.7766 79.9449 45.7977 81.5691 45.7977C82.876 45.7977 83.0331 44.7324 83.0331 43.6888V40.875H83.7652V43.3661C83.6803 44.5788 83.7652 46.1895 81.3367 46.1895C78.8767 46.1895 79.0495 44.4033 79.0495 44.0179V40.875Z" fill="#6D7587"/>
<path fill-rule="evenodd" clip-rule="evenodd" d="M85.6426 47.877H86.2898C86.2898 47.877 86.2049 48.5318 86.2049 48.9361C86.2049 49.3339 86.12 50.4621 87.0342 50.4621C87.6656 50.4621 87.8354 49.8918 87.8354 49.3339C87.8354 48.8514 87.7568 47.877 87.7568 47.877H88.1683V49.1773C88.1683 49.8353 88.1683 50.716 86.8551 50.716C85.6426 50.716 85.6426 49.7384 85.6426 49.5002V47.877Z" fill="#6D7587"/>
<path fill-rule="evenodd" clip-rule="evenodd" d="M88.8134 50.627C88.8134 50.627 88.9642 50.2195 89.1496 49.6555C89.385 49.01 89.6207 48.7092 89.6207 48.7092C89.6207 48.7092 89.8689 49.3327 90.0387 49.8341C90.1925 50.2195 90.3653 50.627 90.3653 50.627H91.0941C91.0941 50.627 90.7675 49.8938 90.4439 49.267C90.2741 48.8535 89.9475 47.8789 89.9475 47.8789H89.6207C89.6207 47.8789 88.9642 49.3327 88.8134 49.7402C88.6406 50.1537 88.4082 50.627 88.4082 50.627H88.8134Z" fill="#6D7587"/>
<mask id="mask0" mask-type="alpha" maskUnits="userSpaceOnUse" x="0" y="0" width="118" height="81">
<path fill-rule="evenodd" clip-rule="evenodd" d="M0 80.801H117.901V0.115234H0V80.801Z" fill="white"/>
</mask>
<g mask="url(#mask0)">
<path fill-rule="evenodd" clip-rule="evenodd" d="M89.0518 49.8358H90.2739V49.5664H89.0518V49.8358Z" fill="#6D7587"/>
<path fill-rule="evenodd" clip-rule="evenodd" d="M93.2034 46.1162C93.2034 46.1162 93.4421 45.2954 93.9511 44.2611C94.3438 43.1299 94.6704 42.3904 94.6704 42.3904C94.6704 42.3904 95.2266 43.6909 95.5534 44.4931C95.8235 45.2954 96.1408 46.1162 96.1408 46.1162H97.4226C97.4226 46.1162 96.8666 44.7343 96.3009 43.4527C95.968 42.7165 95.3209 40.877 95.3209 40.877H94.6704C94.6704 40.877 93.4421 43.6909 93.2034 44.4931C92.8861 45.2357 92.4746 46.1162 92.4746 46.1162H93.2034Z" fill="#6D7587"/>
<path fill-rule="evenodd" clip-rule="evenodd" d="M93.6201 44.5806H95.882V44.1074H93.6201V44.5806Z" fill="#6D7587"/>
<path fill-rule="evenodd" clip-rule="evenodd" d="M80.2699 54.4961C80.2699 54.4961 80.4209 54.0104 80.6784 53.4525C80.8261 52.8854 81.0679 52.4844 81.0679 52.4844C81.0679 52.4844 81.3381 53.2144 81.4889 53.606C81.6617 54.0104 81.8156 54.4961 81.8156 54.4961H82.5507C82.5507 54.4961 82.2241 53.769 81.9068 53.0421C81.7308 52.6472 81.3978 51.6758 81.3978 51.6758H81.0679C81.0679 51.6758 80.4209 53.2144 80.2699 53.606C80.0973 54.0104 79.8584 54.4961 79.8584 54.4961H80.2699Z" fill="#6D7587"/>
<path fill-rule="evenodd" clip-rule="evenodd" d="M80.5078 53.6851H81.7298V53.4531H80.5078V53.6851Z" fill="#6D7587"/>
<path fill-rule="evenodd" clip-rule="evenodd" d="M86.2908 54.4961C86.2908 54.4961 86.4446 54.0104 86.7023 53.4525C86.941 52.8854 87.1011 52.4844 87.1011 52.4844C87.1011 52.4844 87.4186 53.2144 87.5975 53.606C87.7578 54.0104 87.8364 54.4961 87.8364 54.4961H88.5715C88.5715 54.4961 88.2542 53.769 87.9904 53.0421C87.8364 52.6472 87.4186 51.6758 87.4186 51.6758H87.1011C87.1011 51.6758 86.4446 53.2144 86.2908 53.606C86.118 54.0104 85.876 54.4961 85.876 54.4961H86.2908Z" fill="#6D7587"/>
<path fill-rule="evenodd" clip-rule="evenodd" d="M86.5312 53.6851H87.7596V53.4531H86.5312V53.6851Z" fill="#6D7587"/>
<path fill-rule="evenodd" clip-rule="evenodd" d="M102.471 41.1147L102.317 41.9168L102.147 41.8323C102.147 41.8323 101.906 41.262 101.249 41.262C100.602 41.262 100.451 41.6724 100.451 42.0015C100.451 42.2364 100.693 42.6531 101.34 42.9759C102 43.214 102.741 43.6057 102.741 44.5803C102.741 45.5548 101.906 46.1877 100.778 46.1877C99.7096 46.1877 99.4707 45.8683 99.4707 45.8683L99.7096 44.9689H99.7943C99.7943 44.9689 99.9514 45.7085 100.778 45.7962C101.582 45.7962 101.827 45.4703 101.827 44.9031C101.827 44.4049 101.104 44.1071 100.533 43.8438C99.9514 43.5399 99.4707 43.045 99.4707 42.3899C99.4707 41.7633 99.9514 40.7793 101.249 40.7793C102.085 40.7793 102.471 41.1147 102.471 41.1147Z" fill="#6D7587"/>
<path fill-rule="evenodd" clip-rule="evenodd" d="M84.0964 50.6265C84.7529 50.4605 85.1393 49.8933 85.1393 49.2665C85.1393 48.3735 84.5079 47.8125 83.5937 47.8125C82.7109 47.8125 81.9883 48.4362 81.9883 49.2665C81.9883 50.1533 82.7109 50.7141 83.5339 50.7141L84.5801 51.5196L85.1393 51.2813L84.0964 50.6265ZM82.6134 49.2665C82.6134 48.4362 83.0345 48.0508 83.5937 48.0508C84.0964 48.0508 84.5079 48.4362 84.5079 49.2665C84.5079 50.0625 84.0964 50.4605 83.5937 50.4605C83.0345 50.4605 82.6134 50.1533 82.6134 49.2665Z" fill="#6D7587"/>
<path fill-rule="evenodd" clip-rule="evenodd" d="M91.4941 47.877V49.2651V50.6252H93.1183V50.3963H92.1413C92.1413 50.3963 92.0565 49.566 92.0565 49.1773C92.0565 48.8514 92.1413 47.877 92.1413 47.877H91.4941Z" fill="#6D7587"/>
<path fill-rule="evenodd" clip-rule="evenodd" d="M93.6201 47.877V49.2651V50.6252H94.2579V49.2651V47.877H93.6201Z" fill="#6D7587"/>
<path fill-rule="evenodd" clip-rule="evenodd" d="M94.7568 47.877V48.209C94.7568 48.209 94.9893 48.1432 95.1716 48.1432H95.4982C95.4982 48.1432 95.5517 48.9361 95.5517 49.3339C95.5517 49.6537 95.4982 50.6252 95.4982 50.6252H96.1423V49.2651V48.1432H96.4533C96.6261 48.1432 96.8681 48.209 96.8681 48.209V47.877H94.7568Z" fill="#6D7587"/>
<path fill-rule="evenodd" clip-rule="evenodd" d="M103.127 51.6777V52.0005H103.535H103.862V53.1286V54.4979H104.519V53.1286V52.0005H104.839H105.254V51.6777H103.127Z" fill="#6D7587"/>
<path fill-rule="evenodd" clip-rule="evenodd" d="M97.1953 47.877V47.9646L98.0121 49.4219V50.6252H98.6687V49.3339L99.5579 47.877H99.1463L98.496 49.0895L97.8457 47.877H97.1953Z" fill="#6D7587"/>
<path fill-rule="evenodd" clip-rule="evenodd" d="M76.2031 54.4961C76.2031 54.4961 76.357 53.3649 76.4418 53.0421C76.4418 52.6472 76.6052 51.6758 76.6052 51.6758H76.9445C76.9445 51.6758 77.3308 52.4153 77.5099 52.7318C77.6607 53.1266 77.8964 53.606 77.8964 53.606C77.8964 53.606 78.3111 52.9825 78.4838 52.6472C78.644 52.3243 78.9613 51.6758 78.9613 51.6758H79.2882C79.2882 51.6758 79.3791 52.7318 79.4577 53.1266C79.5269 53.606 79.6211 54.4961 79.6211 54.4961H78.9613C78.9613 54.4961 78.8765 53.769 78.8765 53.5435C78.8765 53.2144 78.8168 52.5657 78.8168 52.5657C78.8168 52.5657 78.4838 53.2144 78.3111 53.5435C78.1602 53.935 77.8273 54.4961 77.8273 54.4961H77.7486C77.7486 54.4961 77.3308 53.769 77.1833 53.4525C77.0072 53.2144 76.7718 52.6472 76.7718 52.6472C76.7718 52.6472 76.6743 53.1266 76.6743 53.5435C76.6052 53.935 76.5297 54.4961 76.5297 54.4961H76.2031Z" fill="#6D7587"/>
<path fill-rule="evenodd" clip-rule="evenodd" d="M94.0137 54.4961C94.0137 54.4961 94.1928 53.3649 94.2587 53.0421C94.2587 52.6472 94.4285 51.6758 94.4285 51.6758H94.7551C94.7551 51.6758 95.0818 52.4153 95.2264 52.7318C95.4965 53.1266 95.7289 53.606 95.7289 53.606C95.7289 53.606 96.062 52.9825 96.2095 52.6472C96.3824 52.3243 96.706 51.6758 96.706 51.6758H97.0391C97.0391 51.6758 97.1961 52.7318 97.281 53.1266C97.281 53.606 97.4222 54.4961 97.4222 54.4961H96.772C96.772 54.4961 96.706 53.769 96.6243 53.5435V52.5657C96.6243 52.5657 96.3007 53.2144 96.062 53.5435C95.8829 53.935 95.6442 54.4961 95.6442 54.4961H95.4965C95.4965 54.4961 95.1729 53.769 94.9875 53.4525C94.843 53.2144 94.5853 52.6472 94.5853 52.6472C94.5853 52.6472 94.5227 53.1266 94.4285 53.5435C94.4285 53.935 94.3436 54.4961 94.3436 54.4961H94.0137Z" fill="#6D7587"/>
<path fill-rule="evenodd" clip-rule="evenodd" d="M82.9424 54.4961C82.9424 54.4961 83.0334 53.5435 83.0334 53.0421V51.6758H83.4481C83.4481 51.6758 84.2493 52.5657 84.5068 52.8008C84.6608 53.0421 85.2231 53.606 85.2231 53.606V52.5657V51.6758H85.556V53.1266V54.4961H85.2231C85.2231 54.4961 84.6608 53.935 84.2493 53.4525C83.9162 53.0421 83.3539 52.5657 83.3539 52.5657C83.3539 52.5657 83.2753 53.0421 83.2753 53.3649C83.2753 53.6843 83.3539 54.4961 83.3539 54.4961H82.9424Z" fill="#6D7587"/>
<path fill-rule="evenodd" clip-rule="evenodd" d="M100.134 54.4961C100.037 54.4961 100.134 53.5435 100.134 53.0421V51.6758H100.533C100.533 51.6758 101.341 52.5657 101.583 52.8008C101.752 53.0421 102.318 53.606 102.318 53.606V52.5657V51.6758H102.644V53.1266V54.4961H102.318C102.318 54.4961 101.752 53.935 101.428 53.4525C101.011 53.0421 100.451 52.5657 100.451 52.5657V53.3649V54.4961H100.134Z" fill="#6D7587"/>
<path fill-rule="evenodd" clip-rule="evenodd" d="M91.425 51.8507L91.2522 52.233C91.2522 52.233 91.0198 51.8507 90.3631 51.8507C89.7066 51.9072 89.2981 52.4146 89.2981 53.0446C89.2981 53.7716 89.7066 54.2479 90.2721 54.2479C90.8374 54.2479 90.8374 54.1663 90.8374 54.1663V53.7716V53.3016H91.4941C91.4941 53.3016 91.425 53.4552 91.425 53.687V54.3387C91.425 54.3387 91.0951 54.4954 90.3631 54.4954C89.5307 54.4954 88.6416 54.1663 88.6416 53.1261C88.6416 51.9072 89.8669 51.5938 90.2721 51.5938C91.0198 51.5938 91.425 51.8507 91.425 51.8507Z" fill="#6D7587"/>
<path fill-rule="evenodd" clip-rule="evenodd" d="M92.0566 51.6777V53.0439V54.4979H93.6871V54.1657H93.2034H92.7133V53.2162C92.7133 53.2162 92.8861 53.1286 93.1185 53.1286C93.2944 53.1286 93.6212 53.2162 93.6212 53.2162V52.8842H93.1185H92.7133V51.9096H93.1185C93.2944 51.9096 93.6212 52.0005 93.6212 52.0005V51.6777H92.8861H92.0566Z" fill="#6D7587"/>
<path fill-rule="evenodd" clip-rule="evenodd" d="M97.9326 51.6777V53.0439V54.4979H99.5568V54.1657H99.0541H98.583V53.2162C98.583 53.2162 98.7305 53.1286 98.9757 53.1286C99.1453 53.1286 99.5568 53.2162 99.5568 53.2162V52.8842H99.0541H98.583V51.9096H98.9757C99.2365 51.9096 99.5568 52.0005 99.5568 52.0005V51.6777H98.7305H97.9326Z" fill="#6D7587"/>
<path fill-rule="evenodd" clip-rule="evenodd" d="M86.875 61.3344C86.875 60.9646 86.9253 60.645 87.0162 60.3848C87.1011 60.1248 87.2363 59.9273 87.4154 59.7989C87.5755 59.6673 87.786 59.6016 88.0435 59.6016C88.2919 59.6016 88.5118 59.6673 88.6846 59.7989C88.8542 59.9273 88.9862 60.1248 89.0771 60.3848C89.1683 60.645 89.2123 60.9646 89.2123 61.3344C89.2123 61.7072 89.1683 62.0363 89.0771 62.2931C88.9862 62.5438 88.8542 62.735 88.6846 62.8823C88.5118 63.0076 88.2919 63.0734 88.0435 63.0734C87.786 63.0734 87.5755 63.0076 87.4154 62.8823C87.2363 62.735 87.1011 62.5438 87.0162 62.2931C86.9253 62.0363 86.875 61.7072 86.875 61.3344ZM88.7756 61.3344C88.7756 61.0274 88.7442 60.7671 88.694 60.5697C88.6342 60.3661 88.5558 60.2219 88.449 60.1278C88.3452 60.0372 88.207 59.9838 88.0435 59.9838C87.8867 59.9838 87.7515 60.0372 87.6353 60.1278C87.5315 60.2219 87.4499 60.3661 87.3965 60.5697C87.3461 60.7671 87.3179 61.0274 87.3179 61.3344C87.3179 61.6446 87.3461 61.9016 87.3965 62.1084C87.4499 62.2994 87.5315 62.4467 87.6353 62.5438C87.7515 62.6441 87.8867 62.6848 88.0435 62.6848C88.207 62.6848 88.3452 62.6441 88.449 62.5438C88.5558 62.4467 88.6342 62.2994 88.694 62.1084C88.7442 61.9016 88.7756 61.6446 88.7756 61.3344ZM90.6952 62.9857V60.5886H89.9224V60.269C90.0636 60.269 90.1988 60.247 90.337 60.2062C90.4689 60.1562 90.5852 60.0904 90.6638 59.987C90.7517 59.8929 90.7988 59.7706 90.7988 59.6266H91.1287V62.9857H90.6952ZM92.2346 62.1616V61.773L93.7865 59.6016H94.1352V61.795H94.6316V62.1616H94.1352V62.9857H93.7111V62.1616H92.2346ZM93.7111 60.269L92.621 61.795H93.7111V60.269Z" fill="#6D7587"/>
<path fill-rule="evenodd" clip-rule="evenodd" d="M7.90609 14.6445H18.509L32.9227 29.607L47.7888 15.0926H58.2314V18.9939H55.4291V39.7848H58.043V44.2938H44.7257L44.8011 39.8882H47.7888V23.2115L32.9227 38.1648L18.4336 24.3804V39.7848H21.418V44.2938H7.79297V39.7848H11.1418V19.9778H7.79297L7.90609 14.6445Z" fill="#6D7587"/>
<path fill-rule="evenodd" clip-rule="evenodd" d="M24.4277 14.6328H41.8698V18.6907L41.0719 19.5932H37.7481V22.1156L32.9666 26.6122L28.7411 22.2942V19.775H24.4277V14.6328Z" fill="#6D7587"/>
<path fill-rule="evenodd" clip-rule="evenodd" d="M28.7395 36.9042L32.965 41.0404L37.6429 36.8008L37.7497 39.8779H41.9752V44.2837H24.3193V39.7714H28.661L28.7395 36.9042Z" fill="#6D7587"/>
<path fill-rule="evenodd" clip-rule="evenodd" d="M11.0884 13.1223H9.64648V6.36328H11.9838L13.4258 10.9444L14.8835 6.36328H17.2994V13.1223H15.7631V7.78593L14.2519 13.1223H12.7096L11.0884 7.78593V13.1223Z" fill="#6D7587"/>
<path fill-rule="evenodd" clip-rule="evenodd" d="M22.9681 7.97611C23.3418 7.60643 23.8729 7.44026 24.5137 7.44026C25.1453 7.44026 25.6856 7.60643 26.1348 7.97611C26.4837 8.34894 26.6658 8.95372 26.6658 9.69637C26.6658 10.4986 26.4837 11.1316 26.1348 11.5044C25.6856 11.8522 25.1453 12.1124 24.5137 12.1124C23.8729 12.1124 23.3418 11.8522 22.9681 11.5044C22.5157 11.1316 22.3555 10.4986 22.3555 9.78103C22.3555 8.95372 22.5157 8.42416 22.9681 7.97611ZM21.7177 12.2973C22.434 12.9365 23.3418 13.2812 24.5137 13.2812C25.6856 13.2812 26.5872 12.9365 27.3035 12.2973C28.0167 11.7709 28.3968 10.862 28.3968 9.78103C28.3968 8.69688 28.0167 7.78191 27.3035 7.1551C26.5872 6.54717 25.6856 6.25586 24.5137 6.25586C23.8729 6.25586 23.3418 6.3624 22.8016 6.54717C22.434 6.62239 22.0602 6.88882 21.7962 7.1551C21.4477 7.44026 21.2685 7.71612 21.0862 8.06077C20.8224 8.50253 20.7344 9.14492 20.7344 9.78103C20.7344 10.862 20.9983 11.7709 21.7177 12.2973Z" fill="#6D7587"/>
<path fill-rule="evenodd" clip-rule="evenodd" d="M33.6817 7.97611C34.0555 7.60643 34.5834 7.44026 35.2273 7.44026C35.9406 7.44026 36.4746 7.60643 36.8453 7.97611C37.1847 8.34894 37.4862 8.95372 37.4862 9.69637C37.4862 10.4986 37.1847 11.1316 36.8453 11.5044C36.3898 11.8522 35.8589 12.1124 35.2273 12.1124C34.5834 12.1124 34.1374 11.8522 33.6817 11.5044C33.2232 11.1316 33.0692 10.4986 33.0692 9.78103C33.0692 8.95372 33.2232 8.42416 33.6817 7.97611ZM32.4376 12.2973C33.1539 12.9365 34.0555 13.2812 35.2273 13.2812C36.3898 13.2812 37.3794 12.9365 38.014 12.2973C38.7303 11.7709 39.0853 10.862 39.0853 9.78103C39.0853 8.69688 38.7303 7.78191 38.014 7.1551C37.3008 6.54717 36.3898 6.25586 35.2273 6.25586C34.5834 6.25586 34.0555 6.3624 33.5183 6.54717C33.1539 6.62239 32.8838 6.88882 32.5195 7.1551C32.2492 7.44026 31.9853 7.71612 31.7999 8.06077C31.5297 8.50253 31.4512 9.14492 31.4512 9.78103C31.4512 10.862 31.7999 11.7709 32.4376 12.2973Z" fill="#6D7587"/>
<path fill-rule="evenodd" clip-rule="evenodd" d="M46.1259 7.60732C46.3897 7.60732 46.6537 7.717 46.8358 7.90191C46.9961 8.06165 47.1939 8.24342 47.2977 8.50355C47.37 8.79815 47.439 9.24934 47.439 9.78205C47.439 10.3085 47.37 10.6844 47.2977 11.048C47.1939 11.3174 46.9961 11.5023 46.8358 11.6622C46.6537 11.7719 46.4714 11.8532 46.2012 11.9535C46.0221 11.9535 45.6735 12.035 45.2965 12.035H44.0494V7.52895H44.7687C45.4882 7.52895 45.8305 7.52895 46.1259 7.60732ZM45.4882 13.1223C46.0221 13.1223 46.5719 13.1223 46.9175 13.0126C47.37 12.8277 47.7469 12.6711 48.0171 12.4862C48.3594 12.1134 48.6234 11.7719 48.8118 11.2171C48.9909 10.8631 49.0821 10.4182 49.0821 9.78205C49.0821 9.14595 48.9909 8.61009 48.8118 8.24342C48.6234 7.78279 48.4663 7.44128 48.0893 7.07146C47.7469 6.80832 47.37 6.62341 46.9175 6.54819C46.5719 6.43536 46.0221 6.36328 45.4033 6.36328H42.5098V13.1223H45.4882Z" fill="#6D7587"/>
<path fill-rule="evenodd" clip-rule="evenodd" d="M56.2775 13.1223H54.6597V10.3085L51.7881 6.36328H53.6699L55.4859 9.07058L57.3615 6.36328H59.1774L56.2775 10.3085V13.1223Z" fill="#6D7587"/>
<path fill-rule="evenodd" clip-rule="evenodd" d="M7.30957 51.6746H8.02904V47.25H7.30957V51.6746Z" fill="#6D7587"/>
<path fill-rule="evenodd" clip-rule="evenodd" d="M9.56098 51.6765H8.92969V47.252H9.64586L12.4324 50.6957V47.252H13.0733V51.6765H12.3601L9.56098 48.2483V51.6765Z" fill="#6D7587"/>
<path fill-rule="evenodd" clip-rule="evenodd" d="M16.0567 51.6765H15.3404V47.8034H13.6094V47.252H17.7625V47.8034H16.0567V51.6765Z" fill="#6D7587"/>
<path fill-rule="evenodd" clip-rule="evenodd" d="M22.1652 51.6765H18.21V47.252H21.9891V47.8034H18.9261V49.1508H21.7977V49.693H18.9261V51.1437H22.1652V51.6765Z" fill="#6D7587"/>
<path fill-rule="evenodd" clip-rule="evenodd" d="M25.2301 47.8046C25.5946 47.8046 25.8647 47.8861 26.0156 47.9926C26.2134 48.1525 26.3234 48.2495 26.3234 48.5222C26.3234 48.5974 26.3234 48.7791 26.2134 48.8889C26.1317 48.9734 25.9433 49.0549 25.7642 49.152C25.5946 49.2335 25.3054 49.2335 25.0418 49.2335H23.5211V47.8046H25.2301ZM23.5211 49.6942H24.3191C24.5138 49.6942 24.6898 49.6942 24.6898 49.7976C24.8564 49.7976 24.9662 49.7976 25.0418 49.8728C25.1453 49.9479 25.2301 50.0514 25.4155 50.1422C25.4878 50.324 25.6857 50.5057 25.9433 50.7752L26.5874 51.6777H27.4889L26.5874 50.5057C26.3957 50.2519 26.2134 50.0514 25.9433 49.8728C25.8647 49.7976 25.7642 49.7976 25.5946 49.6942C26.0156 49.6095 26.4836 49.503 26.6659 49.2335C26.9298 49.0549 27.0397 48.7791 27.0397 48.5222C27.0397 48.2495 26.9298 48.0647 26.845 47.8046C26.6659 47.6167 26.4836 47.5352 26.2134 47.4286C26.0156 47.3565 25.6857 47.25 25.1453 47.25H22.8018V51.6777H23.5211V49.6942Z" fill="#6D7587"/>
<path fill-rule="evenodd" clip-rule="evenodd" d="M28.5564 51.6765H27.8369V47.252H28.5564L31.3461 50.6957V47.252H31.9838V51.6765H31.2612L28.5564 48.2483V51.6765Z" fill="#6D7587"/>
<path fill-rule="evenodd" clip-rule="evenodd" d="M34.6885 47.8046C34.7733 47.9926 34.9524 48.3342 35.031 48.7103L35.5712 49.8728H33.8592L34.3994 48.5974C34.5062 48.3342 34.5848 48.0647 34.6885 47.8046ZM33.6015 50.324H35.8603L36.4728 51.6777H37.3022L35.1189 47.25H34.321L32.3574 51.6777H33.0706L33.6015 50.324Z" fill="#6D7587"/>
<path fill-rule="evenodd" clip-rule="evenodd" d="M38.9999 51.6765H38.2774V47.8034H36.584V47.252H40.8095V47.8034H38.9999V51.6765Z" fill="#6D7587"/>
<path fill-rule="evenodd" clip-rule="evenodd" d="M41.3428 51.6746H41.9775V47.25H41.3428V51.6746Z" fill="#6D7587"/>
<path fill-rule="evenodd" clip-rule="evenodd" d="M43.9491 48.1525C44.3166 47.883 44.7691 47.7013 45.2968 47.7013C45.5608 47.7013 45.9377 47.8046 46.2017 47.9895C46.4687 48.0647 46.6539 48.2496 46.8363 48.5222C46.9964 48.7792 47.1002 49.152 47.1002 49.503C47.1002 50.0514 46.9179 50.5057 46.5723 50.772C46.2017 51.145 45.746 51.2202 45.2184 51.2202C44.7691 51.2202 44.3166 51.145 43.9491 50.772C43.6003 50.5057 43.4087 50.0514 43.4087 49.503C43.4087 48.8857 43.6003 48.4375 43.9491 48.1525ZM43.0412 50.5904C43.2296 50.9569 43.4936 51.2202 43.9491 51.4176C44.3166 51.6776 44.7691 51.7529 45.2184 51.7529C45.746 51.7529 46.1263 51.6776 46.5723 51.4928C46.9179 51.3017 47.1912 51.0384 47.4395 50.6969C47.6405 50.3241 47.7442 49.948 47.7442 49.503C47.7442 49.0549 47.6405 48.7101 47.4395 48.331C47.298 47.9895 46.9179 47.7013 46.5723 47.5352C46.2017 47.3565 45.746 47.25 45.2184 47.25C44.4988 47.25 43.8642 47.4286 43.4087 47.8046C42.9595 48.2496 42.6924 48.7792 42.6924 49.503C42.6924 49.948 42.8809 50.3241 43.0412 50.5904Z" fill="#6D7587"/>
<path fill-rule="evenodd" clip-rule="evenodd" d="M49.082 51.6765H48.3594V47.252H49.082L51.8591 50.6957V47.252H52.5063V51.6765H51.7868L49.082 48.2483V51.6765Z" fill="#6D7587"/>
<path fill-rule="evenodd" clip-rule="evenodd" d="M55.2216 47.8046C55.2875 47.9926 55.4855 48.3342 55.5641 48.7103L56.2019 49.8728H54.3923L54.9262 48.5974C55.03 48.3342 55.2216 48.0647 55.2216 47.8046ZM54.1252 50.324H56.3808L56.9998 51.6777H57.8166L55.6709 47.25H54.8415L52.8779 51.6777H53.5911L54.1252 50.324Z" fill="#6D7587"/>
<path fill-rule="evenodd" clip-rule="evenodd" d="M61.3303 51.6765H58.0127V47.252H58.729V51.1437H61.3303V51.6765Z" fill="#6D7587"/>
<path fill-rule="evenodd" clip-rule="evenodd" d="M10.9283 56.0775L11.7199 56.2623C11.5347 56.8107 11.2707 57.1616 10.8245 57.4311C10.4696 57.7257 9.91664 57.8009 9.38256 57.8009C8.73234 57.8009 8.28614 57.7257 7.8368 57.5376C7.49455 57.3497 7.2306 56.98 7.04521 56.6321C6.85681 56.2623 6.78125 55.8111 6.78125 55.363C6.78125 54.9118 6.85681 54.4605 7.04521 54.119C7.30917 53.743 7.57298 53.4734 8.02849 53.2948C8.40242 53.1069 8.84847 53.0254 9.38256 53.0254C9.91664 53.0254 10.3691 53.2165 10.8245 53.4014C11.1921 53.6646 11.4561 53.9372 11.6415 54.3854L10.8245 54.567C10.7398 54.1973 10.5545 53.9372 10.2843 53.8463C10.0203 53.6646 9.75648 53.5611 9.38256 53.5611C8.93005 53.5611 8.58451 53.6646 8.28614 53.8463C8.02849 54.0093 7.76468 54.1973 7.67664 54.567C7.57298 54.8335 7.49455 55.0934 7.49455 55.363C7.49455 55.8111 7.57298 56.1839 7.67664 56.4535C7.8368 56.7134 8.02849 56.9078 8.40242 57.0864C8.66638 57.265 8.93005 57.3497 9.31029 57.3497C9.75648 57.3497 10.1082 57.1616 10.3691 56.98C10.6298 56.8107 10.8245 56.5287 10.9283 56.0775Z" fill="#6D7587"/>
<path fill-rule="evenodd" clip-rule="evenodd" d="M16.5045 57.7263H12.2539V53.1074H16.3254V53.6653H13.0739V55.0941H16.1307V55.6268H13.0739V57.1623H16.5045V57.7263Z" fill="#6D7587"/>
<path fill-rule="evenodd" clip-rule="evenodd" d="M19.7237 53.6652C20.0975 53.6652 20.4714 53.7435 20.6315 53.8469C20.8199 54.0098 20.8892 54.1979 20.8892 54.3858C20.8892 54.5677 20.8892 54.6396 20.7352 54.834C20.6315 54.9123 20.5467 55.0156 20.3614 55.094C20.1729 55.094 19.9152 55.1786 19.5635 55.1786H17.9392V53.6652H19.7237ZM17.9392 55.7332H18.8534H19.1895C19.3811 55.7332 19.4534 55.8116 19.5635 55.8116C19.6451 55.9181 19.8273 55.9933 19.9152 56.1844C20.0975 56.2628 20.2765 56.5291 20.4714 56.8112L21.1907 57.726H22.1645L21.1907 56.454C20.9992 56.2628 20.7352 55.9933 20.5467 55.9181C20.4714 55.8116 20.2765 55.7332 20.0975 55.6267C20.6315 55.539 20.9992 55.4701 21.2693 55.1786C21.5396 55.0156 21.7185 54.7243 21.7185 54.3858C21.7185 54.1195 21.6432 53.9377 21.4452 53.6652C21.2693 53.474 21.0839 53.2953 20.8199 53.2953C20.5467 53.217 20.1729 53.1074 19.6451 53.1074H17.2197V57.726H17.9392V55.7332Z" fill="#6D7587"/>
<path fill-rule="evenodd" clip-rule="evenodd" d="M24.5882 57.7263H23.7903V53.6653H21.9902V53.1074H26.3978V53.6653H24.5882V57.7263Z" fill="#6D7587"/>
<path fill-rule="evenodd" clip-rule="evenodd" d="M27.041 57.7262H27.7543V53.1074H27.041V57.7262Z" fill="#6D7587"/>
<path fill-rule="evenodd" clip-rule="evenodd" d="M29.4566 57.7263H28.7402V53.1074H32.5165V53.6653H29.4566V55.0941H32.1614V55.6268H29.4566V57.7263Z" fill="#6D7587"/>
<path fill-rule="evenodd" clip-rule="evenodd" d="M33.333 57.7262H34.0555V53.1074H33.333V57.7262Z" fill="#6D7587"/>
<path fill-rule="evenodd" clip-rule="evenodd" d="M38.9999 56.0775L39.823 56.2623C39.6377 56.8107 39.3737 57.1616 38.9183 57.4311C38.5475 57.7257 38.0135 57.8009 37.4857 57.8009C36.8449 57.8009 36.3893 57.7257 36.0248 57.5376C35.5693 57.3497 35.3023 56.98 35.1169 56.6321C34.9505 56.2623 34.8467 55.8111 34.8467 55.363C34.8467 54.9118 34.9505 54.4605 35.1169 54.119C35.4123 53.743 35.6761 53.4734 36.1286 53.2948C36.584 53.1069 37.0302 53.0254 37.4857 53.0254C38.0135 53.0254 38.4658 53.2165 38.9183 53.4014C39.2639 53.6646 39.5341 53.9372 39.7162 54.3854L38.9183 54.567C38.8177 54.1973 38.6575 53.9372 38.3685 53.8463C38.0983 53.6646 37.8281 53.5611 37.4857 53.5611C37.0302 53.5611 36.6626 53.6646 36.3893 53.8463C36.1286 54.0093 35.8615 54.1973 35.7484 54.567C35.6761 54.8335 35.5693 55.0934 35.5693 55.363C35.5693 55.8111 35.6761 56.1839 35.7484 56.4535C35.9399 56.7134 36.1286 56.9078 36.4742 57.0864C36.738 57.265 37.0302 57.3497 37.3789 57.3497C37.8281 57.3497 38.202 57.1616 38.4658 56.98C38.7298 56.8107 38.9183 56.5287 38.9999 56.0775Z" fill="#6D7587"/>
<path fill-rule="evenodd" clip-rule="evenodd" d="M42.3241 53.6652C42.4279 53.8469 42.5095 54.1979 42.6917 54.5677L43.3295 55.8116H41.3408L41.9754 54.461C42.164 54.1979 42.2455 53.9377 42.3241 53.6652ZM41.1523 56.3693H43.4928L44.1274 57.726H45.0353L42.6917 53.1074H41.8686L39.8203 57.726H40.5335L41.1523 56.3693Z" fill="#6D7587"/>
<path fill-rule="evenodd" clip-rule="evenodd" d="M46.837 57.7263H46.127V53.6653H44.3174V53.1074H48.7281V53.6653H46.837V57.7263Z" fill="#6D7587"/>
<path fill-rule="evenodd" clip-rule="evenodd" d="M49.2598 57.7262H50.0828V53.1074H49.2598V57.7262Z" fill="#6D7587"/>
<path fill-rule="evenodd" clip-rule="evenodd" d="M52.1318 54.0094C52.5056 53.7432 52.9581 53.5612 53.4857 53.5612C53.8691 53.5612 54.202 53.6648 54.4911 53.8464C54.7613 53.9374 55.0316 54.1973 55.2232 54.4606C55.2891 54.7239 55.3802 55.0936 55.3802 55.4697C55.3802 55.993 55.2232 56.5287 54.8399 56.8108C54.4911 57.1618 54.0513 57.3497 53.4857 57.3497C52.9581 57.3497 52.5056 57.1618 52.1318 56.8108C51.7893 56.5287 51.5977 56.0775 51.5977 55.5385C51.5977 54.8336 51.7893 54.3007 52.1318 54.0094ZM51.1422 56.6322C51.3402 56.9799 51.7014 57.2652 52.0595 57.5377C52.5056 57.7257 52.9581 57.801 53.4857 57.801C53.9477 57.801 54.3937 57.7257 54.8399 57.5377C55.2891 57.3497 55.5655 57.0866 55.8295 56.7136C56.0054 56.3689 56.2033 55.9177 56.2033 55.4697C56.2033 55.0152 56.0054 54.5672 55.8295 54.1973C55.6692 53.8464 55.2891 53.5612 54.8399 53.4015C54.4911 53.1069 54.0513 53.0254 53.4857 53.0254C52.6941 53.0254 52.0595 53.295 51.5254 53.6648C51.0636 54.1191 50.7998 54.7239 50.7998 55.4697C50.7998 55.9177 50.8845 56.2624 51.1422 56.6322Z" fill="#6D7587"/>
<path fill-rule="evenodd" clip-rule="evenodd" d="M57.5593 57.7263H56.8398V53.1074H57.5593L60.5092 56.7141V53.1074H61.2255V57.7263H60.4276L57.5593 54.1195V57.7263Z" fill="#6D7587"/>
<path fill-rule="evenodd" clip-rule="evenodd" d="M1.14062 80.6657H2.66115V73.1484H1.14062V80.6657Z" fill="#6D7587"/>
<path fill-rule="evenodd" clip-rule="evenodd" d="M3.72656 78.22L5.20637 78.0758C5.2944 78.5742 5.47649 78.9376 5.74977 79.1696C6.01989 79.4014 6.39067 79.5172 6.85249 79.5172C7.3427 79.5172 7.71017 79.414 7.95836 79.207C8.20655 79.0003 8.33215 78.759 8.33215 78.4833C8.33215 78.3047 8.27881 78.1542 8.17515 78.0289C8.07149 77.9035 7.88925 77.794 7.62859 77.703C7.44937 77.6402 7.04418 77.5307 6.40959 77.374C5.59277 77.1735 5.02098 76.9259 4.69422 76.6315C4.22925 76.2177 3.99998 75.7132 3.99998 75.1179C3.99998 74.7356 4.10666 74.3784 4.32674 74.043C4.54339 73.7109 4.85767 73.4571 5.26601 73.2816C5.67435 73.1093 6.16757 73.0215 6.74883 73.0215C7.69455 73.0215 8.40756 73.2284 8.88516 73.6419C9.36275 74.0556 9.61409 74.607 9.63904 75.2965L8.11536 75.3654C8.04941 74.9768 7.91133 74.7011 7.69756 74.5319C7.48392 74.3626 7.16362 74.2781 6.7332 74.2781C6.29016 74.2781 5.94462 74.3689 5.69328 74.5475C5.53312 74.6635 5.45455 74.8202 5.45455 75.0145C5.45455 75.1931 5.52983 75.3465 5.6808 75.4719C5.87236 75.6317 6.33733 75.801 7.07874 75.9733C7.82014 76.1488 8.3667 76.3274 8.72185 76.5153C9.07355 76.7035 9.35314 76.9572 9.5543 77.28C9.75546 77.6028 9.85597 78.0008 9.85597 78.477C9.85597 78.9063 9.73338 79.3104 9.49451 79.6866C9.25579 80.0625 8.91656 80.3414 8.47682 80.5232C8.03679 80.7079 7.49023 80.7989 6.83672 80.7989C5.88497 80.7989 5.15289 80.5795 4.64088 80.1409C4.13189 79.7021 3.82707 79.0597 3.72656 78.22Z" fill="#6D7587"/>
<path fill-rule="evenodd" clip-rule="evenodd" d="M12.3939 76.9018C12.3939 77.751 12.5919 78.3965 12.9844 78.8384C13.3803 79.277 13.8798 79.4964 14.4862 79.4964C15.0925 79.4964 15.5921 79.277 15.9815 78.8414C16.368 78.406 16.5627 77.751 16.5627 76.8799C16.5627 76.0214 16.3743 75.3757 15.9941 74.9527C15.6171 74.5297 15.1146 74.3168 14.4862 74.3168C13.8579 74.3168 13.3552 74.533 12.9688 74.9622C12.5856 75.3915 12.3939 76.037 12.3939 76.9018ZM10.8262 76.952C10.8262 76.1875 10.9425 75.5451 11.1719 75.0248C11.3415 74.6425 11.577 74.2979 11.8723 73.994C12.1678 73.69 12.4944 73.4644 12.8462 73.3171C13.3144 73.1198 13.8579 73.0195 14.4704 73.0195C15.5826 73.0195 16.4685 73.3642 17.1377 74.0503C17.8037 74.7398 18.1367 75.6924 18.1367 76.9175C18.1367 78.1302 17.807 79.0797 17.144 79.7658C16.4811 80.449 15.5984 80.7936 14.4925 80.7936C13.3708 80.7936 12.4787 80.4521 11.8189 79.7721C11.1561 79.0891 10.8262 78.149 10.8262 76.952Z" fill="#6D7587"/>
<path fill-rule="evenodd" clip-rule="evenodd" d="M25.2303 75.7795C25.2303 75.3126 25.1234 74.9524 24.9098 74.6984C24.693 74.4417 24.448 74.3131 24.1652 74.3131C23.8983 74.3131 23.6752 74.4165 23.4993 74.6296C23.3233 74.8364 23.2353 75.181 23.2353 75.6606C23.2353 76.1461 23.3296 76.5034 23.5245 76.7291C23.7159 76.9578 23.9548 77.0705 24.2438 77.0705C24.5203 77.0705 24.7558 76.9609 24.9444 76.7417C25.1361 76.5253 25.2303 76.2026 25.2303 75.7795ZM21.9598 78.9287L23.3577 78.7751C23.3924 79.0573 23.4835 79.2672 23.628 79.4051C23.7695 79.5398 23.9609 79.6087 24.1966 79.6087C24.4952 79.6087 24.7495 79.474 24.957 79.1982C25.1675 78.9256 25.2994 78.3584 25.359 77.4968C24.9945 77.9167 24.5422 78.1266 23.9956 78.1266C23.4018 78.1266 22.8929 77.9009 22.4625 77.4436C22.0321 76.9861 21.8154 76.3938 21.8154 75.6606C21.8154 74.899 22.0445 74.2849 22.4972 73.818C22.9526 73.3511 23.5307 73.1191 24.2312 73.1191C24.9977 73.1191 25.623 73.4107 26.113 74.0028C26.6031 74.592 26.8481 75.5603 26.8481 76.9107C26.8481 78.2863 26.5938 79.2765 26.0848 79.8845C25.5726 80.4955 24.9067 80.7996 24.0898 80.7996C23.4993 80.7996 23.0217 80.6428 22.6604 80.3294C22.2959 80.0162 22.0635 79.5491 21.9598 78.9287Z" fill="#6D7587"/>
<path fill-rule="evenodd" clip-rule="evenodd" d="M30.2274 74.3131C30.0515 74.3131 29.8977 74.3696 29.7593 74.4792C29.6211 74.5888 29.5176 74.7893 29.4389 75.0776C29.3415 75.4505 29.2913 76.0773 29.2913 76.9578C29.2913 77.8414 29.3352 78.4461 29.4264 78.7751C29.5143 79.1073 29.6274 79.3267 29.7626 79.4364C29.8977 79.5461 30.0515 79.5993 30.2274 79.5993C30.4035 79.5993 30.5574 79.5428 30.6957 79.4333C30.8338 79.3204 30.9375 79.1231 31.013 78.8348C31.1135 78.4682 31.1637 77.8414 31.1637 76.9578C31.1637 76.0773 31.1165 75.4693 31.0286 75.1403C30.9408 74.8112 30.8276 74.5888 30.6924 74.4792C30.5574 74.3696 30.4035 74.3131 30.2274 74.3131ZM30.2274 73.1191C30.9564 73.1191 31.528 73.3793 31.9397 73.8964C32.4297 74.5136 32.6748 75.532 32.6748 76.9578C32.6748 78.3803 32.4266 79.4019 31.9334 80.0255C31.525 80.5363 30.9564 80.7933 30.2274 80.7933C29.4923 80.7933 28.9018 80.5143 28.4524 79.9502C28.0032 79.3894 27.7803 78.3866 27.7803 76.9422C27.7803 75.5288 28.0283 74.5105 28.5217 73.887C28.93 73.3731 29.4987 73.1191 30.2274 73.1191Z" fill="#6D7587"/>
<path fill-rule="evenodd" clip-rule="evenodd" d="M36.0831 74.3131C35.907 74.3131 35.7531 74.3696 35.6149 74.4792C35.4767 74.5888 35.3699 74.7893 35.2976 75.0776C35.1971 75.4505 35.1469 76.0773 35.1469 76.9578C35.1469 77.8414 35.1908 78.4461 35.2819 78.7751C35.3699 79.1073 35.483 79.3267 35.6181 79.4364C35.7531 79.5461 35.907 79.5993 36.0831 79.5993C36.259 79.5993 36.413 79.5428 36.5512 79.4333C36.6894 79.3204 36.7931 79.1231 36.8685 78.8348C36.969 78.4682 37.0192 77.8414 37.0192 76.9578C37.0192 76.0773 36.9721 75.4693 36.8843 75.1403C36.7962 74.8112 36.6831 74.5888 36.548 74.4792C36.413 74.3696 36.259 74.3131 36.0831 74.3131ZM36.0831 73.1191C36.8118 73.1191 37.3836 73.3793 37.7951 73.8964C38.2853 74.5136 38.5302 75.532 38.5302 76.9578C38.5302 78.3803 38.2822 79.4019 37.7888 80.0255C37.3805 80.5363 36.8118 80.7933 36.0831 80.7933C35.348 80.7933 34.7572 80.5143 34.308 79.9502C33.8587 79.3894 33.6357 78.3866 33.6357 76.9422C33.6357 75.5288 33.8839 74.5105 34.3773 73.887C34.7825 73.3731 35.3543 73.1191 36.0831 73.1191Z" fill="#6D7587"/>
<path fill-rule="evenodd" clip-rule="evenodd" d="M43.1922 80.6659H41.7471V75.2354C41.2193 75.7275 40.5972 76.0909 39.8809 76.3292V75.0193C40.2579 74.8971 40.6694 74.6651 41.1093 74.3205C41.5522 73.979 41.857 73.5747 42.0203 73.1172H43.1922V80.6659Z" fill="#6D7587"/>
<path fill-rule="evenodd" clip-rule="evenodd" d="M45.9375 80.6668H47.3826V79.2254H45.9375V80.6668ZM45.9375 76.6621H47.3826V75.2207H45.9375V76.6621Z" fill="#6D7587"/>
<path fill-rule="evenodd" clip-rule="evenodd" d="M53.7351 79.3267V80.6646H48.6709C48.7274 80.1602 48.8908 79.6808 49.1641 79.2265C49.4407 78.7753 49.9809 78.1736 50.7883 77.4246C51.4418 76.8199 51.8407 76.4093 51.9884 76.1931C52.1864 75.8955 52.2867 75.6041 52.2867 75.3126C52.2867 74.9898 52.1989 74.7454 52.0261 74.57C51.8533 74.3976 51.6146 74.313 51.3098 74.313C51.0082 74.313 50.7664 74.4039 50.5903 74.5857C50.4112 74.7643 50.3077 75.0651 50.2793 75.4881L48.8405 75.3439C48.9285 74.5511 49.1955 73.9809 49.6479 73.6361C50.1002 73.2915 50.6659 73.1191 51.3443 73.1191C52.089 73.1191 52.6733 73.3166 53.0974 73.7176C53.5215 74.1188 53.7351 74.6139 53.7351 75.2092C53.7351 75.5476 53.6755 75.8703 53.5529 76.1775C53.4305 76.4814 53.2388 76.801 52.9748 77.1364C52.799 77.3588 52.4848 77.6785 52.0294 78.0953C51.5737 78.512 51.2847 78.7909 51.1622 78.9256C51.0396 79.0634 50.9423 79.1983 50.8669 79.3267H53.7351Z" fill="#6D7587"/>
<path fill-rule="evenodd" clip-rule="evenodd" d="M57.1543 74.3131C56.9783 74.3131 56.8244 74.3696 56.6861 74.4792C56.548 74.5888 56.441 74.7893 56.3688 75.0776C56.2683 75.4505 56.2181 76.0773 56.2181 76.9578C56.2181 77.8414 56.262 78.4461 56.3532 78.7751C56.441 79.1073 56.5542 79.3267 56.6894 79.4364C56.8244 79.5461 56.9783 79.5993 57.1543 79.5993C57.3271 79.5993 57.4841 79.5428 57.6225 79.4333C57.7575 79.3204 57.8642 79.1231 57.9398 78.8348C58.0403 78.4682 58.0905 77.8414 58.0905 76.9578C58.0905 76.0773 58.0433 75.4693 57.9554 75.1403C57.8675 74.8112 57.7544 74.5888 57.6192 74.4792C57.4841 74.3696 57.3271 74.3131 57.1543 74.3131ZM57.1543 73.1191C57.8831 73.1191 58.4549 73.3793 58.8664 73.8964C59.3565 74.5136 59.6015 75.532 59.6015 76.9578C59.6015 78.3803 59.3535 79.4019 58.8601 80.0255C58.4518 80.5363 57.8831 80.7933 57.1543 80.7933C56.4191 80.7933 55.8285 80.5143 55.3792 79.9502C54.93 79.3894 54.707 78.3866 54.707 76.9422C54.707 75.5288 54.9521 74.5105 55.4484 73.887C55.8536 73.3731 56.4254 73.1191 57.1543 73.1191Z" fill="#6D7587"/>
<path fill-rule="evenodd" clip-rule="evenodd" d="M64.2643 80.6659H62.8192V75.2354C62.2914 75.7275 61.6693 76.0909 60.9531 76.3292V75.0193C61.3301 74.8971 61.7385 74.6651 62.1814 74.3205C62.6243 73.979 62.9292 73.5747 63.0925 73.1172H64.2643V80.6659Z" fill="#6D7587"/>
<path fill-rule="evenodd" clip-rule="evenodd" d="M66.4434 78.7344L67.8822 78.584C67.923 78.9099 68.0456 79.1668 68.2466 79.358C68.4508 79.546 68.6834 79.64 68.9472 79.64C69.2488 79.64 69.5033 79.5208 69.7138 79.2764C69.9211 79.032 70.0279 78.6624 70.0279 78.1704C70.0279 77.7098 69.9211 77.3618 69.7138 77.1332C69.5065 76.9013 69.2362 76.7854 68.9064 76.7854C68.4917 76.7854 68.1179 76.9671 67.7911 77.3337L66.6161 77.1645L67.3575 73.2539H71.1778V74.6013H68.4539L68.2277 75.8767C68.5483 75.7168 68.8781 75.6386 69.2143 75.6386C69.8552 75.6386 70.3987 75.8704 70.8448 76.3342C71.291 76.7978 71.5108 77.4026 71.5108 78.1452C71.5108 78.7626 71.3317 79.3142 70.9737 79.7997C70.4803 80.4641 69.8017 80.7962 68.9315 80.7962C68.2373 80.7962 67.6687 80.6083 67.2288 80.2353C66.7921 79.8656 66.5282 79.3642 66.4434 78.7344Z" fill="#6D7587"/>
<path fill-rule="evenodd" clip-rule="evenodd" d="M80.3444 77.9035L81.8209 78.3704C81.5948 79.1882 81.2178 79.7992 80.6899 80.1972C80.1653 80.5951 79.4992 80.7957 78.6886 80.7957C77.6897 80.7957 76.8666 80.4542 76.2225 79.7711C75.5785 79.0912 75.2549 78.1572 75.2549 76.976C75.2549 75.7225 75.5785 74.7512 76.2257 74.0586C76.8761 73.3693 77.7274 73.0215 78.783 73.0215C79.7035 73.0215 80.4543 73.2942 81.0291 73.8362C81.3717 74.1588 81.6293 74.6196 81.7989 75.2212L80.294 75.5783C80.203 75.1898 80.0178 74.8827 79.7349 74.6572C79.4521 74.4316 79.1097 74.3189 78.7044 74.3189C78.1452 74.3189 77.6929 74.5194 77.344 74.9172C76.9955 75.3183 76.8227 75.967 76.8227 76.8633C76.8227 77.8126 76.9955 78.4896 77.3379 78.8937C77.6803 79.2949 78.1263 79.4984 78.673 79.4984C79.0783 79.4984 79.427 79.3699 79.7159 79.1131C80.0081 78.8561 80.2186 78.4518 80.3444 77.9035Z" fill="#6D7587"/>
<path fill-rule="evenodd" clip-rule="evenodd" d="M86.3586 77.476C86.3492 77.0593 86.2423 76.7428 86.035 76.5265C85.8308 76.3072 85.5793 76.2007 85.2842 76.2007C84.9699 76.2007 84.7093 76.3135 84.5018 76.5423C84.2976 76.7709 84.1971 77.0843 84.2003 77.476H86.3586ZM86.277 78.933L87.7158 79.1744C87.5304 79.7008 87.2382 80.1018 86.8393 80.3777C86.4401 80.6503 85.9408 80.7881 85.3407 80.7881C84.3918 80.7881 83.6883 80.4779 83.2326 79.8607C82.8745 79.3656 82.6924 78.7388 82.6924 77.9837C82.6924 77.0812 82.9311 76.373 83.4024 75.8653C83.8767 75.3515 84.4737 75.0977 85.1962 75.0977C86.0099 75.0977 86.6508 75.3639 87.1189 75.8999C87.59 76.4358 87.8131 77.2535 87.7943 78.3565H84.1751C84.1845 78.7859 84.3008 79.1179 84.5239 79.356C84.747 79.5943 85.0233 79.7134 85.3563 79.7134C85.5826 79.7134 85.7743 79.6506 85.9281 79.5254C86.0821 79.4032 86.1984 79.2057 86.277 78.933Z" fill="#6D7587"/>
<path fill-rule="evenodd" clip-rule="evenodd" d="M90.3533 80.666H88.9082V75.2199H90.2496V75.9939C90.4791 75.6304 90.6864 75.3891 90.8686 75.2731C91.054 75.1541 91.2613 75.0977 91.4937 75.0977C91.8236 75.0977 92.1409 75.1885 92.4458 75.3704L91.9994 76.6237C91.7544 76.4671 91.5283 76.3887 91.321 76.3887C91.1167 76.3887 90.944 76.4451 90.8057 76.5548C90.6644 76.6676 90.5543 76.8681 90.4727 77.1594C90.3942 77.451 90.3533 78.0589 90.3533 78.9832V80.666Z" fill="#6D7587"/>
<path fill-rule="evenodd" clip-rule="evenodd" d="M95.5715 75.2197V76.3698H94.5851V78.5633C94.5851 79.0082 94.5946 79.2683 94.6133 79.3402C94.6321 79.4123 94.6761 79.4751 94.7421 79.522C94.8082 79.5691 94.8898 79.5941 94.9873 79.5941C95.1192 79.5941 95.3139 79.5472 95.5652 79.4562L95.691 80.5718C95.3547 80.716 94.9747 80.7881 94.5472 80.7881C94.2899 80.7881 94.0542 80.7442 93.8435 80.6565C93.6364 80.5718 93.4824 80.459 93.385 80.3178C93.2875 80.1801 93.2186 79.9952 93.1807 79.7571C93.1493 79.5909 93.1368 79.2526 93.1368 78.7419V76.3698H92.4707V75.2197H93.1368V74.1386L94.5851 73.2988V75.2197H95.5715Z" fill="#6D7587"/>
<path fill-rule="evenodd" clip-rule="evenodd" d="M96.5742 80.6658H98.0193V75.2198H96.5742V80.6658ZM96.5742 74.4803H98.0193V73.1484H96.5742V74.4803Z" fill="#6D7587"/>
<path fill-rule="evenodd" clip-rule="evenodd" d="M98.8662 75.2212H99.6673V74.8108C99.6673 74.3533 99.7174 74.0117 99.8149 73.7862C99.9123 73.5605 100.091 73.3756 100.355 73.2346C100.616 73.0936 100.949 73.0215 101.348 73.0215C101.76 73.0215 102.165 73.0843 102.557 73.2064L102.363 74.2122C102.133 74.1558 101.91 74.1308 101.7 74.1308C101.489 74.1308 101.339 74.1777 101.247 74.275C101.16 74.3722 101.112 74.5601 101.112 74.8358V75.2212H102.193V76.3556H101.112V80.6673H99.6673V76.3556H98.8662V75.2212Z" fill="#6D7587"/>
<path fill-rule="evenodd" clip-rule="evenodd" d="M103.005 80.6658H104.45V75.2198H103.005V80.6658ZM103.005 74.4803H104.45V73.1484H103.005V74.4803Z" fill="#6D7587"/>
<path fill-rule="evenodd" clip-rule="evenodd" d="M109.174 77.476C109.165 77.0593 109.055 76.7428 108.85 76.5265C108.643 76.3072 108.395 76.2007 108.1 76.2007C107.782 76.2007 107.522 76.3135 107.317 76.5423C107.113 76.7709 107.009 77.0843 107.016 77.476H109.174ZM109.092 78.933L110.531 79.1744C110.346 79.7008 110.054 80.1018 109.655 80.3777C109.256 80.6503 108.756 80.7881 108.156 80.7881C107.207 80.7881 106.504 80.4779 106.048 79.8607C105.69 79.3656 105.508 78.7388 105.508 77.9837C105.508 77.0812 105.743 76.373 106.218 75.8653C106.689 75.3515 107.289 75.0977 108.012 75.0977C108.825 75.0977 109.463 75.3639 109.934 75.8999C110.402 76.4358 110.629 77.2535 110.607 78.3565H106.987C107 78.7859 107.116 79.1179 107.339 79.356C107.562 79.5943 107.839 79.7134 108.172 79.7134C108.398 79.7134 108.587 79.6506 108.744 79.5254C108.894 79.4032 109.011 79.2057 109.092 78.933Z" fill="#6D7587"/>
<path fill-rule="evenodd" clip-rule="evenodd" d="M112.936 77.8255C112.936 78.4053 113.015 78.8283 113.178 79.0853C113.411 79.4612 113.738 79.6493 114.155 79.6493C114.485 79.6493 114.771 79.5083 115.004 79.2293C115.236 78.9441 115.352 78.5244 115.352 77.9635C115.352 77.3367 115.239 76.8886 115.013 76.6129C114.787 76.3372 114.498 76.1992 114.146 76.1992C113.8 76.1992 113.515 76.3372 113.285 76.6066C113.053 76.8792 112.936 77.2865 112.936 77.8255ZM116.791 80.6646H115.45V79.8655C115.227 80.1788 114.963 80.4077 114.661 80.5611C114.356 80.7116 114.052 80.7899 113.744 80.7899C113.116 80.7899 112.578 80.5361 112.132 80.0315C111.683 79.527 111.46 78.8251 111.46 77.9227C111.46 77.0013 111.68 76.2994 112.113 75.8169C112.55 75.3376 113.1 75.0995 113.766 75.0995C114.375 75.0995 114.903 75.35 115.346 75.8577V73.1504H116.791V80.6646Z" fill="#6D7587"/>
</g>
</svg>
