<svg width="25" height="16" viewBox="0 0 25 16" fill="none" xmlns="http://www.w3.org/2000/svg">
<path fill-rule="evenodd" clip-rule="evenodd" d="M12.4999 0.0410156C19.2963 0.0410156 24.6177 7.21626 24.8411 7.52178C25.0529 7.81133 25.0529 8.20474 24.8411 8.49453C24.6177 8.79976 19.2963 15.975 12.4999 15.975C5.70342 15.975 0.381738 8.7998 0.158643 8.49429C-0.0528809 8.20444 -0.0528809 7.81133 0.158643 7.52148C0.381738 7.21626 5.70342 0.0410156 12.4999 0.0410156ZM1.87402 8.00747C3.15757 9.56436 7.49355 14.3267 12.4999 14.3267C17.5169 14.3267 21.8438 9.5668 23.1257 8.00859C21.8416 6.45088 17.5059 1.68936 12.4999 1.68936C7.48281 1.68936 3.15591 6.44922 1.87402 8.00747Z" fill="#6D7587"/>
<path fill-rule="evenodd" clip-rule="evenodd" d="M7.55469 8.00757C7.55469 5.28091 9.7731 3.0625 12.4998 3.0625C15.2264 3.0625 17.4448 5.28091 17.4448 8.00757C17.4448 10.7342 15.2264 12.9526 12.4998 12.9526C9.7731 12.9526 7.55469 10.7342 7.55469 8.00757ZM9.20308 8.00757C9.20308 9.82539 10.6819 11.3042 12.4998 11.3042C14.3176 11.3042 15.7964 9.82539 15.7964 8.00757C15.7964 6.18975 14.3176 4.71089 12.4998 4.71089C10.6819 4.71089 9.20308 6.18975 9.20308 8.00757Z" fill="#6D7587"/>
</svg>
